<?xml version="1.0" encoding="utf-8"?>
<!-- Generator: Adobe Illustrator 27.7.0, SVG Export Plug-In . SVG Version: 6.00 Build 0)  -->
<svg version="1.1" id="Layer_1" xmlns="http://www.w3.org/2000/svg" xmlns:xlink="http://www.w3.org/1999/xlink" x="0px" y="0px"
	 viewBox="0 0 160 40" style="enable-background:new 0 0 160 40;" xml:space="preserve">
<style type="text/css">
	.st0{fill-rule:evenodd;clip-rule:evenodd;fill:none;}
	.st1{fill:#F3F4F5;}
	.st2{fill-rule:evenodd;clip-rule:evenodd;fill:#F3F4F5;}
</style>
<g id="Page-1">
	<g id="Listen-On" transform="translate(-1049.000000, -485.000000)">
		<g id="Amazon-Music" transform="translate(1049.000000, 485.000000)">
			<path id="Rectangle" class="st0" d="M7,0h146c3.9,0,7,3.1,7,7v26c0,3.9-3.1,7-7,7H7c-3.9,0-7-3.1-7-7V7C0,3.1,3.1,0,7,0z"/>
			<path id="Listenon-Copy-4" class="st1" d="M43,14.9V9.1h0.9v5h2.8v0.8C46.7,14.9,43,14.9,43,14.9z M48,10c-0.3,0-0.5-0.2-0.5-0.5
				S47.7,9,48,9s0.5,0.2,0.5,0.5S48.3,10,48,10z M47.6,14.9v-4.2h0.8v4.2H47.6z M49.3,14.3l0.4-0.6c0.3,0.3,0.9,0.6,1.5,0.6
				s0.9-0.2,0.9-0.6c0-0.4-0.5-0.6-1.1-0.7c-0.7-0.2-1.6-0.4-1.6-1.3c0-0.7,0.6-1.2,1.7-1.2c0.8,0,1.3,0.3,1.7,0.6l-0.4,0.5
				c-0.3-0.3-0.7-0.5-1.3-0.5s-0.9,0.2-0.9,0.5c0,0.4,0.5,0.5,1,0.6c0.8,0.2,1.7,0.4,1.7,1.3c0,0.7-0.6,1.3-1.8,1.3
				C50.4,15,49.7,14.8,49.3,14.3z M55.1,15c-0.7,0-1-0.4-1-1v-2.6h-0.7v-0.7h0.7V9.6h0.8v1.1h0.9v0.7h-0.9v2.4
				c0,0.3,0.1,0.5,0.4,0.5c0.2,0,0.4-0.1,0.4-0.2l0.2,0.6C55.8,14.9,55.5,15,55.1,15z M56.4,12.8c0-1.2,0.9-2.2,2.2-2.2
				s2.1,1,2.1,2.3v0.2h-3.5c0.1,0.7,0.6,1.3,1.5,1.3c0.5,0,1-0.2,1.3-0.5l0.4,0.5c-0.4,0.4-1,0.6-1.8,0.6
				C57.3,15,56.4,14.1,56.4,12.8z M58.6,11.2c-0.9,0-1.3,0.7-1.3,1.3H60C59.9,11.9,59.5,11.2,58.6,11.2z M64.7,14.9v-2.7
				c0-0.7-0.4-0.9-0.9-0.9s-1,0.3-1.2,0.6v3h-0.8v-4.2h0.8v0.6c0.3-0.3,0.9-0.7,1.6-0.7c0.9,0,1.4,0.5,1.4,1.4v2.9
				C65.6,14.9,64.7,14.9,64.7,14.9z M71,15c-1.4,0-2.2-1-2.2-2.2s0.9-2.2,2.2-2.2c1.4,0,2.2,1,2.2,2.2S72.4,15,71,15z M71,14.3
				c0.9,0,1.4-0.7,1.4-1.5s-0.5-1.5-1.4-1.5s-1.4,0.7-1.4,1.5S70.1,14.3,71,14.3z M77.2,14.9v-2.7c0-0.7-0.4-0.9-0.9-0.9
				s-1,0.3-1.2,0.6v3h-0.8v-4.2H75v0.6c0.3-0.3,0.9-0.7,1.6-0.7c0.9,0,1.4,0.5,1.4,1.4v2.9C78,14.9,77.2,14.9,77.2,14.9z"/>
			<path id="AmazonMusic" class="st1" d="M44,31l1-3h4.3l1,3h1.9l-4.1-11.3h-1.9l-4,11.3H44z M48.9,26.5h-3.4l1.7-4.9l0,0L48.9,26.5
				z M55,31v-5.1c0-1.1,0.7-1.8,1.7-1.8s1.6,0.6,1.6,1.5V31H60v-5.1c0-1,0.7-1.8,1.7-1.8s1.6,0.6,1.6,1.7V31H65v-5.6
				c0-1.6-1.1-2.7-2.7-2.7c-1.2,0-2.1,0.6-2.6,1.6l0,0c-0.3-1-1.2-1.6-2.3-1.6s-2,0.6-2.3,1.5l0,0v-1.4h-1.6V31H55z M68.9,31.1
				c1.1,0,2.1-0.6,2.6-1.5l0,0V31h1.6v-5.7c0-1.6-1.3-2.7-3.3-2.7s-3.3,1.1-3.4,2.6H68c0.1-0.7,0.8-1.2,1.7-1.2c1,0,1.6,0.5,1.6,1.5
				v0.6l-2.2,0.1c-2,0.1-3.1,1-3.1,2.4C66.1,30.1,67.3,31.1,68.9,31.1z M69.3,29.8c-0.9,0-1.5-0.5-1.5-1.2s0.6-1.1,1.6-1.2l2-0.1
				v0.6C71.4,29,70.5,29.8,69.3,29.8z M81,31v-1.3h-4.3l0,0L81,24v-1.2h-6.3v1.3H79l0,0l-4.4,5.8V31H81z M86,31.2
				c2.4,0,3.9-1.6,3.9-4.3c0-2.6-1.6-4.3-3.9-4.3s-3.9,1.6-3.9,4.3C82.1,29.5,83.6,31.2,86,31.2z M86,29.8c-1.3,0-2.2-1-2.2-2.9
				c0-1.8,0.9-2.9,2.2-2.9s2.2,1,2.2,2.9C88.2,28.7,87.3,29.8,86,29.8z M92.9,31v-4.8c0-1.3,0.8-2.1,2-2.1s1.8,0.7,1.8,1.9v5h1.7
				v-5.3c0-1.9-1-3-2.9-3c-1.3,0-2.1,0.6-2.6,1.5l0,0v-1.4h-1.6V31H92.9z M104.9,31v-8.3h0.1l3.4,8.3h1.3l3.4-8.3h0.1V31h1.6V19.7
				h-2l-3.6,9H109l-3.6-9h-2V31H104.9z M119.5,31.1c1.3,0,2.1-0.6,2.5-1.5l0,0V31h1.6v-8.2H122v4.8c0,1.3-0.7,2.1-2,2.1
				c-1.2,0-1.8-0.7-1.8-1.9v-5h-1.7v5.3C116.6,30,117.7,31.1,119.5,31.1z M128.4,31.2c1.9,0,3.3-1,3.3-2.5c0-1.2-0.6-1.8-2.3-2.2
				l-1.3-0.3c-0.9-0.2-1.3-0.6-1.3-1.1c0-0.7,0.6-1.1,1.5-1.1c0.9,0,1.5,0.5,1.6,1.3h1.6c-0.1-1.5-1.3-2.6-3.2-2.6
				c-1.9,0-3.2,1-3.2,2.5c0,1.2,0.8,1.9,2.3,2.3l1.3,0.3c0.9,0.2,1.2,0.5,1.2,1c0,0.7-0.6,1.1-1.6,1.1s-1.6-0.4-1.8-1.3H125
				C125.1,30.1,126.4,31.2,128.4,31.2z M134,21.5c0.5,0,1-0.4,1-1c0-0.5-0.4-1-1-1s-1,0.4-1,1C133,21,133.4,21.5,134,21.5z
				 M134.8,31v-8.2h-1.7V31H134.8z M140.1,31.2c2,0,3.4-1.2,3.6-2.9H142c-0.2,1-0.9,1.5-1.9,1.5c-1.3,0-2.2-1-2.2-2.9
				c0-1.8,0.9-2.9,2.2-2.9c1.1,0,1.8,0.7,1.9,1.6h1.6c-0.1-1.6-1.4-3-3.6-3c-2.3,0-3.9,1.6-3.9,4.3
				C136.2,29.5,137.7,31.2,140.1,31.2z"/>
			<g id="Group-9" transform="translate(9.000000, 11.000000)">
				<g id="Group-5" transform="translate(0.000000, 5.000000)">
					<path id="Path" class="st2" d="M16.6,6.3c-0.2,0.1-0.4,0.2-0.7,0.2c-0.5,0-0.9-0.1-1.4-0.2c-0.1,0-0.2-0.1-0.3-0.1
						s-0.1,0.1-0.1,0.2v0.3c0,0.1,0,0.1,0.1,0.2c0,0,0.1,0.1,0.2,0.1c0.4,0.2,1,0.3,1.5,0.3c0.6,0,1-0.1,1.4-0.4s0.5-0.6,0.5-1.1
						c0-0.3-0.1-0.6-0.3-0.8c-0.2-0.2-0.4-0.4-0.8-0.5l-0.8-0.3c-0.3-0.1-0.5-0.2-0.6-0.3s-0.2-0.2-0.2-0.4c0-0.4,0.3-0.6,1-0.6
						c0.4,0,0.7,0.1,1.1,0.2c0.1,0,0.2,0.1,0.2,0.1c0.1,0,0.1-0.1,0.1-0.2V2.5c0-0.1,0-0.1-0.1-0.2c0-0.1-0.1-0.1-0.2-0.1
						C16.8,2.1,16.4,2,15.9,2c-0.5,0-1,0.1-1.3,0.4s-0.5,0.6-0.5,1c0,0.6,0.4,1.1,1.1,1.4L16,5.1c0.3,0.1,0.4,0.2,0.6,0.3
						c0.1,0.1,0.1,0.2,0.1,0.4C16.9,6,16.8,6.2,16.6,6.3z"/>
					<path id="Path_00000019649318062626837860000004115520955820342411_" class="st2" d="M19.6,0.2C19.5,0.1,19.3,0,19.1,0
						c-0.2,0-0.3,0.1-0.4,0.2s-0.2,0.3-0.2,0.4c0,0.2,0.1,0.3,0.2,0.4s0.3,0.2,0.4,0.2c0.2,0,0.3-0.1,0.4-0.2s0.2-0.3,0.2-0.4
						C19.8,0.4,19.7,0.3,19.6,0.2z"/>
					<path id="Path_00000111888521837587924400000013361876065156499101_" class="st2" d="M19.5,2.1h-0.6c-0.1,0-0.2,0.1-0.2,0.2V7
						c0,0.1,0.1,0.2,0.2,0.2h0.6c0.1,0,0.2-0.1,0.2-0.2V2.3C19.6,2.2,19.6,2.1,19.5,2.1z"/>
					<path id="Path_00000054952972715765616970000014244732985943501741_" class="st2" d="M22.1,3.2c0.3-0.3,0.6-0.4,1.2-0.4
						c0.3,0,0.6,0,0.8,0.1c0.1,0,0.1,0,0.2,0s0.1-0.1,0.1-0.2V2.4c0-0.1,0-0.2-0.1-0.2l-0.1-0.1c-0.3,0-0.7-0.1-1-0.1
						c-0.8,0-1.4,0.2-1.8,0.7c-0.4,0.4-0.6,1.1-0.6,2s0.2,1.5,0.6,1.9s1,0.7,1.8,0.7c0.4,0,0.8-0.1,1.1-0.2c0.1,0,0.1-0.1,0.2-0.1
						c0,0,0-0.1,0-0.2V6.5c0-0.1-0.1-0.2-0.1-0.2h-0.1c-0.3,0.1-0.6,0.1-0.9,0.1c-0.5,0-0.9-0.1-1.2-0.4c-0.3-0.3-0.4-0.7-0.4-1.3
						V4.5C21.7,3.9,21.8,3.5,22.1,3.2z"/>
					<path id="Path_00000079485720161456066460000001256289039816984751_" class="st2" d="M6.9,7.1h0.6c0.1,0,0.2-0.1,0.2-0.2V3.4
						c0-0.5-0.1-0.8-0.4-1.1C7,2.1,6.7,1.9,6.2,1.9c-0.6,0-1.3,0.2-2,0.7C4,2.2,3.6,1.9,3,1.9S1.8,2.1,1.1,2.5V2.3
						c0-0.1,0-0.1-0.1-0.1H0.9H0.4c-0.1,0-0.2,0.1-0.2,0.2V7c0,0.1,0.1,0.2,0.2,0.2H1c0.1,0,0.2-0.1,0.2-0.2V3.2
						c0.5-0.3,1-0.4,1.5-0.4c0.3,0,0.5,0.1,0.6,0.3c0.1,0.2,0.2,0.4,0.2,0.7V7c0,0.1,0.1,0.2,0.2,0.2h0.6c0.1,0,0.2-0.1,0.2-0.2V3.3
						c0-0.1,0-0.1,0-0.1C5,2.9,5.5,2.8,6,2.8c0.3,0,0.5,0.1,0.6,0.3s0.2,0.4,0.2,0.7V7C6.7,7.1,6.7,7.1,6.9,7.1z"/>
					<path id="Path_00000040553077116663445190000012342110249850474391_" class="st2" d="M12.2,2.3V6c-0.5,0.3-1,0.5-1.4,0.5
						c-0.3,0-0.5-0.1-0.7-0.3C10,6.1,9.9,5.8,9.9,5.4V2.3c0-0.1-0.1-0.2-0.2-0.2H9.1c-0.1,0-0.2,0-0.2,0.2v3.5
						c0,0.5,0.1,0.9,0.4,1.1c0.3,0.3,0.6,0.4,1.1,0.4c0.6,0,1.3-0.2,1.9-0.7l0.1,0.3c0,0.1,0,0.1,0.1,0.1c0,0,0.1,0,0.2,0H13
						c0.1,0,0.2-0.1,0.2-0.2V2.3c0-0.1-0.1-0.2-0.2-0.2h-0.6C12.3,2.1,12.2,2.2,12.2,2.3L12.2,2.3z"/>
					<path id="Path_00000127016245060471553420000007080794848376809361_" class="st2" d="M23.4,13.5c1.5-1.2,1.9-3.8,1.5-4.2
						C24.8,9.2,24.1,9,23.2,9s-2,0.2-2.8,0.8c-0.3,0.2-0.2,0.4,0.1,0.4c0.9-0.1,2.8-0.3,3.2,0.1c0.3,0.4-0.4,2.3-0.7,3.1
						C22.9,13.6,23.1,13.7,23.4,13.5z"/>
					<path id="Path_00000165197495562273073590000006018660418427395993_" class="st2" d="M22.2,10.9c-3.1,1.3-6.4,1.9-9.4,1.9
						c-4.5,0-8.8-1.2-12.4-3.3c-0.1,0-0.1-0.1-0.2-0.1C0,9.5-0.1,9.7,0.1,9.9c3.3,2.9,7.6,4.7,12.4,4.7c3.4,0,7.4-1.1,10.1-3.1
						C23,11.2,22.7,10.7,22.2,10.9L22.2,10.9z"/>
				</g>
				<g id="Group-8">
					<path id="Fill-5" class="st2" d="M14.1,0.8V0.3c0-0.1,0.1-0.1,0.1-0.1h2.5c0.1,0,0.1,0.1,0.1,0.1v0.5c0,0.1-0.1,0.2-0.2,0.3
						L15.4,3c0.5,0,1,0.1,1.4,0.3c0.1,0,0.2,0.1,0.2,0.2v0.6c0,0.1-0.1,0.2-0.2,0.1c-0.8-0.4-1.8-0.4-2.6,0c-0.1,0-0.2,0-0.2-0.1
						V3.5c0-0.1,0-0.2,0.1-0.4L15.6,1h-1.3C14.2,1,14.1,0.9,14.1,0.8"/>
					<path id="Fill-6" class="st2" d="M5.1,4.3H4.3c-0.1,0-0.1-0.1-0.1-0.1V0.3c0-0.1,0.1-0.1,0.1-0.1H5c0.1,0,0.1,0.1,0.1,0.1v0.5
						l0,0c0.2-0.5,0.5-0.7,1-0.7s0.8,0.2,1,0.7c0.2-0.5,0.6-0.7,1-0.7c0.3,0,0.7,0.1,0.9,0.4s0.2,0.8,0.2,1.2v2.4
						c0,0.1-0.1,0.1-0.1,0.1H8.4c-0.1,0-0.1-0.1-0.1-0.1V2c0-0.2,0-0.6,0-0.7C8.1,1.1,8,1,7.8,1C7.6,1,7.4,1.2,7.3,1.4
						C7.2,1.6,7.2,1.9,7.2,2.1v2.1c0,0.1-0.1,0.1-0.1,0.1H6.3c-0.1,0-0.1-0.1-0.1-0.1V2.1C6.2,1.7,6.3,1,5.7,1
						C5.2,1,5.2,1.7,5.2,2.1v2.1L5.1,4.3"/>
					<path id="Fill-7" class="st2" d="M19,0.9c-0.6,0-0.6,0.8-0.6,1.2c0,0.5,0,1.5,0.6,1.5s0.6-0.8,0.6-1.3c0-0.3,0-0.7-0.1-1
						C19.5,1,19.3,0.9,19,0.9z M19,0.1c1.1,0,1.7,1,1.7,2.2S20,4.4,19,4.4c-1.1,0-1.7-1-1.7-2.2S17.9,0.1,19,0.1L19,0.1z"/>
					<path id="Fill-8" class="st2" d="M22.2,4.3h-0.8c-0.1,0-0.1-0.1-0.1-0.1V0.3c0-0.1,0.1-0.1,0.1-0.1h0.7c0.1,0,0.1,0,0.1,0.1
						v0.6l0,0c0.2-0.5,0.5-0.8,1-0.8c0.3,0,0.7,0.1,0.9,0.5c0.2,0.3,0.2,0.8,0.2,1.2v2.4c0,0.1-0.1,0.1-0.1,0.1h-0.8
						c-0.1,0-0.1-0.1-0.1-0.1V2.1c0-0.4,0-1-0.5-1c-0.2,0-0.4,0.1-0.4,0.3c-0.1,0.2-0.1,0.5-0.1,0.7v2.1C22.4,4.2,22.3,4.3,22.2,4.3
						"/>
					<g id="Group-12">
						<g id="Clip-10">
						</g>
						<path id="Fill-9" class="st2" d="M12.9,4.3c0,0-0.1,0-0.2,0c-0.3-0.2-0.3-0.3-0.4-0.5c-0.4,0.4-0.7,0.5-1.2,0.5
							c-0.6,0-1.1-0.4-1.1-1.2c0-0.6,0.3-1,0.8-1.2c0.4-0.2,1-0.2,1.4-0.3v0c0-0.2,0-0.4-0.1-0.5s-0.3-0.2-0.4-0.2
							c-0.3,0-0.5,0.1-0.6,0.5c0,0.1-0.1,0.1-0.1,0.1l-0.7-0.1c-0.1,0-0.1-0.1-0.1-0.2C10.2,0.3,11,0,11.7,0c0.4,0,0.8,0.1,1.1,0.4
							c0.4,0.3,0.3,0.8,0.3,1.3v1.2c0,0.4,0.1,0.5,0.3,0.7c0,0.1,0.1,0.2,0,0.2C13.3,3.9,13.1,4.2,12.9,4.3L12.9,4.3z M12.1,2.5
							c0,0.3,0,0.5-0.1,0.8c-0.1,0.2-0.3,0.3-0.5,0.3c-0.3,0-0.5-0.2-0.5-0.5c0-0.6,0.6-0.8,1.1-0.8V2.5L12.1,2.5z"/>
						<path id="Fill-11" class="st2" d="M3,4.3c0,0-0.1,0-0.2,0C2.6,4.1,2.5,4,2.4,3.8C2,4.2,1.7,4.4,1.1,4.4S0,4,0,3.2
							c0-0.6,0.3-1,0.8-1.2c0.4-0.2,1-0.2,1.4-0.3V1.6c0-0.2,0-0.4-0.1-0.5C2,0.9,1.9,0.8,1.7,0.8C1.4,0.8,1.2,1,1.1,1.3
							C1.1,1.4,1,1.4,1,1.4H0.2c-0.1,0-0.1-0.1-0.1-0.2C0.3,0.3,1.1,0,1.8,0C2.2,0,2.7,0.1,3,0.4c0.4,0.3,0.3,0.8,0.3,1.3v1.2
							c0,0.4,0.1,0.5,0.3,0.7c0,0.1,0.1,0.2,0,0.2C3.4,3.9,3.1,4.2,3,4.3L3,4.3z M2.2,2.5c0,0.3,0,0.5-0.1,0.8
							C2,3.5,1.8,3.6,1.6,3.6c-0.3,0-0.5-0.2-0.5-0.5c0-0.6,0.6-0.8,1.1-0.8V2.5L2.2,2.5z"/>
					</g>
				</g>
			</g>
		</g>
	</g>
</g>
</svg>
