<?xml version="1.0" encoding="utf-8"?>
<!-- Generator: Adobe Illustrator 27.7.0, SVG Export Plug-In . SVG Version: 6.00 Build 0)  -->
<svg version="1.1" id="Layer_1" xmlns="http://www.w3.org/2000/svg" xmlns:xlink="http://www.w3.org/1999/xlink" x="0px" y="0px"
	 viewBox="0 0 160 40" style="enable-background:new 0 0 160 40;" xml:space="preserve">
<style type="text/css">
	.st0{fill-rule:evenodd;clip-rule:evenodd;fill:none;}
	.st1{fill:#F3F4F5;}
</style>
<g id="Page-1">
	<g id="Listen-On" transform="translate(-149.000000, -485.000000)">
		<g id="Apple-Podcasts" transform="translate(149.000000, 485.000000)">
			<path id="Rectangle" class="st0" d="M7,0h146c3.9,0,7,3.1,7,7v26c0,3.9-3.1,7-7,7H7c-3.9,0-7-3.1-7-7V7C0,3.1,3.1,0,7,0z"/>
			<path class="st1" d="M33.2,10.6c-0.2-0.6-0.8-1.4-1.5-2c-0.5-0.3-1-0.7-1.7-0.9c-0.8-0.2-1.7-0.3-2.9-0.3H16.2
				c-1.2,0-2.2,0.1-2.9,0.3c-0.7,0.2-1.3,0.5-1.7,0.9c-0.8,0.6-1.3,1.4-1.5,2c-0.5,1.2-0.5,2.6-0.5,3.4v10.9c0,0.9,0,2.2,0.5,3.4
				c0.2,0.6,0.8,1.4,1.5,2c0.4,0.3,1,0.7,1.7,0.9c0.8,0.2,1.7,0.3,2.9,0.3H27c1.2,0,2.2-0.1,2.9-0.3c0.7-0.2,1.3-0.5,1.7-0.9
				c0.8-0.6,1.3-1.4,1.5-2c0.5-1.2,0.5-2.6,0.5-3.4V14.1C33.7,13.2,33.7,11.8,33.2,10.6z M23.6,23.8c-0.1,0.7-0.2,1.7-0.3,2.7
				c-0.1,0.7-0.2,1.1-0.3,1.4c-0.1,0.5-0.6,0.8-1.4,0.8s-1.3-0.4-1.4-0.8c-0.1-0.3-0.2-0.7-0.3-1.4c-0.2-1-0.3-2-0.3-2.7
				c-0.1-0.8-0.1-1.3,0-1.8c0-0.3,0.1-0.5,0.3-0.7c0.4-0.4,1-0.6,1.8-0.6s1.4,0.2,1.8,0.6c0.2,0.2,0.3,0.4,0.3,0.7
				C23.7,22.6,23.7,23.1,23.6,23.8z M18.5,22c0.1,0.1,0.1,0.2,0.1,0.3c0,0.3,0,0.6,0,1c0,0.1-0.1,0.2-0.2,0.1
				c-1.5-1-2.5-2.8-2.5-4.8c0-3,2.5-5.5,5.5-5.6c3.2-0.1,5.9,2.5,5.9,5.7c0,2-1,3.7-2.5,4.7c-0.1,0.1-0.2,0-0.2-0.1c0-0.3,0-0.7,0-1
				c0-0.1,0-0.2,0.1-0.3c0.9-0.9,1.5-2,1.5-3.4c0-2.6-2.2-4.7-4.8-4.6c-2.4,0.1-4.3,2-4.4,4.5C17,19.8,17.5,21.1,18.5,22z
				 M23.6,17.9c0,1.1-0.9,2-2,2s-2-0.9-2-2s0.9-2,2-2S23.6,16.8,23.6,17.9z M24.4,26.6c-0.1,0-0.2,0-0.1-0.1c0-0.3,0.1-0.6,0.1-0.9
				c0-0.1,0.1-0.2,0.2-0.2c2.6-1.2,4.5-3.8,4.5-6.8c0-4.1-3.4-7.5-7.5-7.4c-4,0-7.3,3.3-7.4,7.4c0,3.1,1.8,5.7,4.5,6.9
				c0.1,0,0.2,0.1,0.2,0.2c0,0.3,0.1,0.6,0.1,0.9c0,0.1-0.1,0.2-0.1,0.1c-3.3-1.2-5.7-4.4-5.7-8.1c0.1-4.6,3.8-8.4,8.5-8.4
				s8.5,3.8,8.5,8.5C30.1,22.3,27.7,25.5,24.4,26.6z"/>
			<path id="Listenon-Copy" class="st1" d="M43,14.9V9.1h0.9v5h2.8v0.8C46.7,14.9,43,14.9,43,14.9z M48,10c-0.3,0-0.5-0.2-0.5-0.5
				S47.7,9,48,9s0.5,0.2,0.5,0.5S48.3,10,48,10z M47.6,14.9v-4.2h0.8v4.2H47.6z M49.3,14.3l0.4-0.6c0.3,0.3,0.9,0.6,1.5,0.6
				s0.9-0.2,0.9-0.6c0-0.4-0.5-0.6-1.1-0.7c-0.7-0.2-1.6-0.4-1.6-1.3c0-0.7,0.6-1.2,1.7-1.2c0.8,0,1.3,0.3,1.7,0.6l-0.4,0.5
				c-0.3-0.3-0.7-0.5-1.3-0.5s-0.9,0.2-0.9,0.5c0,0.4,0.5,0.5,1,0.6c0.8,0.2,1.7,0.4,1.7,1.3c0,0.7-0.6,1.3-1.8,1.3
				C50.4,15,49.7,14.8,49.3,14.3z M55.1,15c-0.7,0-1-0.4-1-1v-2.6h-0.7v-0.7h0.7V9.6h0.8v1.1h0.9v0.7h-0.9v2.4
				c0,0.3,0.1,0.5,0.4,0.5c0.2,0,0.4-0.1,0.4-0.2l0.2,0.6C55.8,14.9,55.5,15,55.1,15z M56.4,12.8c0-1.2,0.9-2.2,2.2-2.2
				s2.1,1,2.1,2.3v0.2h-3.5c0.1,0.7,0.6,1.3,1.5,1.3c0.5,0,1-0.2,1.3-0.5l0.4,0.5c-0.4,0.4-1,0.6-1.8,0.6
				C57.3,15,56.4,14.1,56.4,12.8z M58.6,11.2c-0.9,0-1.3,0.7-1.3,1.3H60C59.9,11.9,59.5,11.2,58.6,11.2z M64.7,14.9v-2.7
				c0-0.7-0.4-0.9-0.9-0.9s-1,0.3-1.2,0.6v3h-0.8v-4.2h0.8v0.6c0.3-0.3,0.9-0.7,1.6-0.7c0.9,0,1.4,0.5,1.4,1.4v2.9
				C65.6,14.9,64.7,14.9,64.7,14.9z M71,15c-1.4,0-2.2-1-2.2-2.2s0.9-2.2,2.2-2.2c1.4,0,2.2,1,2.2,2.2S72.4,15,71,15z M71,14.3
				c0.9,0,1.4-0.7,1.4-1.5s-0.5-1.5-1.4-1.5s-1.4,0.7-1.4,1.5S70.1,14.3,71,14.3z M77.2,14.9v-2.7c0-0.7-0.4-0.9-0.9-0.9
				s-1,0.3-1.2,0.6v3h-0.8v-4.2H75v0.6c0.3-0.3,0.9-0.7,1.6-0.7c0.9,0,1.4,0.5,1.4,1.4v2.9C78,14.9,77.2,14.9,77.2,14.9z"/>
			<path id="ApplePodcasts" class="st1" d="M45,31l1-3h4.3l1,3h1.9l-4.1-11.3h-1.9l-4,11.3H45z M49.9,26.5h-3.4l1.7-4.9l0,0
				L49.9,26.5z M56,33.7v-4.1l0,0c0.5,0.9,1.4,1.5,2.6,1.5c2.1,0,3.4-1.6,3.4-4.2s-1.4-4.2-3.5-4.2c-1.2,0-2.1,0.6-2.6,1.5l0,0v-1.4
				h-1.6v10.9H56z M58.1,29.7c-1.3,0-2.2-1.1-2.2-2.8c0-1.7,0.9-2.8,2.2-2.8s2.2,1.1,2.2,2.8S59.4,29.7,58.1,29.7z M65,33.7v-4.1
				l0,0c0.5,0.9,1.4,1.5,2.6,1.5c2.1,0,3.4-1.6,3.4-4.2s-1.4-4.2-3.5-4.2c-1.2,0-2.1,0.6-2.6,1.5l0,0v-1.4h-1.6v10.9H65z M67.1,29.7
				c-1.3,0-2.2-1.1-2.2-2.8c0-1.7,0.9-2.8,2.2-2.8c1.3,0,2.2,1.1,2.2,2.8C69.3,28.6,68.5,29.7,67.1,29.7z M74.1,31V19.7h-1.7V31
				H74.1z M79.3,31.2c1.9,0,3.3-1.1,3.5-2.6h-1.6c-0.2,0.7-0.9,1.2-1.9,1.2c-1.4,0-2.2-0.9-2.2-2.4v-0.1H83v-0.6
				c0-2.5-1.4-4.1-3.7-4.1c-2.3,0-3.8,1.7-3.8,4.3S76.9,31.2,79.3,31.2z M81.3,26.1h-4.1c0.1-1.2,0.9-2.1,2.1-2.1
				S81.2,24.9,81.3,26.1z M89.5,31v-3.9h2.4c2.2,0,3.8-1.5,3.8-3.7s-1.5-3.7-3.7-3.7h-4.2V31H89.5z M91.5,25.7h-2v-4.5h2
				c1.5,0,2.4,0.8,2.4,2.2S93,25.7,91.5,25.7z M100.5,31.2c2.4,0,3.9-1.6,3.9-4.3c0-2.6-1.6-4.3-3.9-4.3s-3.9,1.6-3.9,4.3
				C96.6,29.5,98.2,31.2,100.5,31.2z M100.5,29.8c-1.3,0-2.2-1-2.2-2.9c0-1.8,0.9-2.9,2.2-2.9s2.2,1,2.2,2.9
				C102.7,28.7,101.9,29.8,100.5,29.8z M108.8,31.1c1.2,0,2.1-0.6,2.6-1.5l0,0V31h1.6V19.7h-1.7v4.4l0,0c-0.5-0.9-1.4-1.5-2.6-1.5
				c-2.1,0-3.4,1.6-3.4,4.2S106.7,31.1,108.8,31.1z M109.3,29.7c-1.3,0-2.2-1.1-2.2-2.8c0-1.7,0.8-2.8,2.2-2.8
				c1.3,0,2.2,1.1,2.2,2.8C111.4,28.6,110.6,29.7,109.3,29.7z M118.3,31.2c2,0,3.4-1.2,3.6-2.9h-1.6c-0.2,1-0.9,1.5-1.9,1.5
				c-1.3,0-2.2-1-2.2-2.9c0-1.8,0.9-2.9,2.2-2.9c1.1,0,1.8,0.7,1.9,1.6h1.6c-0.1-1.6-1.4-3-3.6-3c-2.3,0-3.9,1.6-3.9,4.3
				C114.5,29.5,116,31.2,118.3,31.2z M125.5,31.1c1.1,0,2.1-0.6,2.6-1.5l0,0V31h1.6v-5.7c0-1.6-1.3-2.7-3.3-2.7s-3.3,1.1-3.4,2.6
				h1.6c0.1-0.7,0.8-1.2,1.7-1.2c1,0,1.6,0.5,1.6,1.5v0.6l-2.2,0.1c-2,0.1-3.1,1-3.1,2.4C122.8,30.1,123.9,31.1,125.5,31.1z
				 M126,29.8c-0.9,0-1.5-0.5-1.5-1.2s0.6-1.1,1.6-1.2l2-0.1v0.6C128.1,29,127.1,29.8,126,29.8z M134.5,31.2c1.9,0,3.3-1,3.3-2.5
				c0-1.2-0.6-1.8-2.3-2.2l-1.3-0.3c-0.9-0.2-1.3-0.6-1.3-1.1c0-0.7,0.6-1.1,1.5-1.1s1.5,0.5,1.6,1.3h1.6c-0.1-1.5-1.3-2.6-3.2-2.6
				s-3.2,1-3.2,2.5c0,1.2,0.8,1.9,2.3,2.3l1.3,0.3c0.9,0.2,1.2,0.5,1.2,1c0,0.7-0.6,1.1-1.6,1.1s-1.6-0.4-1.8-1.3H131
				C131.2,30.1,132.4,31.2,134.5,31.2z M141.9,31.1c0.4,0,0.8,0,0.9-0.1v-1.3c-0.1,0-0.4,0-0.6,0c-0.7,0-1-0.3-1-1v-4.5h1.6v-1.3
				h-1.6V21h-1.7v1.9h-1.2v1.3h1.2v4.7C139.6,30.4,140.2,31.1,141.9,31.1z M147.3,31.2c1.9,0,3.3-1,3.3-2.5c0-1.2-0.6-1.8-2.3-2.2
				l-1.3-0.3c-0.9-0.2-1.3-0.6-1.3-1.1c0-0.7,0.6-1.1,1.5-1.1s1.5,0.5,1.6,1.3h1.6c-0.1-1.5-1.3-2.6-3.2-2.6s-3.2,1-3.2,2.5
				c0,1.2,0.8,1.9,2.3,2.3l1.3,0.3c0.9,0.2,1.2,0.5,1.2,1c0,0.7-0.6,1.1-1.6,1.1s-1.6-0.4-1.8-1.3h-1.7
				C144,30.1,145.3,31.2,147.3,31.2z"/>
		</g>
	</g>
</g>
</svg>
