<?xml version="1.0" encoding="utf-8"?>
<!-- Generator: Adobe Illustrator 24.1.2, SVG Export Plug-In . SVG Version: 6.00 Build 0)  -->
<svg version="1.1" id="Layer_1" xmlns="http://www.w3.org/2000/svg" xmlns:xlink="http://www.w3.org/1999/xlink" x="0px" y="0px"
	 viewBox="0 0 400 400" style="enable-background:new 0 0 400 400;" xml:space="preserve">
<style type="text/css">
	.st0{fill:#F3F4F5;}
</style>
<path class="st0" d="M280.5,111.8v75.7H321v-13.1h-26.5v-17.9h25.4v-13.1h-25.4v-18.5H321v-13.1L280.5,111.8L280.5,111.8z
	 M213.7,111.8h-14v47.9c0,4.7,0.5,8.5,1.4,11.4c1,2.9,2,5.2,3.3,6.8c0.8,1.1,1.9,2.3,3.3,3.5c1.4,1.3,3,2.4,4.9,3.5s4,2,6.5,2.7
	c2.4,0.7,5.1,1.1,7.9,1.1c5.2,0,9.7-1.1,13.6-3.3c3.9-2.2,6.9-4.8,9.1-7.9c1.8-2.5,3-5.4,3.5-8.5c0.6-3.2,0.9-6.3,0.9-9.3v-47.9h-14
	v47.9c0,1-0.1,2.3-0.2,4.1c-0.1,1.8-0.6,3.5-1.4,5.3c-0.8,1.8-2.1,3.3-3.9,4.6c-1.8,1.3-4.3,2-7.6,2s-5.8-0.7-7.6-2
	s-3.1-2.9-3.9-4.6c-0.8-1.8-1.3-3.5-1.4-5.3c-0.1-1.8-0.2-3.1-0.2-4.1v-47.9H213.7z M141.8,111.8v75.7h36.8v-13.1h-22.9v-62.6
	L141.8,111.8L141.8,111.8z M151,215.4l-31.5,75.7H135l8.1-19.5h27.1l8.1,19.5h15.5l-31.7-75.7L151,215.4L151,215.4z M147.8,258.5
	l8.6-23h0.2l8.6,23H147.8L147.8,258.5z M73,111.8v75.7h20.1c1.2,0,2.6-0.1,4.3-0.2c1.6-0.1,3.3-0.3,5.1-0.6c1.8-0.3,3.6-0.8,5.3-1.3
	c1.7-0.6,3.3-1.4,4.7-2.4c1.2-0.8,2.3-1.8,3.4-2.9c1.1-1.1,2.1-2.4,3-3.9s1.6-3.1,2.1-5s0.8-3.9,0.8-6.2c0-3.2-0.4-5.9-1.3-8.1
	c-0.9-2.2-2-4-3.3-5.4s-2.7-2.6-4.2-3.4s-2.9-1.5-4.1-1.9c0.6-0.3,1.4-0.8,2.3-1.5c0.9-0.6,1.9-1.5,2.8-2.7c0.9-1.1,1.7-2.5,2.3-4.2
	c0.6-1.7,1-3.7,1-6.1c0-2.6-0.6-5.2-1.8-7.7c-1.2-2.6-2.7-4.7-4.6-6.4c-1.6-1.4-3.4-2.6-5.2-3.4c-1.8-0.8-3.7-1.4-5.7-1.7
	c-2-0.3-4-0.5-6-0.6c-2.1-0.1-4.1-0.1-6.2-0.1L73,111.8L73,111.8z M86.9,141.5v-16.4h5.7c3.9,0,6.7,0.8,8.2,2.4
	c1.6,1.6,2.3,3.5,2.3,5.8c0,2-0.5,3.6-1.4,4.8c-0.9,1.1-2,1.9-3.3,2.5c-1.3,0.5-2.6,0.8-3.9,0.9s-2.4,0.1-3.2,0.1h-4.4V141.5z
	 M86.9,174.3v-20h7.3c3.1,0,5.5,0.4,7.3,1.2s3.2,1.7,4.2,2.8s1.6,2.2,1.9,3.3c0.3,1.2,0.4,2.1,0.4,2.9c0,2.4-0.6,4.4-1.8,5.7
	c-1.2,1.4-2.6,2.3-4.2,3c-1.6,0.6-3.1,1-4.7,1.1s-2.7,0.2-3.4,0.2h-7V174.3z M88,263.2v27.9h13.9v-27.9l24.8-47.8h-15.3L95,250.2
	l-16.3-34.8H63.3L88,263.2z M271.5,215.4v75.7h17.4c2.1,0,4.3-0.1,6.5-0.2s4.4-0.4,6.6-0.8s4.2-0.9,6.2-1.5s3.9-1.4,5.6-2.4
	c2.7-1.5,5.2-3.4,7.4-5.7c2.2-2.3,4.1-4.9,5.7-7.8s2.8-5.9,3.6-9.2c0.8-3.3,1.3-6.6,1.3-10c0-2.9-0.3-5.8-0.9-8.7s-1.5-5.6-2.6-8.1
	s-2.4-4.8-4-7c-1.5-2.1-3.2-4-4.9-5.5c-1.1-1-2.4-1.9-4.1-3c-1.6-1-3.7-2-6.1-2.9s-5.3-1.6-8.7-2.1c-3.4-0.5-7.4-0.8-12-0.8
	L271.5,215.4L271.5,215.4z M285.4,278.5v-49.7h2.6c4.4,0,8.4,0.4,12.1,1.2c3.6,0.8,6.9,2.5,9.8,5.2c2.4,2.2,4.4,4.9,5.9,8.2
	s2.2,6.8,2.2,10.5c0,2.1-0.2,4.1-0.7,6.2s-1.2,4-2.1,5.9c-0.9,1.8-2.1,3.5-3.6,5.1c-1.4,1.5-3.1,2.8-4.9,3.9
	c-1.5,0.8-2.9,1.5-4.3,1.9c-1.4,0.5-2.8,0.8-4.2,1.1c-1.4,0.2-2.9,0.4-4.5,0.5s-3.3,0.2-5.2,0.2L285.4,278.5L285.4,278.5z
	 M203.9,215.4v75.7h14v-29h0.2l20.1,29h17l-20.6-27.9c1.9-0.5,3.9-1.1,6-1.8c2.1-0.8,4.3-2.2,6.6-4.4c1.4-1.3,2.5-2.7,3.4-4.3
	s1.7-3.2,2.3-4.8s1-3.2,1.2-4.8s0.4-3,0.4-4.2c0-2.2-0.3-4.2-0.8-6s-1.2-3.5-2-5.1c-0.9-1.5-1.8-2.9-2.9-4.1
	c-1.1-1.2-2.1-2.2-3.2-3.1c-2.2-1.8-4.7-3.1-7.6-3.9c-2.9-0.8-6.5-1.2-10.9-1.2L203.9,215.4L203.9,215.4z M217.8,251.8v-23h8.9
	c2.7,0,4.9,0.4,6.6,1.2c1.7,0.8,3.1,1.8,4.1,3s1.7,2.4,2.1,3.8c0.4,1.3,0.6,2.5,0.6,3.5s-0.2,2.2-0.5,3.5s-0.9,2.6-1.9,3.8
	s-2.3,2.2-4.1,3.1c-1.8,0.8-4.1,1.3-6.9,1.3h-8.9V251.8z"/>
</svg>
