<svg width="734" height="340" viewBox="0 0 734 340" fill="none" xmlns="http://www.w3.org/2000/svg">
<path fill-rule="evenodd" clip-rule="evenodd" d="M128.046 174.224L75.9097 243.549C70.2454 251.045 75.6202 261.812 85.0056 261.812C85.0056 261.812 123.208 260.239 133.007 260.239C142.847 260.239 181.009 261.812 181.009 261.812C190.394 261.812 195.728 251.086 190.105 243.549L137.927 174.224C135.447 170.911 135.447 166.314 137.927 163.001L190.105 93.676C195.769 86.1802 190.394 75.4129 181.009 75.4129C181.009 75.4129 145.907 77.4835 133.007 77.4835C120.108 77.4835 85.0056 75.4129 85.0056 75.4129C75.6202 75.4129 70.2867 86.1388 75.9097 93.676L128.087 163.001C130.568 166.314 130.568 170.911 128.046 174.224ZM125.152 173.603C127.384 170.663 127.384 166.604 125.152 163.622L75.0828 94.2972C68.9223 86.0974 74.752 74.3776 85.0056 74.3776H181.009C191.263 74.3776 197.092 86.0974 190.932 94.2972L140.822 163.622C138.589 166.563 138.589 170.621 140.822 173.603L190.932 242.928C197.092 251.128 191.263 262.848 181.009 262.848H132.966H84.9642C74.7106 262.848 68.881 251.128 75.0414 242.928L125.152 173.603Z" fill="#F3F4F5"/>
<path fill-rule="evenodd" clip-rule="evenodd" d="M188.864 159.191L137.679 113.347C134.868 110.779 131.105 110.779 128.294 113.347L77.1084 159.191C72.5191 163.374 72.5191 172.112 77.1084 176.295L128.294 223.878C131.105 226.446 134.868 226.446 137.679 223.878L188.864 176.295C193.454 172.153 193.454 163.374 188.864 159.191ZM138.341 110.241C135.116 107.301 130.857 107.301 127.632 110.241L76.4469 157.99C71.1961 162.753 71.1961 172.775 76.4469 177.537L127.632 226.984C130.857 229.924 135.116 229.924 138.341 226.984L189.526 177.537C194.777 172.775 194.777 162.753 189.526 157.99L138.341 110.241Z" fill="#F3F4F5"/>
<path d="M387.444 157.41C387.403 157.286 387.403 157.245 387.362 157.162C386.204 154.47 385.088 151.695 384.054 148.921C380.829 140.307 376.571 125.44 373.594 112.85C372.105 106.597 370.824 99.7223 369.955 95.6638C367.971 86.6358 365.738 82.0389 364.746 80.1754C363.795 78.3946 361.356 75.2886 357.841 75.2886C355.485 75.2886 353.872 76.2825 352.963 77.028C352.012 77.7734 351.226 78.6431 350.565 79.5542C349.903 80.4653 349.324 81.4177 348.828 82.3702C347.794 84.2752 346.968 86.2631 346.223 88.2509C345.479 90.2387 344.818 92.2265 344.197 94.2558C342.957 98.3142 342.544 98.2728 336.507 118.027C332.455 128.918 332.042 129.912 328.321 138.029C322.202 151.406 320.507 153.849 318.894 156.789C318.605 157.203 318.439 157.7 318.439 158.239C318.439 159.688 319.597 160.848 321.044 160.848C322.119 160.848 323.029 160.185 323.442 159.274C323.442 159.274 323.442 159.274 323.442 159.233C324.807 155.795 328.362 145.566 330.884 138.485C331.215 137.574 331.546 136.58 331.918 135.586C335.391 135.213 339.195 134.882 342.585 134.592C346.595 134.302 351.681 134.095 355.733 133.971C357.717 133.888 359.785 133.888 361.81 133.846H364.084C368.426 134.012 373.015 134.219 377.563 134.675C379.134 141.798 380.457 148.051 380.705 149.211C381.697 154.304 382.648 159.067 382.648 159.067C383.021 160.061 383.971 160.806 385.088 160.806C386.535 160.806 387.693 159.647 387.693 158.197C387.61 157.949 387.568 157.659 387.444 157.41ZM363.63 133.101L361.769 133.018C359.702 132.935 357.717 132.853 355.65 132.811C351.598 132.728 347.464 132.728 343.371 132.811C339.815 132.894 336.301 133.06 332.662 133.267C333.903 129.54 335.184 125.688 336.135 122.665L336.797 120.346C336.797 120.346 336.797 120.346 336.797 120.304C337.003 119.725 337.21 119.145 337.417 118.565C337.541 118.151 337.706 117.737 337.83 117.364C337.83 117.323 337.872 117.281 337.872 117.24L338.202 116.287C338.699 114.879 339.112 113.596 339.525 112.312C341.675 106.183 348.497 89.7832 350.482 86.2216C353.831 80.1339 359.206 78.5603 362.679 83.8611C363.712 85.4762 364.539 87.3398 365.242 89.2034C367.433 94.5456 371.527 109.537 372.478 113.181C372.85 114.589 373.346 116.619 373.883 119.062L374.669 121.92C375.537 125.647 376.488 129.912 377.356 133.971C372.767 133.474 368.095 133.225 363.63 133.101Z" fill="#F3F4F5"/>
<path d="M462.239 220.234C462.363 226.736 462.611 233.445 462.983 240.071C463.355 246.821 463.727 253.281 464.223 260.032C464.347 261.398 463.355 262.599 461.99 262.724C460.626 262.848 459.386 261.854 459.262 260.529V260.032C459.882 253.281 460.254 246.821 460.626 240.071L461.37 220.234C461.37 216.797 461.494 210.999 461.37 207.727C461.37 206.153 460.791 195.22 460.791 193.978C460.626 186.275 463.231 181.596 467.82 179.028C470.425 177.579 479.066 175.881 484.358 190.334C485.681 193.937 489.94 207.603 493.909 221.6C498.788 238.704 502.633 257.216 511.729 257.547C520.742 257.878 523.595 250.258 523.967 239.532C524.298 230.463 524.339 220.11 524.256 218.909C524.256 215.471 524.132 208.348 524.008 206.775C524.008 205.077 523.884 203.462 523.884 201.764C523.512 195.179 523.016 188.553 522.148 181.844C521.9 180.519 522.892 179.152 524.38 179.028C525.745 178.78 526.985 179.773 527.233 181.223V181.844C526.365 188.553 525.869 195.179 525.497 201.764C525.373 203.462 525.373 205.077 525.248 206.775C525.124 208.348 525 215.513 525.124 218.909C525.124 218.909 525.249 238.041 525.207 244.253C525.083 253.654 520.949 263.013 511.398 261.895C499.284 260.446 498.085 242.638 492.793 222.18C487.5 201.722 481.423 183.501 472.161 182.921C465.546 182.507 463.231 187.559 462.487 193.564C461.825 198.492 462.115 216.797 462.239 220.234Z" fill="#F3F4F5"/>
<path d="M309.262 99.9708C306.905 92.7649 302.192 86.056 295.742 81.5834C294.873 81.0865 294.005 80.4653 293.137 80.0926C292.269 79.5956 291.401 79.2229 290.408 78.8502C289.54 78.4775 288.548 78.229 287.679 77.9805L286.191 77.6078C285.819 77.6078 285.323 77.4836 284.827 77.3593L283.338 77.2351C282.842 77.1108 282.346 77.2351 281.85 77.1108H280.361H278.997C277.012 77.2351 275.152 77.4836 273.167 77.9805C271.307 78.3532 269.446 78.8502 267.586 79.5956C265.725 80.2168 263.989 81.0865 262.252 82.2046C260.64 83.1985 259.151 84.4409 257.663 85.8075C256.174 87.1742 254.81 88.5408 253.57 90.1559C252.453 91.771 251.337 93.3861 250.469 95.1254C249.601 96.8648 248.856 98.7284 248.236 100.592L247.492 103.449C247.244 104.443 247.12 105.313 246.872 106.307L246.5 109.164C246.5 109.661 246.376 110.158 246.376 110.655C246.376 111.152 246.252 111.525 246.252 112.022C245.507 119.6 245.755 127.428 247.988 134.882C249.104 138.609 250.717 142.212 252.826 145.566C254.934 148.797 257.787 151.778 260.888 154.015C264.113 156.375 267.71 158.114 271.555 158.984C273.415 159.481 275.4 159.73 277.26 159.73C279.245 159.854 281.106 159.605 283.09 159.357C284.951 159.108 286.811 158.611 288.672 157.99C290.532 157.493 292.269 156.748 294.005 155.878C295.618 155.009 297.23 154.015 298.843 152.896C300.331 151.654 301.695 150.412 302.936 149.045C303.928 148.051 305.541 147.927 306.533 148.921C307.525 149.915 307.649 151.53 306.657 152.524C306.657 152.648 306.533 152.648 306.533 152.772C304.796 154.139 303.06 155.381 301.199 156.499C299.339 157.618 297.478 158.611 295.494 159.357C291.649 160.972 287.555 161.966 283.338 162.214C281.23 162.339 279.121 162.339 277.136 162.09C275.028 161.842 273.043 161.345 271.059 160.723C267.09 159.481 263.493 157.493 260.144 155.133C256.795 152.772 253.942 149.79 251.337 146.56C248.856 143.33 246.624 139.851 244.887 136C241.414 128.421 240.174 119.725 241.662 111.401C242.407 107.301 244.019 103.325 245.88 99.598C246.872 97.8587 247.988 96.1194 249.104 94.38C250.221 92.6407 251.461 91.0256 252.701 89.4105C253.942 87.7954 255.306 86.3045 256.795 84.9379C258.283 83.5713 259.896 82.3289 261.632 81.0865C264.981 78.8502 268.702 76.8624 272.795 75.9927C274.78 75.4957 276.888 75.2473 278.873 75.2473H280.485C280.982 75.2473 281.478 75.3715 281.974 75.3715C282.47 75.4957 283.09 75.4957 283.586 75.62L285.075 75.8684C286.067 75.9927 287.059 76.3654 288.052 76.6139L289.54 77.1108C290.036 77.2351 290.532 77.3593 290.904 77.6078C291.897 77.9805 292.889 78.3532 293.757 78.8502C294.253 79.0987 294.749 79.2229 295.122 79.4714C295.618 79.8441 295.99 80.0926 296.486 80.2168L297.23 80.5895L297.85 81.0865C298.222 81.335 298.719 81.5834 299.091 81.8319L301.695 83.5712C303.308 84.9379 304.92 86.3045 306.285 87.7954L307.401 88.9135L308.517 90.0317L310.378 92.5164C311.122 93.3861 311.618 94.2558 312.238 95.1254C312.859 95.9951 313.355 96.8648 313.975 97.8587C314.719 98.9769 314.347 100.592 313.231 101.337C311.99 102.207 310.378 101.834 309.634 100.592C309.51 100.468 309.386 100.219 309.386 100.095L309.262 99.9708Z" fill="#F3F4F5"/>
<path d="M399.187 77.9805C398.443 86.1802 398.07 94.38 397.698 102.58C397.574 106.68 397.45 110.779 397.45 114.879C397.326 116.991 397.326 119.103 397.326 121.091C397.45 123.079 397.574 125.067 397.946 127.179C398.318 129.167 398.691 131.155 399.311 133.018C399.931 135.006 400.675 136.87 401.543 138.733C403.28 142.336 405.637 145.691 408.365 148.424C413.823 154.139 421.141 157.742 428.583 157.742C432.304 157.742 436.025 156.872 439.498 155.381C442.971 153.766 446.196 151.406 448.925 148.548C450.289 147.181 451.654 145.691 452.77 143.951C453.886 142.336 454.879 140.597 455.747 138.733C456.615 136.87 457.359 135.006 457.979 133.142C458.476 131.155 458.972 129.167 459.22 127.179C459.592 125.067 459.716 123.079 459.84 121.091C459.84 119.103 459.84 116.991 459.716 114.879C459.716 110.779 459.592 106.68 459.468 102.58C459.096 94.38 458.724 86.1802 457.855 77.9805C457.731 76.7381 458.724 75.4957 460.088 75.3714C461.453 75.2472 462.693 76.2411 462.817 77.6077V77.9805C461.949 86.1802 461.577 94.38 461.328 102.58C461.08 106.68 460.956 110.779 460.956 114.879C460.832 116.991 460.832 118.979 460.832 121.091C460.708 123.203 460.46 125.191 460.088 127.303C459.84 129.291 459.344 131.279 458.848 133.391C458.228 135.379 457.607 137.242 456.863 139.23C455.375 143.082 453.39 146.809 450.785 150.287C448.305 153.642 445.08 156.624 441.235 158.86C437.514 161.096 433.048 162.339 428.583 162.339C424.118 162.339 419.653 161.096 415.807 158.984C411.962 156.748 408.737 153.766 406.133 150.412C404.892 148.672 403.776 146.933 402.784 145.069C401.667 143.206 400.799 141.218 400.055 139.354C399.311 137.367 398.691 135.379 398.194 133.391C397.698 131.403 397.202 129.291 396.954 127.303C396.582 125.191 396.458 123.203 396.334 121.091C396.21 118.979 396.21 116.991 396.21 114.879C396.086 110.779 396.086 106.68 395.838 102.58C395.59 94.38 395.218 86.1802 394.349 77.9805C394.225 76.7381 395.218 75.4957 396.582 75.3714C397.946 75.2472 399.063 76.2411 399.187 77.6077V77.9805Z" fill="#F3F4F5"/>
<path d="M527.192 140.348C527.068 141.591 526.82 142.833 526.571 143.951C526.199 145.194 525.703 146.312 525.083 147.43C524.463 148.424 523.719 149.542 522.974 150.412C522.23 151.406 521.362 152.275 520.494 153.145C513.3 159.978 502.261 162.711 492.462 159.978C491.221 159.73 489.981 159.357 488.865 158.86C487.624 158.487 486.384 157.99 485.268 157.493C483.035 156.251 480.802 154.884 478.818 153.145C476.957 151.281 475.221 149.169 473.98 146.809C472.74 144.324 471.872 141.591 471.748 138.733C471.624 137.242 472.864 135.876 474.353 135.751C475.841 135.627 477.205 136.87 477.329 138.36V138.733C477.205 140.845 477.453 142.833 478.198 144.821C478.942 146.809 480.182 148.672 481.671 150.287C483.159 151.903 484.896 153.269 486.88 154.387C487.128 154.512 487.376 154.636 487.624 154.884L507.594 122.831C507.098 122.706 506.602 122.458 505.982 122.334L504.369 121.961C503.749 121.837 503.129 121.837 502.633 121.713L500.896 121.34C498.415 120.967 495.935 120.47 493.578 119.725C488.865 118.234 484.151 115.873 480.306 112.519C478.322 110.779 476.709 108.667 475.469 106.431C474.353 104.071 473.608 101.586 473.732 98.9768C473.732 98.3556 473.856 97.7344 473.856 97.1132C473.98 96.492 473.98 95.8708 474.104 95.2496C474.353 94.0073 474.601 92.8891 475.097 91.6467C476.089 89.4104 477.453 87.2984 479.066 85.559C479.81 84.5651 480.678 83.6954 481.671 82.95C482.539 82.0803 483.531 81.3349 484.523 80.7137C486.632 79.3471 488.741 78.1047 491.097 77.235C495.811 75.4957 501.02 75.123 505.982 75.9926C510.943 76.7381 515.656 79.0986 519.253 82.5773C520.122 83.447 520.99 84.1924 521.858 85.1863C522.602 86.1802 523.222 87.1741 523.719 88.4165C524.339 89.5347 524.587 90.7771 524.711 92.0194C524.835 93.2618 524.587 94.5042 524.339 95.6224C523.719 98.1071 522.478 100.219 521.238 102.207C519.874 104.319 518.385 106.058 517.145 108.046C517.145 108.046 517.145 108.17 517.021 108.17C517.021 108.295 517.021 108.295 516.897 108.295L510.199 119.103C512.183 119.849 514.044 120.843 515.78 121.961C518.013 123.328 519.998 124.943 521.734 126.806C523.347 128.67 524.835 130.782 525.827 133.018C526.82 135.379 527.316 137.864 527.192 140.348ZM510.075 118.979L516.897 108.046C518.137 106.058 519.625 104.071 520.866 102.083C522.106 99.9707 523.222 97.8587 523.719 95.4981C524.339 93.2618 524.091 90.7771 523.098 88.665C522.602 87.6711 521.858 86.6772 521.114 85.8075L520.494 85.0621L519.874 84.4409C519.501 84.0682 519.005 83.6954 518.509 83.3227C516.649 81.9561 514.416 81.0864 512.307 80.341C510.075 79.7198 507.718 79.2229 505.485 78.9744C500.896 78.2289 496.183 78.2289 491.593 79.0986C489.361 79.5956 487.128 80.341 485.02 81.4591L483.407 82.3288C482.911 82.7015 482.539 83.0743 482.043 83.3227C481.05 84.0682 480.182 84.9378 479.438 85.8075C477.826 87.5468 476.585 89.6589 475.841 92.0194C475.593 93.1376 475.345 94.2557 475.221 95.3739C475.221 96.6163 475.097 97.8587 475.221 98.9768C475.345 101.213 476.213 103.449 477.453 105.313C478.694 107.177 480.43 108.667 482.291 109.91C486.012 112.519 490.477 114.01 494.818 115.252L501.64 116.743C502.261 116.867 502.881 116.991 503.501 117.116L505.361 117.488C506.602 117.861 507.718 118.234 508.958 118.607L510.075 118.979ZM526.447 140.348C526.447 137.988 525.827 135.627 524.711 133.639C524.091 132.646 523.347 131.652 522.602 130.782C521.858 129.912 520.99 129.167 520.122 128.421C516.525 125.564 512.183 123.949 507.842 122.831L487.872 155.008C488.493 155.381 489.237 155.63 489.981 155.878C490.973 156.375 492.09 156.624 493.206 156.996C495.439 157.493 497.671 157.742 500.028 157.866C502.261 157.99 504.617 157.866 506.974 157.493C511.439 156.872 516.028 155.257 519.75 152.275C520.618 151.53 521.486 150.784 522.354 149.915C523.098 149.045 523.843 148.051 524.463 147.057C525.579 144.945 526.323 142.709 526.447 140.348Z" fill="#F3F4F5"/>
<path d="M617.365 78.229C616.745 87.5469 616.249 96.989 616.001 106.431C615.629 115.749 615.381 125.191 615.257 134.633C615.133 136.994 615.133 139.354 615.133 141.591V145.194C615.133 146.312 615.133 147.554 615.257 148.672C615.381 149.79 615.629 150.909 616.001 151.903C616.497 153.021 616.993 154.015 617.737 154.884C618.482 155.754 619.226 156.499 620.218 157.121C621.086 157.742 622.079 158.114 623.195 158.363L623.939 158.611L624.683 158.736C624.932 158.736 625.304 158.736 625.552 158.736H626.296L629.893 158.611C632.25 158.487 634.606 158.363 636.963 158.114C641.552 157.866 654.576 157.493 659.289 157.121C660.778 156.996 662.018 157.99 662.142 159.481C662.266 160.848 661.274 162.214 659.785 162.339H659.289C654.576 161.842 641.552 161.469 636.963 161.22L629.893 160.848L626.296 160.723C625.18 160.599 623.815 160.475 622.575 160.102C621.459 159.605 620.342 158.984 619.35 158.239C618.358 157.493 617.489 156.624 616.745 155.63C615.381 153.518 614.513 151.157 614.389 148.797C614.265 147.554 614.389 146.312 614.389 145.194V141.591C614.389 139.354 614.264 136.994 614.264 134.633C614.14 125.191 613.892 115.749 613.52 106.431C613.148 96.989 612.776 87.5469 612.156 78.229C612.032 76.7381 613.148 75.4957 614.637 75.4957C616.001 75.3715 617.241 76.4896 617.365 77.8562V78.229Z" fill="#F3F4F5"/>
<path d="M243.729 259.659C244.35 252.826 244.722 246.241 245.094 239.408L245.838 219.281C245.838 215.803 245.962 212.448 245.838 209.094C245.838 207.479 245.714 205.615 245.59 204C245.59 202.261 245.466 200.646 245.466 198.906C245.094 192.197 244.598 185.488 243.729 178.655C243.481 177.289 244.474 175.922 245.962 175.798C247.326 175.549 248.567 176.543 248.815 178.034V178.655C247.947 185.488 247.45 192.197 247.078 198.906C246.954 200.646 246.954 202.261 246.83 204C246.706 205.615 246.706 207.479 246.706 209.094C246.582 212.448 246.582 215.803 246.706 219.281C246.83 225.866 247.078 232.699 247.45 239.408C247.823 246.241 248.195 252.826 248.691 259.659C248.815 261.026 247.823 262.268 246.458 262.392C245.094 262.516 243.853 261.523 243.729 260.156V259.659Z" fill="#F3F4F5"/>
<path d="M315.67 240.526C315.546 241.769 315.298 243.011 315.05 244.129C314.678 245.371 314.182 246.49 313.562 247.608C312.941 248.602 312.197 249.72 311.453 250.59C310.709 251.583 309.84 252.453 308.972 253.323C301.778 260.156 290.739 262.889 280.94 260.156C279.7 259.907 278.46 259.535 277.343 259.038C276.103 258.665 274.862 258.168 273.746 257.671C271.514 256.429 269.281 255.062 267.296 253.323C265.436 251.459 263.699 249.347 262.459 246.987C261.219 244.502 260.35 241.769 260.226 238.911C260.102 237.42 261.343 236.054 262.831 235.929C264.32 235.805 265.684 237.047 265.808 238.538V238.911C265.684 241.023 265.932 243.011 266.676 244.999C267.42 246.987 268.661 248.85 270.149 250.465C271.638 252.08 273.374 253.447 275.359 254.565C275.607 254.689 275.855 254.814 276.103 255.062L296.073 223.009C295.576 222.884 295.08 222.636 294.46 222.512L292.848 222.139C292.227 222.015 291.607 222.015 291.111 221.89L289.375 221.518C286.894 221.145 284.413 220.648 282.057 219.903C277.343 218.412 272.63 216.051 268.785 212.697C266.8 210.957 265.188 208.845 263.947 206.609C262.831 204.248 262.087 201.764 262.211 199.155C262.211 198.533 262.335 197.912 262.335 197.291C262.459 196.67 262.459 196.049 262.583 195.428C262.831 194.185 263.079 193.067 263.575 191.825C264.568 189.588 265.932 187.476 267.544 185.737C268.289 184.743 269.157 183.873 270.149 183.128C271.017 182.258 272.01 181.513 273.002 180.892C275.111 179.525 277.219 178.283 279.576 177.413C284.289 175.674 289.499 175.301 294.46 176.171C299.422 176.916 304.135 179.276 307.732 182.755C308.6 183.625 309.468 184.37 310.337 185.364C311.081 186.358 311.701 187.352 312.197 188.594C312.817 189.713 313.065 190.955 313.189 192.197C313.313 193.44 313.065 194.682 312.817 195.8C312.197 198.285 310.957 200.397 309.716 202.385C308.352 204.497 306.864 206.236 305.623 208.224C305.623 208.224 305.623 208.348 305.499 208.348C305.499 208.473 305.499 208.473 305.375 208.473L298.677 219.281C300.662 220.027 302.522 221.021 304.259 222.139C306.492 223.505 308.476 225.121 310.213 226.984C311.825 228.848 313.313 230.96 314.306 233.196C315.298 235.557 315.794 238.041 315.67 240.526ZM298.553 219.157L305.375 208.224C306.616 206.236 308.104 204.248 309.344 202.261C310.585 200.149 311.701 198.037 312.197 195.676C312.817 193.44 312.569 190.955 311.577 188.843C311.081 187.849 310.337 186.855 309.592 185.985L308.972 185.24L308.352 184.619C307.98 184.246 307.484 183.873 306.988 183.501C305.127 182.134 302.894 181.264 300.786 180.519C298.553 179.898 296.197 179.401 293.964 179.152C289.375 178.407 284.661 178.407 280.072 179.276C277.839 179.773 275.607 180.519 273.498 181.637L271.886 182.507C271.39 182.879 271.017 183.252 270.521 183.501C269.529 184.246 268.661 185.116 267.917 185.985C266.304 187.725 265.064 189.837 264.319 192.197C264.071 193.315 263.823 194.434 263.699 195.552C263.699 196.794 263.575 198.037 263.699 199.155C263.823 201.391 264.692 203.627 265.932 205.491C267.172 207.354 268.909 208.845 270.769 210.088C274.49 212.697 278.956 214.188 283.297 215.43L290.119 216.921C290.739 217.045 291.359 217.169 291.979 217.294L293.84 217.666C295.08 218.039 296.197 218.412 297.437 218.784L298.553 219.157ZM314.926 240.526C314.926 238.166 314.306 235.805 313.189 233.817C312.569 232.823 311.825 231.829 311.081 230.96C310.337 230.09 309.468 229.345 308.6 228.599C305.003 225.742 300.662 224.127 296.321 223.009L276.351 255.186C276.971 255.559 277.715 255.808 278.46 256.056C279.452 256.553 280.568 256.801 281.684 257.174C283.917 257.671 286.15 257.92 288.506 258.044C290.739 258.168 293.096 258.044 295.452 257.671C299.918 257.05 304.507 255.435 308.228 252.453C309.096 251.708 309.965 250.962 310.833 250.093C311.577 249.223 312.321 248.229 312.941 247.235C314.058 245.123 314.802 242.887 314.926 240.526Z" fill="#F3F4F5"/>
<path d="M331.464 178.407C330.844 187.725 330.348 197.167 330.1 206.609C329.728 215.927 329.479 225.369 329.355 234.811C329.231 237.172 329.231 239.532 329.231 241.769V245.371C329.231 246.49 329.231 247.732 329.355 248.85C329.479 249.968 329.728 251.086 330.1 252.08C330.596 253.198 331.092 254.192 331.836 255.062C332.58 255.932 333.325 256.677 334.317 257.298C335.185 257.92 336.177 258.292 337.294 258.541L338.038 258.789L338.782 258.913C339.03 258.913 339.402 258.913 339.65 258.913H340.395L343.992 258.789C346.348 258.665 348.705 258.541 351.062 258.292C355.651 258.044 368.675 257.671 373.388 257.298C374.876 257.174 376.117 258.168 376.241 259.659C376.365 261.026 375.373 262.392 373.884 262.516H373.388C368.675 262.019 355.651 261.647 351.062 261.398L343.992 261.026L340.395 260.901C339.278 260.777 337.914 260.653 336.674 260.28C335.557 259.783 334.441 259.162 333.449 258.417C332.456 257.671 331.588 256.801 330.844 255.808C329.479 253.695 328.611 251.335 328.487 248.974C328.363 247.732 328.487 246.49 328.487 245.371V241.769C328.487 239.532 328.363 237.172 328.363 234.811C328.239 225.369 327.991 215.927 327.619 206.609C327.247 197.167 326.875 187.725 326.255 178.407C326.13 176.916 327.247 175.674 328.735 175.674C330.1 175.549 331.34 176.667 331.464 178.034V178.407V178.407Z" fill="#F3F4F5"/>
<path d="M552.908 175.052C558.366 175.052 563.699 176.046 568.536 178.034C571.017 178.904 573.498 180.146 575.73 181.513C577.963 182.879 580.072 184.37 581.932 186.11C583.793 187.725 585.653 189.588 587.266 191.576C588.878 193.564 590.119 195.676 591.483 197.788C593.84 202.136 595.576 206.733 596.444 211.454C597.313 216.3 597.437 221.145 596.692 225.99C596.196 230.836 594.584 235.557 592.227 240.029C591.111 242.266 589.746 244.378 588.134 246.365C586.398 248.477 584.785 250.341 582.8 251.956C578.831 255.435 574.242 258.168 569.157 259.907C564.071 261.647 558.738 262.516 553.28 262.392C552.784 262.392 552.04 262.392 551.171 262.268C550.551 262.268 549.931 262.019 549.063 261.895C547.823 261.523 546.334 261.15 545.218 260.529C544.722 260.404 544.474 260.28 544.226 260.032L543.357 259.535L542.861 259.286L542.365 258.914L541.621 258.292C540.628 257.423 539.636 256.346 538.768 255.311C537.031 253.199 535.956 250.134 535.832 248.063C535.667 245.579 536.163 241.893 536.163 240.65C536.287 235.929 536.411 231.084 536.411 226.363C536.411 221.518 536.287 216.797 536.163 211.951C535.791 207.23 535.543 202.385 535.171 197.664L535.047 194.061L534.923 192.197V191.203V190.209C535.171 187.476 536.163 184.743 537.776 182.382C539.388 180.146 541.745 178.283 544.35 177.04C547.078 175.674 550.055 175.052 552.908 175.052ZM552.908 180.27C550.675 180.27 548.691 180.767 546.706 181.513C544.722 182.382 543.109 183.625 541.745 185.24C540.504 186.731 539.512 188.594 539.14 190.582L539.016 191.452V192.197L538.892 194.061L538.644 197.664C538.396 202.385 538.024 207.23 537.776 211.951C537.528 216.797 537.528 221.518 537.528 226.363C537.528 231.084 537.569 235.929 537.776 240.65C537.9 243.674 537.858 246.365 538.148 247.732C538.561 249.678 539.76 251.832 541.373 253.447C541.993 254.317 542.985 254.938 543.853 255.559C544.722 256.18 545.714 256.677 546.706 257.05C547.823 257.423 548.815 257.671 550.055 257.92C550.551 257.92 551.047 258.044 551.668 258.044C552.164 257.92 552.66 258.044 553.28 257.92C558.241 257.795 562.831 256.801 567.296 255.311C571.761 253.695 575.979 251.459 579.7 248.726C583.545 245.868 586.894 242.514 589.622 238.663C592.227 234.687 594.212 230.339 595.204 225.742C596.32 221.145 596.32 216.3 595.576 211.703C594.584 206.982 592.723 202.509 589.995 198.533C587.266 194.558 583.793 191.203 579.824 188.47C575.979 185.737 571.637 183.625 567.048 182.382C562.459 181.016 557.621 180.27 552.908 180.27Z" fill="#F3F4F5"/>
<path d="M662.803 240.526C662.679 241.769 662.431 243.011 662.183 244.129C661.811 245.371 661.315 246.49 660.694 247.608C660.074 248.602 659.33 249.72 658.586 250.59C657.842 251.583 656.973 252.453 656.105 253.323C648.911 260.156 637.872 262.889 628.073 260.156C626.833 259.907 625.592 259.535 624.476 259.038C623.236 258.665 621.995 258.168 620.879 257.671C618.646 256.429 616.414 255.062 614.429 253.323C612.569 251.459 610.832 249.347 609.592 246.987C608.351 244.502 607.483 241.769 607.359 238.911C607.235 237.42 608.475 236.054 609.964 235.929C611.452 235.805 612.817 237.047 612.941 238.538V238.911C612.817 241.023 613.065 243.011 613.809 244.999C614.553 246.987 615.794 248.85 617.282 250.465C618.77 252.08 620.507 253.447 622.491 254.565C622.74 254.689 622.988 254.814 623.236 255.062L643.205 223.009C642.709 222.884 642.213 222.636 641.593 222.512L639.98 222.139C639.36 222.015 638.74 222.015 638.244 221.89L636.507 221.518C634.027 221.145 631.546 220.648 629.189 219.903C624.476 218.412 619.763 216.051 615.918 212.697C613.933 210.957 612.321 208.845 611.08 206.609C609.964 204.248 609.22 201.764 609.344 199.155C609.344 198.533 609.468 197.912 609.468 197.291C609.592 196.67 609.592 196.049 609.716 195.428C609.964 194.185 610.212 193.067 610.708 191.825C611.7 189.588 613.065 187.476 614.677 185.737C615.421 184.743 616.29 183.873 617.282 183.128C618.15 182.258 619.143 181.513 620.135 180.892C622.243 179.525 624.352 178.283 626.709 177.413C631.422 175.674 636.632 175.301 641.593 176.171C646.554 176.916 651.268 179.276 654.865 182.755C655.733 183.625 656.601 184.37 657.469 185.364C658.214 186.358 658.834 187.352 659.33 188.594C659.95 189.713 660.198 190.955 660.322 192.197C660.446 193.44 660.198 194.682 659.95 195.8C659.33 198.285 658.09 200.397 656.849 202.385C655.485 204.497 653.996 206.236 652.756 208.224C652.756 208.224 652.756 208.348 652.632 208.348C652.632 208.473 652.632 208.473 652.508 208.473L645.81 219.281C647.795 220.027 649.655 221.021 651.392 222.139C653.624 223.505 655.609 225.121 657.345 226.984C658.958 228.848 660.446 230.96 661.439 233.196C662.431 235.557 662.927 238.041 662.803 240.526ZM645.686 219.157L652.508 208.224C653.748 206.236 655.237 204.248 656.477 202.261C657.718 200.149 658.834 198.037 659.33 195.676C659.95 193.44 659.702 190.955 658.71 188.843C658.214 187.849 657.469 186.855 656.725 185.985L656.105 185.24L655.485 184.619C655.113 184.246 654.617 183.873 654.121 183.501C652.26 182.134 650.027 181.264 647.919 180.519C645.686 179.898 643.329 179.401 641.097 179.152C636.507 178.407 631.794 178.407 627.205 179.276C624.972 179.773 622.74 180.519 620.631 181.637L619.018 182.507C618.522 182.879 618.15 183.252 617.654 183.501C616.662 184.246 615.794 185.116 615.049 185.985C613.437 187.725 612.197 189.837 611.452 192.197C611.204 193.315 610.956 194.434 610.832 195.552C610.832 196.794 610.708 198.037 610.832 199.155C610.956 201.391 611.824 203.627 613.065 205.491C614.305 207.354 616.042 208.845 617.902 210.088C621.623 212.697 626.089 214.188 630.43 215.43L637.252 216.921C637.872 217.045 638.492 217.169 639.112 217.294L640.973 217.666C642.213 218.039 643.329 218.412 644.57 218.784L645.686 219.157ZM662.059 240.526C662.059 238.166 661.439 235.805 660.322 233.817C659.702 232.823 658.958 231.829 658.214 230.96C657.469 230.09 656.601 229.345 655.733 228.599C652.136 225.742 647.795 224.127 643.453 223.009L623.484 255.186C624.104 255.559 624.848 255.808 625.592 256.056C626.585 256.553 627.701 256.801 628.817 257.174C631.05 257.671 633.283 257.92 635.639 258.044C637.872 258.168 640.229 258.044 642.585 257.671C647.05 257.05 651.64 255.435 655.361 252.453C656.229 251.708 657.097 250.962 657.966 250.093C658.71 249.223 659.454 248.229 660.074 247.235C661.191 245.123 661.935 242.887 662.059 240.526Z" fill="#F3F4F5"/>
<path d="M602.936 157.41C602.894 157.286 602.894 157.245 602.853 157.162C601.695 154.47 600.579 151.695 599.545 148.921C596.32 140.307 592.062 125.44 589.085 112.85C587.597 106.597 586.315 99.7223 585.447 95.6638C583.462 86.6358 581.23 82.0389 580.237 80.1754C579.286 78.3946 576.847 75.2886 573.333 75.2886C570.976 75.2886 569.363 76.2825 568.454 77.028C567.503 77.7734 566.717 78.6431 566.056 79.5542C565.394 80.4653 564.815 81.4177 564.319 82.3702C563.286 84.2752 562.459 86.2631 561.715 88.2509C560.97 90.2387 560.309 92.2265 559.689 94.2558C558.448 98.3142 558.035 98.2728 551.998 118.027C547.947 128.918 547.533 129.912 543.812 138.029C537.693 151.406 535.998 153.849 534.385 156.789C534.096 157.203 533.931 157.7 533.931 158.239C533.931 159.688 535.088 160.848 536.535 160.848C537.61 160.848 538.52 160.185 538.933 159.274C538.933 159.274 538.933 159.274 538.933 159.233C540.298 155.795 543.853 145.566 546.376 138.485C546.706 137.574 547.037 136.58 547.409 135.586C550.882 135.213 554.686 134.882 558.076 134.592C562.087 134.302 567.172 134.095 571.224 133.971C573.209 133.888 575.276 133.888 577.302 133.846H579.576C583.917 134.012 588.506 134.219 593.054 134.675C594.625 141.798 595.948 148.051 596.196 149.211C597.189 154.304 598.14 159.067 598.14 159.067C598.512 160.061 599.463 160.806 600.579 160.806C602.026 160.806 603.184 159.647 603.184 158.197C603.101 157.949 603.06 157.659 602.936 157.41ZM579.121 133.101L577.26 133.018C575.193 132.935 573.209 132.853 571.141 132.811C567.089 132.728 562.955 132.728 558.862 132.811C555.306 132.894 551.792 133.06 548.153 133.267C549.394 129.54 550.675 125.688 551.626 122.665L552.288 120.346C552.288 120.346 552.288 120.346 552.288 120.304C552.495 119.725 552.701 119.145 552.908 118.565C553.032 118.151 553.198 117.737 553.322 117.364C553.322 117.323 553.363 117.281 553.363 117.24L553.694 116.287C554.19 114.879 554.603 113.596 555.017 112.312C557.167 106.183 563.989 89.7832 565.973 86.2216C569.322 80.1339 574.697 78.5603 578.17 83.8611C579.204 85.4762 580.03 87.3398 580.733 89.2034C582.925 94.5456 587.018 109.537 587.969 113.181C588.341 114.589 588.837 116.619 589.374 119.062L590.16 121.92C591.028 125.647 591.979 129.912 592.847 133.971C588.258 133.474 583.586 133.225 579.121 133.101Z" fill="#F3F4F5"/>
<path d="M451.902 259.411C451.86 259.286 451.86 259.245 451.819 259.162C450.661 256.47 449.545 253.696 448.511 250.921C445.286 242.307 441.028 227.44 438.051 214.85C436.562 208.597 435.281 201.722 434.412 197.664C432.428 188.636 430.195 184.039 429.203 182.175C428.252 180.395 425.813 177.289 422.298 177.289C419.942 177.289 418.329 178.283 417.42 179.028C416.469 179.773 415.683 180.643 415.022 181.554C414.36 182.465 413.781 183.418 413.285 184.37C412.252 186.275 411.425 188.263 410.68 190.251C409.936 192.239 409.275 194.227 408.655 196.256C407.414 200.314 407.001 200.273 400.964 220.027C396.912 230.918 396.499 231.912 392.778 240.029C386.659 253.406 384.964 255.849 383.351 258.789C383.062 259.203 382.896 259.7 382.896 260.239C382.896 261.688 384.054 262.848 385.501 262.848C386.576 262.848 387.486 262.185 387.899 261.274C387.899 261.274 387.899 261.274 387.899 261.233C389.264 257.795 392.819 247.566 395.341 240.485C395.672 239.574 396.003 238.58 396.375 237.586C399.848 237.213 403.652 236.882 407.042 236.592C411.053 236.302 416.138 236.095 420.19 235.971C422.174 235.888 424.242 235.888 426.268 235.847H428.542C432.883 236.012 437.472 236.219 442.02 236.675C443.591 243.798 444.914 250.051 445.162 251.211C446.155 256.305 447.105 261.067 447.105 261.067C447.478 262.061 448.429 262.806 449.545 262.806C450.992 262.806 452.15 261.647 452.15 260.197C452.067 259.949 452.026 259.659 451.902 259.411ZM428.087 235.101L426.226 235.018C424.159 234.935 422.174 234.853 420.107 234.811C416.055 234.728 411.921 234.728 407.828 234.811C404.272 234.894 400.758 235.06 397.119 235.267C398.36 231.54 399.641 227.688 400.592 224.665L401.254 222.346C401.254 222.346 401.254 222.346 401.254 222.305C401.46 221.725 401.667 221.145 401.874 220.565C401.998 220.151 402.163 219.737 402.287 219.364C402.287 219.323 402.329 219.281 402.329 219.24L402.659 218.287C403.156 216.879 403.569 215.596 403.982 214.312C406.132 208.183 412.954 191.783 414.939 188.222C418.288 182.134 423.663 180.56 427.136 185.861C428.169 187.476 428.996 189.34 429.699 191.203C431.89 196.546 435.984 211.537 436.935 215.181C437.307 216.59 437.803 218.619 438.34 221.062L439.126 223.92C439.994 227.647 440.945 231.912 441.813 235.971C437.224 235.474 432.552 235.225 428.087 235.101Z" fill="#F3F4F5"/>
</svg>
