<?xml version="1.0" encoding="utf-8"?>
<!-- Generator: Adobe Illustrator 27.0.1, SVG Export Plug-In . SVG Version: 6.00 Build 0)  -->
<svg version="1.1" id="Logo" xmlns="http://www.w3.org/2000/svg" xmlns:xlink="http://www.w3.org/1999/xlink" x="0px" y="0px"
	 viewBox="0 0 442.2 208" style="enable-background:new 0 0 442.2 208;" xml:space="preserve">
<style type="text/css">
	.st0{fill:#F3F4F5;}
</style>
<g id="Wordmark">
	<path class="st0" d="M229.6,99.9c1.2,0,2.2-1,2.2-2.2c0-0.1,0-0.4-0.1-0.7v-0.1c0-0.1-0.1-0.1-0.1-0.2c-0.8-1.9-1.4-3.5-1.9-4.8
		c-1.8-4.9-4.3-13.5-6.2-21.2c-0.5-2.1-1-4.4-1.4-6.4l-0.1-0.7c-0.1-0.7-0.3-1.4-0.4-1.9c-0.1-0.4-0.2-0.8-0.2-1.1
		c-1.1-5-2.3-7.8-3.2-9.3c-0.8-1.5-2.5-3.2-4.7-3.2c-1.6,0-2.7,0.7-3.3,1.2s-1.1,1-1.5,1.6c-0.4,0.5-0.7,1.1-1,1.5l-0.1,0.2
		c-0.6,1-1.1,2.2-1.6,3.5c-0.4,1.1-0.8,2.2-1.1,3.3l-0.1,0.3c-0.2,0.6-0.3,1-0.5,1.5l-0.2,0.5c-0.5,1.3-1.3,3.7-3.9,12
		c-2.4,6.4-2.6,7-4.8,11.7c-2.9,6.3-4.1,8.4-5,10l-0.1,0.1l-0.1,0.1c-0.2,0.3-0.3,0.6-0.5,0.8c-0.2,0.4-0.4,0.8-0.4,1.2
		c0,1.2,1,2.2,2.2,2.2c0.8,0,1.7-0.5,2-1.3l0,0v-0.1c0.6-1.5,1.9-5.1,3.2-8.8c0.4-1.2,0.8-2.3,1.2-3.4c0.1-0.3,0.2-0.5,0.3-0.8
		l0.1-0.4l0,0c1.9-0.2,3.9-0.4,5.8-0.5c2.5-0.2,5.6-0.3,7.7-0.4c0.8,0,1.6,0,2.4,0c0.4,0,0.8,0,1.2,0h1.3c2.4,0.1,4.9,0.2,7.4,0.4
		c0.5,2.1,0.9,4.3,1.4,6.6c0.1,0.3,0.1,0.5,0.2,0.7c0.1,0.3,0.1,0.6,0.1,0.7c0.4,2.1,0.8,4,1,5.1c0.1,0.4,0.1,0.6,0.1,0.7
		s0,0.1,0,0.2C227.9,99.3,228.7,99.9,229.6,99.9z M199.9,81.6l1.5-4.7l0.4-1.4v-0.1c0-0.1,0-0.1,0.1-0.2c0-0.1,0.1-0.1,0.1-0.2
		s0.1-0.2,0.1-0.3c0-0.1,0.1-0.2,0.1-0.2v-0.1c0-0.1,0.1-0.2,0.1-0.3c0.1-0.1,0.1-0.3,0.1-0.4l0,0v-0.1l0.2-0.5
		c0.2-0.6,0.4-1.2,0.6-1.8c0-0.1,0.1-0.2,0.1-0.3c0-0.1,0.1-0.2,0.1-0.3c1.2-3.3,5.3-13.2,6.4-15.2c1-1.8,2.3-2.9,3.6-2.9h0.1
		c0.9,0,1.7,0.5,2.4,1.6c0.5,0.8,1,1.8,1.4,3c1.1,2.8,3.3,10.4,4.3,14c0.2,0.7,0.4,1.6,0.7,2.8l0.1,0.6l0.5,1.7l0.2,0.7l0.3,1.5
		c0.3,1.3,0.6,2.6,0.9,3.9c-2.3-0.2-4.8-0.3-7.3-0.4h-1.4h-0.4c-1,0-2-0.1-3-0.1c-1.2,0-2.4,0-3.6,0c-1.2,0-2.4,0-3.7,0
		c-1.8,0-3.5,0.1-5.3,0.2L199.9,81.6z M213.7,52.2c0.1,0,0.1,0,0.2,0C213.8,52.2,213.7,52.2,213.7,52.2z M214.1,52.2
		c0.1,0,0.1,0,0.2,0C214.2,52.3,214.1,52.2,214.1,52.2z M214.5,52.4c0.1,0,0.1,0,0.2,0.1C214.6,52.4,214.5,52.4,214.5,52.4z
		 M214.8,52.5c0.1,0,0.1,0.1,0.2,0.1C214.9,52.6,214.9,52.6,214.8,52.5z M215.2,52.8c0.1,0,0.1,0.1,0.2,0.1
		C215.3,52.8,215.3,52.8,215.2,52.8z M215.6,53.1l0.1,0.1C215.7,53.1,215.6,53.1,215.6,53.1z M215.9,53.4l0.1,0.1
		C216,53.5,216,53.5,215.9,53.4z M224.9,83.2L224.9,83.2c-2.5-0.2-5.2-0.4-7.9-0.4C219.7,82.8,222.4,82.9,224.9,83.2z M231.1,97
		C231.1,97,231.2,97,231.1,97C231.2,97,231.1,97,231.1,97c-0.6-1.3-1.1-2.6-1.5-3.7C230,94.4,230.5,95.6,231.1,97z M221.5,63.8
		c-0.2-1.2-0.4-2.2-0.6-3.1C221,61.6,221.2,62.6,221.5,63.8z M198.5,79.8c0.2-0.6,0.5-1.3,0.8-2c0.3-0.8,0.6-1.7,1-2.7
		c-0.4,1.1-0.7,1.9-1,2.7C199,78.5,198.8,79.2,198.5,79.8c-0.2,0.4-0.3,0.8-0.5,1.2C198.2,80.6,198.4,80.2,198.5,79.8z M197.8,81.5
		c-0.2,0.4-0.3,0.8-0.5,1.2C197.5,82.3,197.6,81.9,197.8,81.5z M192.1,93.6c-0.2,0.5-0.5,0.9-0.7,1.2
		C191.6,94.5,191.9,94.1,192.1,93.6z M190.9,95.8c0.1-0.2,0.2-0.4,0.3-0.6C191.1,95.4,191,95.6,190.9,95.8c-0.1,0.2-0.2,0.3-0.3,0.5
		C190.7,96.1,190.8,96,190.9,95.8z"/>
	<path class="st0" d="M313.2,109.6c-0.4-0.2-0.8-0.4-1.2-0.4c-0.1,0-0.2,0-0.3,0c-0.6,0.1-1.2,0.4-1.5,0.8s-0.5,1-0.4,1.6
		c0.5,4.1,0.8,8.2,1,11.7c0,0.5,0,1,0,1.5c0,0.2,0,0.5,0,0.7s0,0.5,0,0.7c0.1,0.9,0.1,5.2,0.1,7.1c0.1,0.8,0,6.8-0.2,12.1
		c-0.1,4.3-1,7.2-2.6,8.7c-0.9,0.9-2.1,1.3-3.6,1.3c-0.1,0-0.2,0-0.3,0c-4.2-0.2-6.4-8.3-8.8-16.9v-0.1c-0.3-1.2-0.7-2.4-1-3.7
		c-2.3-8-4.8-16.2-5.7-18.5c-1.4-3.9-3.4-6.3-5.9-7.3c-0.7-0.3-1.4-0.4-2.2-0.4c-1,0-1.9,0.2-2.6,0.6c-3.1,1.8-4.6,4.9-4.5,9.4
		c0,0.3,0.1,1.5,0.1,2.9v0.8c0.1,1.8,0.2,3.9,0.2,4.4c0,1,0,2.4,0,3.8v1.4c0,0.4,0,0.8,0,1.2s0,0.7,0,1l-0.4,11.7v1
		c-0.2,3.7-0.4,7.1-0.7,10.7v0.4c0.1,1.1,1,2,2.1,2h0.1c0,0,0,0,0.1,0c0.6-0.1,1.1-0.3,1.5-0.7s0.5-1,0.5-1.6
		c-0.3-4.3-0.5-8.3-0.7-11.8c-0.2-3.8-0.4-7.7-0.4-11.7c-0.1-1.7-0.2-12.7,0.1-15.6c0.5-3.9,1.9-5.7,4.6-5.7c0.1,0,0.3,0,0.4,0
		c5.1,0.3,8.7,11.6,11.5,22.6c0.6,2.2,1.1,4.4,1.6,6.8c2,8.8,3.7,16.4,10,17.2c0.3,0,0.7,0.1,1,0.1c1.7,0,3.2-0.5,4.5-1.6
		c2.2-1.9,3.4-5.4,3.5-9.5c0-2.1,0-7.3,0-14.6v-0.4c-0.1-2.1,0-6.3,0.1-7.1c0-0.3,0-0.7,0.1-1c0-0.2,0-0.3,0-0.5s0-0.3,0-0.5
		c0-0.3,0-0.6,0.1-0.9c0.3-4.6,0.6-8.3,1-11.7c0,0,0,0,0-0.1v-0.4V111C314.1,110.5,313.8,109.9,313.2,109.6z M313.2,110.2
		c-0.1-0.1-0.2-0.2-0.3-0.2l0,0l0,0C313.1,110,313.1,110.1,313.2,110.2z M312.4,131c0,0.2,0,0.4,0,0.5
		C312.4,131.4,312.4,131.2,312.4,131z M312.5,109.8L312.5,109.8L312.5,109.8z M311.8,109.7c0.1,0,0.2,0,0.3,0l0,0
		C312,109.7,311.9,109.7,311.8,109.7c-0.2,0-0.5,0.1-0.7,0.2C311.4,109.8,311.6,109.7,311.8,109.7z M311.6,136.9c0,0.5,0,1.1,0,1.7
		C311.6,138,311.6,137.4,311.6,136.9z M311.4,145.5c0-0.3,0-0.7,0-1c0.1-1.7,0.1-3.4,0.1-5c0,1.6-0.1,3.3-0.1,5
		C311.5,144.8,311.4,145.2,311.4,145.5c0,1.1-0.1,2.2-0.3,3.1C311.3,147.7,311.4,146.6,311.4,145.5z M307.8,155.2
		c-0.1,0.1-0.2,0.1-0.3,0.2C307.6,155.3,307.7,155.2,307.8,155.2z M306.8,155.6c-0.1,0-0.3,0.1-0.4,0.1
		C306.6,155.7,306.7,155.6,306.8,155.6z M305.8,155.9c-0.2,0-0.3,0-0.5,0C305.4,155.9,305.6,155.9,305.8,155.9z M300.7,153.6
		c1.1,1.4,2.3,2.3,3.7,2.3l0,0l0,0C303,155.9,301.7,155,300.7,153.6c-0.4-0.6-0.8-1.2-1.2-2C299.9,152.4,300.3,153,300.7,153.6z
		 M297.4,146.5c0.3,1,0.7,1.9,1,2.8C298,148.4,297.7,147.4,297.4,146.5c-0.5-1.5-1-3-1.4-4.6C296.4,143.4,296.9,145,297.4,146.5z
		 M282.7,109.5c-0.2-0.1-0.4-0.1-0.6-0.2C282.3,109.3,282.5,109.4,282.7,109.5z M282,109.3c-0.1,0-0.3-0.1-0.4-0.1
		C281.7,109.2,281.8,109.2,282,109.3z M281.4,109.2c-0.1,0-0.3,0-0.4,0C281.1,109.1,281.2,109.1,281.4,109.2z M280.8,109.1
		c-0.1,0-0.1,0-0.2,0C280.7,109.1,280.7,109.1,280.8,109.1L280.8,109.1z M278.3,109.7L278.3,109.7L278.3,109.7
		c-0.4,0.2-0.7,0.4-1,0.7C277.6,110.1,278,109.9,278.3,109.7z M280.1,109.2c-0.1,0-0.1,0-0.2,0C280,109.2,280,109.2,280.1,109.2z
		 M279.5,109.3c-0.1,0-0.1,0-0.2,0C279.4,109.3,279.4,109.3,279.5,109.3z M278.9,109.4c-0.1,0-0.1,0-0.2,0.1
		C278.8,109.5,278.9,109.4,278.9,109.4z M280.2,112.4c-0.2,0-0.3,0-0.5,0C279.8,112.4,280,112.4,280.2,112.4z M279.2,112.6
		c-0.1,0-0.3,0.1-0.4,0.1C278.9,112.6,279,112.6,279.2,112.6z M276.8,114.3c-0.1,0.1-0.2,0.2-0.3,0.4
		C276.6,114.5,276.7,114.4,276.8,114.3z M275.3,132.3c0-0.9,0-2,0-3.1C275.2,130.3,275.3,131.4,275.3,132.3z M274.5,129.2
		c0,0.2,0,0.5,0,0.7C274.5,129.6,274.5,129.4,274.5,129.2z M274.3,115.6c-0.2,0.9-0.2,1.9-0.2,3l0,0
		C274.1,117.6,274.1,116.5,274.3,115.6z M274,145.8l0.4-11.7c0-0.6,0-1.4,0-2.2c0,0.8,0,1.6,0,2.2L274,145.8v1V145.8z M273.8,149.5
		c-0.2,2.7-0.3,5.3-0.6,8.1C273.5,154.8,273.6,152.2,273.8,149.5z M275.7,117c0-0.2,0.1-0.3,0.1-0.4
		C275.8,116.7,275.8,116.9,275.7,117z M276.3,115.3c-0.1,0.1-0.1,0.3-0.2,0.4C276.1,115.6,276.2,115.5,276.3,115.3z M277.2,113.8
		c0.1-0.1,0.2-0.2,0.3-0.3C277.4,113.6,277.3,113.7,277.2,113.8z M278.3,112.9c-0.1,0.1-0.3,0.1-0.4,0.2
		C278,113.1,278.1,113,278.3,112.9z M305,159c0.1,0,0.1,0,0.2,0C305.1,159,305.1,159,305,159L305,159z M308.4,158.1
		c-0.1,0-0.1,0.1-0.2,0.1C308.3,158.1,308.3,158.1,308.4,158.1z M307.3,158.6c-0.1,0-0.1,0-0.2,0.1
		C307.2,158.6,307.3,158.6,307.3,158.6z M306.2,158.9L306.2,158.9L306.2,158.9z M313.7,111.2c0-0.2-0.1-0.5-0.2-0.7
		C313.6,110.7,313.7,110.9,313.7,111.2L313.7,111.2z"/>
	<path class="st0" d="M162.2,99.8c1.4,0.4,2.6,0.7,3.7,0.8c0.7,0.1,1.5,0.1,2.2,0.1c0.5,0,0.9,0,1.4,0h0.1c2.5-0.2,5-0.7,7.4-1.7
		c1.3-0.5,2.4-1.1,3.5-1.7c1.1-0.7,2.2-1.4,3.2-2.3l0,0c0.1-0.1,0.2-0.2,0.2-0.3l0,0c0.7-0.8,0.6-2.1-0.2-2.9
		c-0.4-0.4-0.9-0.6-1.5-0.6s-1.2,0.2-1.6,0.7c-0.7,0.8-1.4,1.4-2.4,2.2c-0.9,0.6-1.8,1.2-2.7,1.7c-1.1,0.5-2,0.9-3,1.2
		c-1.3,0.4-2.3,0.7-3.2,0.8h-0.1c0,0,0,0-0.1,0c-0.9,0.1-1.7,0.2-2.5,0.2c-0.2,0-0.4,0-0.7,0c-1.1,0-2.2-0.2-3.2-0.4
		c-2.2-0.5-4.2-1.5-6.1-2.8c-1.8-1.3-3.4-3-4.6-4.8c-1.2-1.9-2.1-3.9-2.8-6.1c-1.2-3.8-1.5-8.3-1-13.2c0-0.1,0-0.1,0-0.2
		s0-0.1,0-0.2s0.1-0.3,0.1-0.5c0-0.1,0-0.1,0-0.2s0-0.1,0-0.2s0-0.3,0.1-0.5l0.2-1.6c0-0.1,0.1-0.2,0.1-0.4c0-0.2,0.1-0.3,0.1-0.4
		c0.1-0.3,0.1-0.6,0.2-0.8l0.5-1.7c0.3-1,0.8-2.1,1.3-3.1c0.4-0.8,1-1.7,1.5-2.4l0.1-0.1l0.2-0.3c0.6-0.8,1.3-1.5,2.3-2.5
		c0.8-0.8,1.7-1.5,2.6-2c1-0.7,2-1.1,3-1.5c1.2-0.5,2.4-0.8,3.2-0.9c1.1-0.3,2.2-0.4,3.3-0.5h1.6c0.2,0,0.4,0,0.5,0s0.2,0,0.3,0h0.1
		l0.8,0.1l0,0c0.4,0.1,0.6,0.1,0.8,0.1L172,51h0.1c0.4,0.1,1,0.3,1.4,0.4l0,0h0.1c0.5,0.2,1,0.4,1.4,0.7l0,0
		c0.3,0.2,0.7,0.4,1.1,0.6c0.1,0.1,0.2,0.1,0.3,0.2c3.6,2.5,6.3,6.2,7.7,10.4c0,0.1,0,0.1,0,0.1l0,0l0.3,1c0.1,0.2,0.3,0.3,0.5,0.3
		h0.1c0.1,0,0.2-0.1,0.3-0.2c0.1,0.1,0.3,0.1,0.4,0.1c0.1,0,0.3,0,0.5,0c0.4,0,0.9-0.1,1.3-0.4c0.5-0.3,0.8-0.8,1-1.4
		c0.1-0.6,0-1.1-0.3-1.6c-0.2-0.2-0.3-0.4-0.4-0.6c-0.2-0.3-0.4-0.7-0.7-1c-0.1-0.1-0.1-0.2-0.2-0.3c-0.1-0.1-0.1-0.2-0.2-0.3
		c-0.2-0.4-0.5-0.7-0.7-1l-1-1c0,0,0,0,0-0.1l-1.3-1.3c-0.8-0.9-1.9-1.8-2.8-2.5l-1.6-1.1l-0.3-0.2l-0.1-0.1
		c-0.1-0.1-0.2-0.1-0.3-0.2l-0.3-0.3c0,0-0.1,0-0.1-0.1l-0.5-0.2h-0.1h-0.1c-0.2,0-0.3-0.1-0.6-0.3c-0.2-0.1-0.4-0.2-0.6-0.3
		c0,0-0.1,0-0.2-0.1c0,0-0.1,0-0.1-0.1c-0.5-0.3-1.1-0.5-1.6-0.7h-0.1c-0.3-0.2-0.6-0.2-0.9-0.3l-0.9-0.3c-0.1,0-0.2-0.1-0.3-0.1
		l-0.3-0.1c-0.4-0.1-0.8-0.3-1.3-0.3l-0.8-0.1c-0.1,0-0.3-0.1-0.4-0.1h-0.1c0,0-0.1,0-0.2,0c-0.1,0-0.1,0-0.2,0c-0.1,0-0.1,0-0.2,0
		c-0.1,0-0.2,0-0.2,0c-0.1,0-0.1,0-0.2,0c-0.2,0-0.3-0.1-0.5-0.1h-1c-1.3,0-2.6,0.2-3.7,0.5c-2.2,0.5-4.4,1.5-6.8,3.1
		c-1,0.7-2,1.5-2.9,2.3c-1,0.8-1.8,1.7-2.5,2.7l-0.3,0.4l-0.3,0.3c-0.5,0.7-1.1,1.5-1.6,2.3c-0.1,0.2-0.2,0.4-0.4,0.6
		c-0.5,0.8-1.1,1.7-1.5,2.5c-1.3,2.8-2.2,5-2.6,7.2c-0.9,4.9-0.2,10.2,2,14.9c0.9,2.1,2.2,4.2,3.9,6.4c1.9,2.3,3.6,4,5.4,5.2
		C157.8,98,160,99.1,162.2,99.8z M166.8,98.3c0.4,0,0.8,0,1.2-0.1C167.5,98.3,167.2,98.3,166.8,98.3z M184,93.2c0-0.1,0-0.2,0-0.3
		C183.9,92.9,184,93,184,93.2z M182.3,91.5L182.3,91.5L182.3,91.5L182.3,91.5z M182.9,91.7C182.9,91.7,182.9,91.6,182.9,91.7
		C182.9,91.6,182.9,91.7,182.9,91.7z M181,92.1L181,92.1L181,92.1c-0.5,0.6-1.1,1.1-1.7,1.7C180,93.1,180.5,92.6,181,92.1z
		 M182.1,91.6H182C182,91.6,182,91.6,182.1,91.6z M181.8,91.6h-0.1C181.7,91.6,181.7,91.6,181.8,91.6z M181.4,91.8
		c0,0-0.1,0-0.1,0.1C181.4,91.8,181.4,91.8,181.4,91.8z M169.3,98.1c-0.4,0.1-0.8,0.1-1.1,0.1C168.6,98.2,168.9,98.2,169.3,98.1z
		 M166,98.3L166,98.3L166,98.3c-0.6,0-1.1,0-1.7-0.1C164.9,98.3,165.5,98.3,166,98.3z M186.4,64.5L186.4,64.5L186.4,64.5L186.4,64.5
		z M186.8,64.5h0.1C186.9,64.4,186.8,64.4,186.8,64.5z M187.5,61.3c-0.2-0.3-0.4-0.7-0.6-1C187.1,60.6,187.3,60.9,187.5,61.3z
		 M186.4,59.7c0.1,0.1,0.1,0.2,0.2,0.3C186.6,59.9,186.5,59.8,186.4,59.7c-0.1-0.2-0.2-0.3-0.3-0.5
		C186.2,59.4,186.3,59.6,186.4,59.7z M183.3,56l1.3,1.3L183.3,56c-0.4-0.4-0.8-0.9-1.3-1.3C182.4,55.1,182.9,55.6,183.3,56z
		 M174.2,49.9h0.1c0.5,0.2,1.1,0.4,1.5,0.7c-0.4-0.2-1-0.5-1.5-0.7H174.2c-0.2-0.1-0.5-0.2-0.8-0.3
		C173.6,49.7,173.9,49.8,174.2,49.9z M169.3,48.6c0.1,0,0.2,0,0.3,0C169.5,48.7,169.4,48.7,169.3,48.6c-0.1,0-0.2,0-0.2,0
		C169.2,48.6,169.2,48.6,169.3,48.6z M161.7,49.4c-1.6,0.5-3.3,1.4-5,2.6C158.4,50.8,160.1,49.9,161.7,49.4z M147.3,63
		c0.2-0.4,0.5-0.8,0.7-1.2c0.3-0.4,0.5-0.8,0.8-1.2c0.1-0.2,0.3-0.4,0.4-0.6c-0.1,0.2-0.2,0.4-0.4,0.6c-0.3,0.4-0.5,0.8-0.8,1.2
		C147.8,62.1,147.5,62.6,147.3,63c-0.6,1.3-1.2,2.6-1.6,3.7C146.1,65.5,146.7,64.3,147.3,63z M144.8,70c-0.2,1.2-0.3,2.4-0.4,3.7
		C144.5,72.4,144.6,71.2,144.8,70z"/>
	<path class="st0" d="M273.8,83.3L273.8,83.3C273.8,83.2,273.8,83.2,273.8,83.3c0-0.3,0.1-0.5,0.2-0.8l0.1-0.4
		c0.2-0.9,0.4-1.7,0.5-2.5c0.2-1.3,0.4-2.4,0.5-3.7c0-1.3,0-2.4,0.1-3.6c0-2.4,0.1-4.9,0.2-7.2c0.1-3.6,0.3-8.9,0.9-14.5
		c0,0,0,0,0-0.1v-0.2c0,0,0,0,0-0.1c-0.1-0.6-0.3-1.1-0.7-1.5c-0.4-0.3-0.9-0.5-1.4-0.5c-0.1,0-0.2,0-0.2,0
		c-0.6,0.1-1.1,0.3-1.5,0.8c-0.4,0.4-0.5,1-0.5,1.5c0.5,4.7,0.7,9.5,0.9,14.1V65c0.1,2.6,0.1,4.9,0.1,7.2c0.1,1.2,0.1,2.5,0.1,3.6
		l0,0c-0.1,1.1-0.1,2.2-0.4,3.4c-0.1,1.2-0.5,2.4-0.7,3.4c-0.4,1-0.8,2.1-1.3,3.2c-0.4,1-1,2-1.7,3c-0.7,1.1-1.5,2-2.2,2.6
		c-1.6,1.6-3.4,3-5.4,3.9s-4.1,1.3-6.1,1.3c-4.1,0-8.3-1.9-11.4-5.3c-1.6-1.6-2.9-3.5-3.9-5.5c-0.5-1-0.9-2-1.3-3.3
		c-0.3-1-0.5-2.1-0.8-3.2v-0.1c-0.2-1.2-0.3-2.3-0.4-3.4c0-1.2,0-2.4,0.1-3.6c0-2.4,0.1-4.7,0.2-7.3v-1.3v-0.3
		c0.2-4.2,0.4-8.5,0.8-12.8v-0.2v-0.1c0,0,0,0,0-0.1c-0.1-0.6-0.3-1.1-0.7-1.5c-0.4-0.3-0.8-0.5-1.3-0.5c-0.1,0-0.1,0-0.2,0
		c-0.6,0.1-1.1,0.3-1.5,0.8c-0.4,0.4-0.5,1-0.5,1.5c0.6,5.5,0.8,10.9,0.9,14.4c0.1,1.2,0.1,2.4,0.1,3.6c0,0.4,0,0.8,0,1.3
		c0,0.4,0,0.8,0,1.2c0,0.4,0,0.8,0,1.2c0,1.2,0,2.4,0.1,3.7V76c0.1,1.1,0.2,2.3,0.4,3.5c0.1,0.9,0.3,2.1,0.7,3.6
		c0.4,1.4,0.7,2.5,1.1,3.6c0.5,1.4,1.1,2.5,1.6,3.5c0.7,1.3,1.5,2.5,2,3.2c1.7,2.2,3.7,3.9,5.9,5.2c2.4,1.3,5.2,2.1,7.9,2.1
		c2.7,0,5.5-0.8,7.8-2.1c2.3-1.4,4.3-3.2,5.8-5.2s2.7-4.3,3.7-6.7c0.4-1.1,0.7-2,1.1-3.1L273.8,83.3z M273.6,75.8L273.6,75.8
		c-0.1,1.1-0.1,2.3-0.4,3.6C273.4,78.1,273.5,76.9,273.6,75.8z M274.6,48.8C274.7,48.8,274.7,48.8,274.6,48.8
		C274.7,48.8,274.6,48.8,274.6,48.8z M275.7,50.2c0-0.4-0.2-0.8-0.6-1.1C275.5,49.3,275.7,49.7,275.7,50.2z M274.1,48.7L274.1,48.7
		c0,0-0.1,0-0.2,0C274,48.7,274,48.7,274.1,48.7z M272.5,82.8c-0.3,1-0.8,2.1-1.3,3.3C271.7,84.9,272.1,83.8,272.5,82.8z
		 M269.4,89.2c0.3-0.5,0.7-1,1-1.5C270.1,88.2,269.8,88.7,269.4,89.2c-0.2,0.3-0.4,0.5-0.6,0.8C269.1,89.7,269.2,89.4,269.4,89.2z
		 M261.7,95.8c1.5-0.7,2.9-1.6,4.2-2.8C264.6,94.2,263.2,95.1,261.7,95.8c-1,0.5-2.1,0.8-3.2,1C259.6,96.6,260.6,96.3,261.7,95.8z
		 M253.8,97.1c-1.1-0.1-2.1-0.4-3.1-0.7C251.6,96.7,252.7,97,253.8,97.1z M249.1,95.8c-1.5-0.7-3-1.6-4.3-2.8
		C246.1,94.2,247.6,95.1,249.1,95.8z M243.5,91.8c-1.6-1.6-3-3.5-4-5.6C240.6,88.2,241.9,90.2,243.5,91.8z M238.2,82.8
		c0.2,0.6,0.4,1.2,0.6,1.7C238.6,84,238.4,83.4,238.2,82.8c-0.3-1.1-0.6-2.2-0.8-3.4C237.6,80.5,237.9,81.7,238.2,82.8z M237.1,48.8
		L237.1,48.8L237.1,48.8z M238.2,50.2c0-0.5-0.2-0.9-0.6-1.1C237.9,49.3,238.1,49.7,238.2,50.2z M236.4,48.7h0.1l0,0
		C236.6,48.7,236.5,48.7,236.4,48.7c-0.2,0-0.4,0.1-0.6,0.2C236,48.8,236.2,48.7,236.4,48.7z M235.1,49.6c-0.1,0.2-0.2,0.4-0.2,0.6
		C235,49.9,235,49.7,235.1,49.6z"/>
	<path class="st0" d="M284.5,95.2c1.1,1,2.4,1.8,4,2.7c0.7,0.3,1.5,0.6,2.2,0.8c0.6,0.3,1.4,0.5,2.2,0.7c1.5,0.4,3.1,0.6,4.7,0.6
		c4.7,0,9.2-1.8,12.4-4.8c0.4-0.4,1-1,1.5-1.7c0.4-0.4,0.7-0.9,1-1.4l0.2-0.2l0.1-0.2l0,0c0.4-0.7,0.7-1.4,0.9-2.2
		c0.1-0.7,0.3-1.5,0.4-2.2c0.1-1.6-0.2-3.2-0.9-4.7c-0.5-1.2-1.4-2.5-2.5-3.8c-1.2-1.2-2.4-2.2-3.7-3c-0.9-0.6-1.8-1-2.6-1.4
		l3.4-5.5c0.1-0.1,0.1-0.1,0.2-0.2s0.1-0.1,0.1-0.2c0.2-0.3,0.5-0.7,0.7-1l0.3-0.5l0.1-0.1c0.4-0.5,0.8-1.1,1.2-1.8
		c0.8-1.2,1.5-2.5,1.9-4.1c0.2-0.7,0.3-1.5,0.2-2.4c-0.1-0.8-0.2-1.6-0.6-2.3c-0.3-0.8-0.7-1.4-1.2-2c-0.3-0.3-0.6-0.6-0.8-0.9
		l-0.2-0.2c-0.1-0.1-0.2-0.2-0.2-0.2c-0.1-0.1-0.2-0.2-0.3-0.3c-2.2-2.1-5.1-3.6-8.2-4c-1.1-0.2-2.1-0.3-3.2-0.3c-2,0-4,0.3-5.9,1
		c-1.5,0.5-2.7,1.3-4,2.1c-0.7,0.5-1.3,0.9-1.8,1.4c-0.6,0.4-1.1,1-1.6,1.6c-1,1.1-1.9,2.4-2.5,3.8c-0.3,0.8-0.5,1.5-0.6,2.2
		c0,0.2-0.1,0.3-0.1,0.4c0,0.1,0,0.1,0,0.2c0,0.1,0,0.1,0,0.2c0,0.1,0,0.2,0,0.3v0.1c0,0.1,0,0.2,0,0.3s0,0.2,0,0.3
		c0,0.2-0.1,0.4-0.1,0.6c-0.1,1.4,0.3,2.9,1.1,4.7c0.9,1.5,1.9,2.8,3,3.8c2.1,1.9,4.9,3.4,8.1,4.4c1.6,0.5,3.2,0.8,4.4,1l1,0.2
		c0.1,0,0.3,0.1,0.4,0.1s0.1,0,0.2,0c0,0,0.1,0,0.2,0s0.2,0,0.2,0l1,0.2c0,0,0,0,0.1,0l-11,17.6c-1.1-0.6-2-1.4-2.8-2.2
		c-0.9-0.9-1.5-2-1.9-3c-0.4-1.1-0.5-2.1-0.5-3.3v-0.3c-0.1-1.2-1.2-2.2-2.3-2.2c-0.1,0-0.1,0-0.2,0c-0.6,0-1.2,0.3-1.6,0.8
		s-0.6,1.1-0.6,1.7c0.1,1.7,0.6,3.4,1.5,5C282.2,92.6,283.2,93.9,284.5,95.2z M301.3,73.7c-0.2-0.1-0.4-0.1-0.6-0.2l-1.1-0.2
		c-0.2,0-0.4-0.1-0.5-0.1c0.2,0,0.3,0,0.5,0.1l1.1,0.2C300.9,73.6,301.1,73.6,301.3,73.7c0.3,0.1,0.5,0.1,0.8,0.2
		C301.8,73.9,301.5,73.8,301.3,73.7z M284.8,67.1c-0.2-0.2-0.4-0.5-0.5-0.7c-0.8-1.1-1.2-2.4-1.3-3.6c0.1,1.2,0.5,2.5,1.3,3.6
		C284.5,66.7,284.6,66.9,284.8,67.1c0.4,0.5,0.9,0.9,1.4,1.3C285.7,68,285.2,67.6,284.8,67.1z M310.5,92.6c0.2-0.2,0.4-0.4,0.6-0.7
		C310.9,92.2,310.7,92.4,310.5,92.6z M312.4,87.2c-0.1,1.2-0.4,2.4-1.1,3.5c-0.4,0.6-0.8,1.1-1.2,1.6c-0.3,0.3-0.7,0.7-1.1,1
		c-0.1,0.1-0.1,0.1-0.2,0.2s-0.1,0.1-0.2,0.2c-1.9,1.5-4.4,2.5-7.2,2.9c-1,0.2-2,0.2-3,0.2c-0.3,0-0.7,0-1,0
		c-1.5-0.1-2.7-0.2-3.9-0.5c0,0-0.1,0-0.2-0.1c-0.1,0-0.2,0-0.2-0.1l-0.2-0.1c-0.4-0.1-0.8-0.2-1.1-0.4c-0.1,0-0.1-0.1-0.2-0.1
		c-0.2,0-0.3-0.1-0.5-0.1l11.1-17.9c2.8,0.8,4.9,1.8,6.5,3.1c0.5,0.4,1,0.9,1.4,1.3c0.3,0.4,0.7,0.9,1.2,1.6
		C312,84.7,312.4,85.9,312.4,87.2z M299.7,97.3c-0.2,0-0.4,0-0.5,0C299.3,97.3,299.5,97.3,299.7,97.3z M297.4,97.3L297.4,97.3
		L297.4,97.3c-1.1,0-2.1-0.1-3-0.3C295.4,97.1,296.4,97.2,297.4,97.3z M312.5,89.1c0.2-0.6,0.3-1.3,0.3-1.9l0,0
		C312.8,87.8,312.7,88.5,312.5,89.1s-0.5,1.3-0.8,1.8C312,90.4,312.3,89.8,312.5,89.1z M283.5,61.8v-0.4c0-0.1,0-0.2,0-0.4
		c0-0.1,0-0.2,0-0.3c0.1-0.6,0.2-1.3,0.4-1.9c0.4-1.3,1.1-2.4,2-3.4c0.5-0.5,0.9-1,1.4-1.3c0.1-0.1,0.2-0.2,0.4-0.3
		c0.1,0,0.1-0.1,0.2-0.1c0,0,0,0,0.1,0l0.1-0.1l0,0l0.9-0.5c1.1-0.6,2.3-1,3.7-1.3c1.3-0.3,2.7-0.4,4.1-0.4c1.3,0,2.5,0.1,3.8,0.3
		c1.3,0.1,2.6,0.4,3.9,0.8c1,0.3,2.3,0.9,3.5,1.7c0.3,0.2,0.5,0.4,0.7,0.6l0.4,0.4l0.3,0.4c0.4,0.5,0.8,1,1.1,1.5
		c0.5,1.1,0.6,2.4,0.3,3.5c-0.3,1.3-0.9,2.5-1.6,3.7c-0.2,0.4-0.5,0.8-0.8,1.1l-0.2,0.3c-0.5,0.7-1,1.4-1.3,2
		c-0.1,0-0.1,0.1-0.1,0.2l-3.7,5.9l-0.2-0.1c-0.3-0.1-0.5-0.2-0.8-0.2c-0.3-0.1-0.5-0.2-0.8-0.2c-0.1,0-0.2-0.1-0.4-0.1
		c-0.1,0-0.2,0-0.3-0.1c0,0,0,0-0.1,0l-1.1-0.2c-0.2,0-0.4-0.1-0.5-0.1c-0.2,0-0.4-0.1-0.5-0.1h-0.1l-4-0.9c-2.3-0.7-4.9-1.5-7.1-3
		c-1.2-0.8-2.1-1.6-2.7-2.5c-0.7-1.1-1.1-2.3-1.2-3.4C283.5,62.4,283.5,62.1,283.5,61.8z M307.3,68.1L307.3,68.1l-3.9,6.3
		L307.3,68.1z M298,50.9c0.2,0,0.4,0,0.7,0C298.4,50.9,298.2,50.9,298,50.9z M296.7,50.9c-0.5,0-0.9,0-1.4,0.1
		C295.7,50.9,296.2,50.9,296.7,50.9z M294.6,51c-0.7,0.1-1.4,0.2-2.1,0.3C293.2,51.1,293.9,51.1,294.6,51z M293.3,49.5
		c0.1,0,0.3-0.1,0.4-0.1C293.6,49.4,293.4,49.4,293.3,49.5z M294.6,49.1c0.1,0,0.3-0.1,0.4-0.1C294.9,49.1,294.8,49.1,294.6,49.1z
		 M296.2,48.9c0.1,0,0.1,0,0.2,0C296.3,48.9,296.2,48.9,296.2,48.9z M313.7,87.2L313.7,87.2c0-0.4,0-0.7,0-1.1
		C313.7,86.4,313.7,86.8,313.7,87.2z M310.3,79.1c0.5,0.6,1,1.2,1.4,1.8C311.3,80.3,310.8,79.7,310.3,79.1c-0.3-0.3-0.5-0.6-0.8-0.8
		C309.8,78.5,310,78.8,310.3,79.1z M308.6,77.5c-0.6-0.5-1.2-0.9-1.9-1.3C307.4,76.6,308,77,308.6,77.5z M311.5,56.5
		c-0.3-0.7-0.6-1.3-1.1-1.9C310.9,55.2,311.2,55.8,311.5,56.5z M298,48.9c-0.1,0-0.2,0-0.4,0h0.1C297.9,48.8,298,48.9,298,48.9z
		 M299.5,48.9c-0.1,0-0.3,0-0.4,0C299.3,48.9,299.4,48.9,299.5,48.9z M286.4,53.3c0.2-0.2,0.5-0.4,0.8-0.7
		C286.9,52.8,286.6,53,286.4,53.3c-0.3,0.2-0.5,0.4-0.8,0.7C285.9,53.7,286.1,53.5,286.4,53.3z M282.5,58.5
		c-0.3,0.7-0.4,1.4-0.6,2.1C282,59.9,282.2,59.2,282.5,58.5z M281.8,61.2c0-0.1,0-0.2,0-0.3C281.8,61,281.8,61.1,281.8,61.2
		c0,0.1,0,0.2,0,0.3C281.8,61.4,281.8,61.3,281.8,61.2z M281.7,62.3c0-0.2,0-0.3,0-0.5l0,0C281.7,61.9,281.7,62.1,281.7,62.3
		s0,0.4,0,0.5l0,0C281.7,62.6,281.7,62.4,281.7,62.3z M290,95.5L301.6,77L290,95.5c-0.1-0.1-0.2-0.1-0.3-0.2
		C289.8,95.4,289.9,95.4,290,95.5z M284.2,86c0-0.1,0-0.2-0.1-0.3C284.1,85.7,284.2,85.9,284.2,86L284.2,86z M284.1,85.5
		c0-0.1-0.1-0.1-0.1-0.2C284,85.4,284,85.5,284.1,85.5z M283.7,84.9l-0.1-0.1C283.6,84.8,283.6,84.9,283.7,84.9z M283.9,85.2
		c0-0.1-0.1-0.1-0.1-0.2C283.8,85.1,283.9,85.1,283.9,85.2z M282.3,84.3h0.1c-0.1,0-0.2,0-0.2,0C282.3,84.3,282.3,84.3,282.3,84.3z
		 M283.4,84.7c-0.1,0-0.1-0.1-0.2-0.1C283.3,84.6,283.4,84.6,283.4,84.7z M283.1,84.5c-0.1,0-0.1-0.1-0.2-0.1
		C283,84.4,283.1,84.5,283.1,84.5z M282.8,84.4c-0.1,0-0.1,0-0.2,0C282.7,84.3,282.7,84.3,282.8,84.4z M281,84.9
		c-0.2,0.2-0.3,0.4-0.4,0.6C280.7,85.3,280.8,85.1,281,84.9z"/>
	<path class="st0" d="M363.7,67.2c0.2,5.5,0.4,11,0.4,16.6c0,0.7,0,1.4,0,2.1s0,1.4,0,2V90c0,0.2,0,0.4,0,0.6c0,0.6,0,1.1,0,1.6
		c0.1,1.4,0.6,2.9,1.5,4.3c0.4,0.6,0.9,1.1,1.7,1.7c0.6,0.5,1.4,0.9,2,1.2h0.1c0.1,0,0.1,0,0.2,0c0.6,0.2,1.3,0.3,2.1,0.4h0.2
		l2.2,0.1l4.2,0.2c0.5,0,1.2,0.1,2,0.1c0.6,0,1.2,0.1,1.9,0.1h0.5c3.1,0.1,7,0.3,8.8,0.5c0,0,0,0,0.1,0h0.3c0,0,0,0,0.1,0
		c0.6-0.1,1.1-0.3,1.5-0.8s0.6-1.1,0.5-1.7s-0.3-1.2-0.8-1.5c-0.4-0.3-0.9-0.5-1.5-0.5h-0.1c-1.7,0.1-5.4,0.3-7.9,0.3
		c-2,0.1-4.1,0.1-5.3,0.2c-1.4,0.1-2.7,0.2-4,0.3h-0.1l-2.1,0.1h-0.9l-0.3-0.1l-0.4-0.1c-0.8-0.2-1.2-0.4-1.6-0.6
		c-0.5-0.4-0.9-0.8-1.4-1.2c-0.4-0.4-0.6-0.9-0.9-1.5l-0.1-0.1c-0.2-0.4-0.3-1-0.4-1.7c-0.1-0.6-0.1-1.3-0.1-2v-2.1
		c0-1.3,0-2.7,0.1-4.1c0.1-5.7,0.2-11.3,0.5-16.6c0.1-5.2,0.4-10.8,0.8-16.6c0,0,0,0,0-0.1v-0.1v-0.2c-0.1-0.6-0.4-1.1-0.8-1.5
		c-0.4-0.3-0.9-0.5-1.3-0.5c-0.1,0-0.1,0-0.2,0c-0.6,0-1.2,0.2-1.6,0.7s-0.6,1-0.6,1.7C363.3,56.5,363.5,62.6,363.7,67.2z
		 M364.2,67.2L364.2,67.2c0-1.4-0.1-2.8-0.2-4.1C364.1,64.4,364.2,65.8,364.2,67.2L364.2,67.2c0.1,2.7,0.2,5.5,0.3,8.3
		C364.4,72.7,364.3,69.9,364.2,67.2z M365.7,48.9L365.7,48.9L365.7,48.9z M364.7,85.9c0,0.3,0,0.7,0,1
		C364.7,86.6,364.7,86.3,364.7,85.9c0-0.7-0.1-1.4-0.1-2.1C364.7,84.5,364.7,85.2,364.7,85.9z M364.7,90.7c0-0.2,0-0.4,0-0.7
		C364.7,90.3,364.7,90.5,364.7,90.7s0,0.5,0,0.7C364.7,91.2,364.7,91,364.7,90.7z M366.2,96.3c-0.2-0.3-0.4-0.7-0.6-1
		C365.8,95.6,366,96,366.2,96.3s0.4,0.5,0.7,0.8C366.6,96.9,366.4,96.6,366.2,96.3z M379,99.7c0.3,0,0.6,0,1,0
		C379.7,99.8,379.3,99.8,379,99.7z M393.3,98.8c0,0.2-0.1,0.4-0.2,0.6C393.3,99.2,393.3,99,393.3,98.8c0-0.1,0-0.2,0-0.3
		c0-0.1-0.1-0.3-0.1-0.4c0,0.1,0.1,0.2,0.1,0.4C393.4,98.6,393.4,98.7,393.3,98.8z M393.1,97.7c-0.1-0.2-0.2-0.3-0.3-0.4l0,0l0,0
		C392.9,97.4,393,97.6,393.1,97.7z M392.2,97L392.2,97L392.2,97z M391.6,96.9L391.6,96.9h-0.1C391.5,96.9,391.5,96.9,391.6,96.9z
		 M383.5,97.3c-0.5,0-1,0-1.5,0.1c-0.5,0-1,0-1.4,0.1c0.4,0,0.9,0,1.4-0.1C382.4,97.3,383,97.3,383.5,97.3z M374.1,97.8
		c1.3-0.1,2.7-0.1,4.2-0.3c0.3,0,0.6,0,1-0.1c0.4,0,0.8,0,1.2-0.1c-0.4,0-0.9,0-1.2,0.1c-0.4,0-0.7,0-1,0.1
		C376.8,97.6,375.4,97.7,374.1,97.8l-2.1,0.1L374.1,97.8z M370.6,97.8l0.4,0.1l0,0L370.6,97.8l-0.4-0.1L370.6,97.8z M368.5,96.9
		c0.1,0.1,0.2,0.2,0.3,0.2c0.2,0.1,0.5,0.2,0.8,0.3c-0.3-0.1-0.6-0.2-0.8-0.3C368.7,97.1,368.6,97,368.5,96.9
		c-0.3-0.2-0.5-0.4-0.7-0.6C367.9,96.5,368.2,96.7,368.5,96.9z M366,93.9c0,0.1,0.1,0.2,0.2,0.3C366.1,94.1,366.1,94,366,93.9
		c-0.1-0.3-0.2-0.6-0.3-0.9C365.8,93.4,365.9,93.7,366,93.9z M366.8,50.6c-0.1,1.4-0.2,2.8-0.3,4.2C366.7,53.4,366.7,52,366.8,50.6
		L366.8,50.6L366.8,50.6L366.8,50.6L366.8,50.6z M366.7,50c-0.1-0.3-0.3-0.6-0.6-0.8l0,0l0,0C366.4,49.4,366.6,49.7,366.7,50z
		 M365.2,48.8L365.2,48.8c0,0-0.1,0-0.2,0C365.1,48.8,365.1,48.8,365.2,48.8z M363.8,49.3c0.1-0.1,0.2-0.2,0.3-0.2
		C364,49.2,363.9,49.2,363.8,49.3c-0.2,0.2-0.3,0.4-0.4,0.6C363.5,49.7,363.6,49.5,363.8,49.3z M363.4,50.6c0.2,2.7,0.4,5.5,0.5,8.3
		C363.7,56.1,363.6,53.3,363.4,50.6c0-0.1,0-0.2,0-0.4C363.3,50.4,363.3,50.5,363.4,50.6z"/>
	<path class="st0" d="M149,107.7c-0.4-0.2-0.8-0.4-1.2-0.4c-0.1,0-0.2,0-0.3,0c-0.6,0.1-1.1,0.4-1.5,0.8s-0.5,1.1-0.4,1.6
		c0.6,4.2,0.8,8.4,1,11.9c0,0.5,0,1,0,1.5c0,0.2,0,0.5,0,0.7s0,0.5,0,0.8c0.1,0.7,0.1,1.9,0.1,3c0,1,0,1.9,0,2.9v1c0,0.3,0,0.7,0,1
		s0,0.7,0,1.1l-0.4,11.9v1.1c-0.2,3.8-0.4,7.2-0.7,10.8v0.4c0,0,0,0,0,0.1c0.1,0.6,0.3,1.1,0.7,1.5c0.4,0.3,0.9,0.5,1.4,0.5h0.1
		c0,0,0,0,0.1,0c0.6-0.1,1.1-0.3,1.5-0.7c0.4-0.5,0.6-1,0.5-1.6c-0.3-4.5-0.5-8.4-0.7-11.9c-0.2-3.9-0.4-7.8-0.4-11.9
		c-0.1-2.1-0.1-4,0-6c0-1,0-2,0.1-3c0-0.3,0-0.7,0.1-1c0-0.2,0-0.3,0-0.5s0-0.3,0-0.5c0-0.3,0-0.6,0.1-1c0.3-4.6,0.6-8.4,1-11.9
		c0,0,0,0,0-0.1v-0.4v-0.1C149.8,108.6,149.5,108,149,107.7z M147.4,131.6c0-0.7,0-1.3,0-2C147.4,130.2,147.4,130.9,147.4,131.6z
		 M148.2,107.9C148.2,107.9,148.3,107.9,148.2,107.9C148.3,107.9,148.2,107.9,148.2,107.9z M148.2,133.6c0-1-0.1-2-0.1-3
		C148.1,131.6,148.1,132.6,148.2,133.6c0,2,0.1,4,0.2,6C148.3,137.6,148.2,135.6,148.2,133.6z M147.8,107.8L147.8,107.8
		c-0.1,0-0.2,0-0.3,0C147.6,107.8,147.7,107.8,147.8,107.8z M146.4,108.5c0.2-0.3,0.5-0.5,0.9-0.6
		C146.9,108,146.6,108.2,146.4,108.5c-0.1,0.1-0.1,0.2-0.2,0.3C146.2,108.7,146.3,108.6,146.4,108.5z M149.2,154.4
		c0.1,1,0.1,2,0.2,3.1c0,0.1,0,0.2,0,0.3c0-0.1,0-0.2,0-0.3C149.3,156.4,149.2,155.4,149.2,154.4c-0.2-3.1-0.4-6-0.5-8.9
		C148.8,148.3,149,151.3,149.2,154.4z"/>
	<path class="st0" d="M185.9,137.8c-1.2-1.2-2.3-2.2-3.7-3c-0.9-0.6-1.8-1-2.6-1.4l3.4-5.5c0.1-0.1,0.1-0.1,0.2-0.2
		c0.1-0.1,0.1-0.1,0.1-0.2c0.2-0.3,0.5-0.7,0.7-1l0.3-0.5l0.1-0.1c0.4-0.5,0.8-1.1,1.2-1.8c0.8-1.2,1.5-2.5,1.9-4.1
		c0.2-0.7,0.3-1.5,0.2-2.4c-0.1-0.8-0.2-1.6-0.6-2.3c-0.3-0.8-0.7-1.4-1.2-2c-0.3-0.3-0.6-0.6-0.8-0.9l-0.2-0.2
		c-0.1-0.1-0.2-0.2-0.2-0.2c-0.1-0.1-0.2-0.2-0.3-0.3c-2.2-2.1-5.1-3.6-8.2-4c-1.1-0.2-2.1-0.3-3.2-0.3c-2,0-4,0.3-5.9,1
		c-1.5,0.5-2.7,1.3-4,2.1c-0.7,0.5-1.3,0.9-1.8,1.4c-0.6,0.4-1.1,1-1.6,1.6c-1,1.1-1.9,2.4-2.5,3.8c-0.3,0.8-0.5,1.5-0.6,2.2
		c0,0.2-0.1,0.3-0.1,0.4s0,0.1,0,0.2s0,0.1,0,0.2s0,0.2,0,0.3v0.1c0,0.1,0,0.2,0,0.3c0,0.1,0,0.2,0,0.3c0,0.2-0.1,0.4-0.1,0.6
		c-0.1,1.4,0.3,2.9,1.1,4.7c0.9,1.5,1.9,2.8,3,3.8c2.1,1.9,4.9,3.4,8.1,4.4c1.6,0.5,3.2,0.8,4.4,1l1,0.2c0.1,0,0.3,0.1,0.4,0.1
		c0.1,0,0.1,0,0.2,0c0.1,0,0.1,0,0.2,0c0.1,0,0.2,0,0.2,0l1,0.2c0,0,0,0,0.1,0l-11,17.6c-1.1-0.6-2-1.4-2.8-2.2
		c-0.9-0.9-1.5-2-1.9-3c-0.4-1.1-0.5-2.1-0.5-3.3v-0.3c-0.1-1.2-1.2-2.2-2.3-2.2c-0.1,0-0.1,0-0.2,0c-0.6,0.1-1.2,0.4-1.6,0.8
		c-0.4,0.5-0.6,1.1-0.6,1.7c0.1,1.6,0.5,3.3,1.4,5c0.7,1.3,1.7,2.6,3,3.9c1.1,1,2.4,1.8,4,2.7c0.9,0.4,1.6,0.7,2.2,0.8
		c0.8,0.3,1.6,0.5,2.2,0.7c1.5,0.4,3.1,0.6,4.7,0.6c4.7,0,9.2-1.8,12.4-4.8c0.4-0.4,1-1,1.5-1.7c0.4-0.4,0.7-0.9,1-1.4l0.2-0.2
		l0.1-0.2l0,0c0.4-0.7,0.7-1.4,0.9-2.2c0.1-0.7,0.3-1.5,0.4-2.2c0.1-1.6-0.2-3.2-0.9-4.7C187.9,140.4,187,139.1,185.9,137.8z
		 M176.7,155.6c-1,0.2-2,0.2-3,0.2c-0.3,0-0.7,0-1,0c-1.5-0.1-2.7-0.2-3.9-0.5c0,0-0.1,0-0.2-0.1c-0.1,0-0.2,0-0.2-0.1l-0.2-0.1
		c-0.4-0.1-0.8-0.2-1.1-0.4c0,0-0.1-0.1-0.2-0.1c-0.2,0-0.3-0.1-0.5-0.2l11.1-17.9c2.8,0.8,4.9,1.8,6.5,3.1c0.5,0.4,1,0.9,1.4,1.3
		c0.4,0.4,0.8,1,1.2,1.6c0.6,1.1,0.9,2.3,0.9,3.6c-0.1,1.2-0.4,2.4-1.1,3.6c-0.4,0.6-0.8,1.1-1.2,1.6c-0.3,0.3-0.7,0.7-1.1,1
		c-0.1,0.1-0.1,0.1-0.2,0.2c-0.1,0.1-0.1,0.1-0.2,0.2C182,154.2,179.5,155.2,176.7,155.6z M179.9,155.3c-0.7,0.2-1.3,0.4-2,0.5
		C178.5,155.7,179.2,155.6,179.9,155.3z M174.9,156.3c-0.2,0-0.4,0-0.5,0C174.5,156.3,174.7,156.3,174.9,156.3z M176,132.1
		L176,132.1l-1.2-0.2c-0.1,0-0.2,0-0.3-0.1c-0.1,0-0.2,0-0.3-0.1c-0.1,0-0.2,0-0.2,0c-0.1,0-0.2,0-0.3-0.1l-4-0.9
		c-2.3-0.7-4.9-1.5-7.1-3c-1.2-0.8-2.1-1.6-2.7-2.5c-0.7-1.1-1.1-2.3-1.2-3.4c0-0.3,0-0.6,0-1v-0.4c0-0.1,0-0.2,0-0.4
		c0-0.1,0-0.2,0-0.3c0.1-0.6,0.2-1.2,0.4-1.9c0.4-1.2,1.1-2.4,2-3.4c0.5-0.5,0.9-1,1.4-1.3c0.2-0.1,0.4-0.3,0.6-0.4
		c0.1-0.1,0.1-0.1,0.2-0.1l0,0l0.9-0.5c1.1-0.6,2.3-1,3.7-1.3c1.3-0.3,2.7-0.4,4.1-0.4c1.3,0,2.5,0.1,3.8,0.3
		c1.3,0.1,2.6,0.4,3.9,0.8c1,0.3,2.3,0.9,3.5,1.7c0.3,0.2,0.5,0.4,0.7,0.6l0.4,0.4l0.3,0.4c0.4,0.5,0.8,1,1.1,1.5
		c0.5,1.1,0.6,2.4,0.3,3.5c-0.3,1.3-0.9,2.5-1.6,3.7c-0.2,0.4-0.5,0.8-0.8,1.1l-0.2,0.3c-0.5,0.8-1,1.4-1.4,2.1l-3.7,6l-0.2-0.1
		c-0.3-0.1-0.5-0.2-0.8-0.2c-0.3-0.1-0.5-0.2-0.8-0.2C176.4,132.3,176.3,132.2,176,132.1C176.2,132.1,176.1,132.1,176,132.1z
		 M186.2,120.7c-0.2,0.6-0.5,1.3-0.8,1.9C185.7,122,186,121.4,186.2,120.7z M173.2,110c0.2,0,0.4,0,0.7,0
		C173.6,110,173.4,110,173.2,110z M171.8,109.9c-0.5,0-0.9,0-1.4,0.1C170.9,109.9,171.4,109.9,171.8,109.9z M169.8,110
		c-0.7,0.1-1.4,0.2-2.1,0.3C168.4,110.2,169.1,110.1,169.8,110z M168.5,108.5c0.1,0,0.3-0.1,0.4-0.1
		C168.8,108.4,168.6,108.5,168.5,108.5z M169.8,108.2c0.1,0,0.3-0.1,0.4-0.1C170.1,108.1,170,108.2,169.8,108.2z M171.4,108
		c0.1,0,0.1,0,0.2,0C171.5,108,171.4,108,171.4,108z M173.6,132.1c0.2,0,0.4,0.1,0.5,0.1C174,132.2,173.8,132.1,173.6,132.1l-4-0.9
		L173.6,132.1z M176.5,132.7c0.5,0.1,1,0.3,1.5,0.4l0.5,0.2l3.9-6.3l-3.9,6.3l-0.5-0.2C177.5,133,177,132.9,176.5,132.7z
		 M166.8,155.1c-0.4-0.1-0.7-0.2-1-0.4C166,154.9,166.4,155,166.8,155.1z M184.2,153c-1,0.8-2.1,1.4-3.4,2
		C182.1,154.5,183.2,153.8,184.2,153c0.1-0.1,0.3-0.2,0.4-0.4C184.5,152.8,184.3,152.9,184.2,153z M186.9,150
		c-0.2,0.3-0.4,0.7-0.6,0.9C186.5,150.6,186.7,150.3,186.9,150z M187.9,147.1c-0.1,0.6-0.3,1.3-0.6,1.9
		C187.6,148.4,187.8,147.8,187.9,147.1z M185.5,138.1c0.3,0.3,0.5,0.6,0.8,0.9C186,138.7,185.8,138.4,185.5,138.1
		c-1.1-1.1-2.2-2.1-3.5-2.9C183.3,136,184.4,137,185.5,138.1z M186.7,115.6c0.1,0.2,0.2,0.3,0.3,0.5
		C186.9,115.9,186.8,115.7,186.7,115.6c-0.3-0.7-0.6-1.3-1.1-1.9C186.1,114.2,186.4,114.8,186.7,115.6z M182.3,110.7
		c-0.6-0.4-1.3-0.8-1.9-1.1C181.1,109.9,181.7,110.2,182.3,110.7z M179.4,109.1c-1-0.4-2.1-0.7-3.2-0.9l0,0l0,0
		C177.2,108.3,178.3,108.6,179.4,109.1z M173.2,107.9c-0.1,0-0.2,0-0.4,0h0.1C173.1,107.9,173.2,107.9,173.2,107.9z M174.7,108
		c-0.1,0-0.3,0-0.4,0C174.5,108,174.6,108,174.7,108z M167.2,108.9C167.2,108.9,167.3,108.9,167.2,108.9
		C167.3,108.9,167.2,108.9,167.2,108.9c-1.4,0.5-2.5,1.2-3.9,2.1C164.7,110.1,165.9,109.4,167.2,108.9z M164.9,154.4
		c0.1,0,0.2,0.1,0.3,0.2l11.5-18.5l-11.5,18.5C165.1,154.5,165,154.4,164.9,154.4c-0.3-0.2-0.6-0.3-0.8-0.5
		C164.3,154,164.6,154.2,164.9,154.4z M161.9,152c-0.7-0.7-1.2-1.5-1.7-2.4C160.6,150.4,161.2,151.2,161.9,152z M159.8,148.8
		c-0.3-0.8-0.5-1.7-0.5-2.6C159.4,147.1,159.5,148,159.8,148.8z M159.3,144.7c0,0.1,0.1,0.2,0.1,0.3
		C159.3,144.9,159.3,144.8,159.3,144.7z M159.2,144.5c0-0.1-0.1-0.1-0.1-0.2C159.2,144.4,159.2,144.5,159.2,144.5z M158.9,143.9
		l-0.1-0.1C158.8,143.8,158.8,143.9,158.9,143.9z M159.1,144.2c0-0.1-0.1-0.1-0.1-0.2C159,144.1,159,144.2,159.1,144.2z
		 M157.5,143.3h0.1C157.5,143.3,157.4,143.3,157.5,143.3C157.4,143.3,157.5,143.3,157.5,143.3z M158.6,143.7c-0.1,0-0.1-0.1-0.2-0.1
		C158.5,143.6,158.6,143.7,158.6,143.7z M158.3,143.5c-0.1,0-0.1-0.1-0.2-0.1C158.2,143.4,158.3,143.5,158.3,143.5z M158,143.4
		c-0.1,0-0.1,0-0.2,0C157.9,143.3,157.9,143.4,158,143.4z M157.1,143.4c-0.2,0.1-0.4,0.2-0.6,0.3
		C156.6,143.6,156.8,143.4,157.1,143.4z M155.8,144.6c-0.1,0.2-0.1,0.5-0.1,0.7l0,0C155.7,145,155.7,144.8,155.8,144.6z
		 M188.8,146.2L188.8,146.2c0-0.7,0-1.5-0.2-2.2C188.8,144.7,188.8,145.4,188.8,146.2z"/>
	<path class="st0" d="M224.3,155.9c-0.4-0.3-0.9-0.5-1.5-0.5h-0.1c-1.7,0.1-5.4,0.3-7.9,0.3c-2,0.1-4.1,0.1-5.2,0.2
		c-1.4,0.1-2.7,0.2-4,0.3h-0.1l-2.1,0.1h-0.9l-0.3-0.1l-0.4-0.1c-0.8-0.2-1.2-0.4-1.6-0.6c-0.5-0.4-0.9-0.8-1.4-1.2
		c-0.4-0.4-0.6-0.9-0.9-1.5l-0.1-0.1c-0.2-0.4-0.3-1-0.4-1.7c-0.1-0.6-0.1-1.3-0.1-2v-2.1c0-1.3,0-2.7,0.1-4.1
		c0.1-5.6,0.2-11.2,0.5-16.6c0.1-5.3,0.4-10.8,0.8-16.6v-0.2c0-0.1,0-0.2-0.1-0.3c-0.1-0.5-0.4-1-0.8-1.3c-0.4-0.3-0.9-0.5-1.3-0.5
		c-0.1,0-0.1,0-0.2,0c-0.6,0-1.2,0.2-1.6,0.7c-0.4,0.5-0.6,1-0.6,1.7c0.3,5.2,0.5,10.5,0.8,15.7v0.9c0.2,5.4,0.4,11,0.4,16.6
		c0,0.7,0,1.4,0.1,2.1c0,0.7,0,1.4,0,2v2.1c0,0.2,0,0.4,0,0.6c0,0.6,0,1.1,0,1.6c0.1,1.4,0.6,2.9,1.5,4.3c0.4,0.6,0.9,1.1,1.7,1.7
		c0.6,0.5,1.4,0.9,2,1.2h0.1c0.1,0,0.1,0,0.2,0c0.6,0.2,1.3,0.3,2.1,0.4h0.2l2.2,0.1l4.2,0.2c0.5,0,1.2,0.1,2,0.1
		c0.6,0,1.2,0.1,1.9,0.1h0.5c3.1,0.1,7,0.3,8.8,0.5c0,0,0,0,0.1,0h0.3c0,0,0,0,0.1,0c0.6-0.1,1.1-0.3,1.5-0.8s0.6-1.1,0.5-1.7
		C225.1,156.8,224.8,156.2,224.3,155.9z M222.8,155.9C222.9,155.9,222.9,155.9,222.8,155.9h-0.1
		C222.8,155.9,222.8,155.9,222.8,155.9z M223.5,156L223.5,156L223.5,156z M211.1,156.4c-0.4,0-0.8,0-1.1,0.1
		C210.3,156.4,210.7,156.4,211.1,156.4z M201.5,156.6l0.4,0.1L201.5,156.6c-0.6-0.1-1-0.3-1.4-0.5
		C200.4,156.3,200.9,156.5,201.5,156.6z M197.3,152.9c-0.2-0.5-0.3-1.2-0.4-1.8C197,151.7,197.1,152.4,197.3,152.9z M196,149.1
		L196,149.1c0,0.2,0,0.4,0,0.7C196,149.5,196,149.3,196,149.1z M197,107.9L197,107.9L197,107.9z M198.2,109.4L198.2,109.4
		L198.2,109.4L198.2,109.4L198.2,109.4z M196.5,107.8L196.5,107.8c0,0-0.1,0-0.2,0C196.4,107.8,196.4,107.8,196.5,107.8z
		 M195.1,108.3c-0.2,0.2-0.3,0.4-0.4,0.6C194.8,108.7,194.9,108.5,195.1,108.3z"/>
	<path class="st0" d="M352,120.7c-0.2-0.3-0.4-0.6-0.6-0.9c-0.6-0.9-1.2-1.9-1.9-2.8c-0.9-1.1-2-2.3-3.2-3.3c-1.1-1-2.3-1.9-3.7-2.8
		c-1.4-0.9-2.9-1.6-4.4-2.1c-2.9-1.2-6.1-1.8-9.4-1.8c-1.9,0-3.7,0.4-5.4,1.2c-1.7,0.8-3.2,2-4.1,3.4c-1,1.4-1.6,3.2-1.8,5v1.2
		l0.1,1.1l0.1,2.1l0.2,3.3v0.1c0.1,1.8,0.2,3.6,0.4,5v0.2v0.4c0.1,2.7,0.1,5.2,0.1,7.9c0,2.8-0.1,5.7-0.1,8.4c0,0.2,0,0.6-0.1,1.1
		v0.3c-0.1,0.9-0.2,2.1-0.1,2.9c0.1,1.3,0.7,3.2,1.9,4.7c0.4,0.5,1,1.2,1.8,1.8l0.5,0.4l0.3,0.2c0,0,0.1,0,0.1,0.1l0.3,0.1l0.4,0.2
		c0.2,0.2,0.5,0.3,0.8,0.4c0.6,0.3,1.4,0.5,1.9,0.7c0.1,0,0.3,0.1,0.5,0.1h0.1c0.2,0,0.3,0.1,0.5,0.1c0.3,0.1,0.5,0.1,0.8,0.1
		c0.5,0.1,1,0.1,1.3,0.1h0.6c3,0,6-0.5,9-1.5s5.8-2.6,8.3-4.8c1.2-1,2.2-2.1,3.2-3.4c1-1.2,1.9-2.5,2.5-3.9c1.5-2.9,2.4-5.7,2.7-8.5
		c0.4-2.8,0.4-5.8-0.2-8.8C354.5,126.2,353.5,123.4,352,120.7z M327,156.3c0.1,0,0.3,0,0.4,0s0.3,0,0.5,0c-0.2,0-0.3,0-0.5,0
		C327.3,156.3,327.2,156.3,327,156.3z M323.5,154.9c-0.1-0.1-0.2-0.1-0.2-0.2C323.3,154.8,323.4,154.8,323.5,154.9
		c0.1,0.1,0.3,0.2,0.4,0.3C323.8,155.1,323.6,155,323.5,154.9z M320.5,129.4c0.1-1.7,0.2-3.4,0.3-4.8l0.1-1.8l0.1-1.8l0.2-3.2v-0.4
		l0.1-0.4c0.2-0.9,0.6-2,1.4-2.8c0.8-0.9,1.6-1.6,2.7-2c1-0.3,2.1-0.7,3.4-0.7c2.6,0,5.4,0.4,8.2,1.3c2.6,0.7,5,1.9,7.3,3.5
		s4.3,3.5,5.8,5.7c1.6,2.2,2.6,4.8,3.2,7.5c0.4,2.9,0.3,5.7-0.3,8c-0.5,2.4-1.6,4.9-3.2,7.4c-1.5,2.1-3.4,4.1-5.7,5.8
		c-2.2,1.6-4.6,2.9-7.1,3.8c-2.8,0.9-5.4,1.4-8,1.5h-0.1c-0.1,0-0.2,0-0.4,0c-0.1,0-0.3,0-0.5,0c-0.1,0-0.2,0-0.3,0
		c-0.2,0-0.3,0-0.5,0c-0.7-0.1-1.2-0.3-1.8-0.5c-0.4-0.2-1-0.4-1.5-0.8c0,0-0.1-0.1-0.2-0.1c0,0,0,0-0.1,0c0,0,0,0-0.1-0.1
		c-0.4-0.3-0.8-0.6-1-0.9c0,0,0,0,0-0.1c-0.9-0.9-1.5-2-1.7-3.1c-0.1-0.5-0.1-1.5-0.2-2.5c0-0.3,0-0.5,0-0.8s0-0.5,0-0.8
		c-0.1-3.1-0.1-6.3-0.1-8.4C320.4,134.9,320.4,132.2,320.5,129.4z M319.9,137.8c0,0.6,0,1.3,0,2
		C319.9,139.1,319.9,138.4,319.9,137.8L319.9,137.8z M335,155.4c-2.1,0.5-4.1,0.8-6.1,0.9C330.9,156.2,332.9,155.9,335,155.4z
		 M342.7,152c-1.2,0.7-2.4,1.4-3.6,1.9C340.3,153.4,341.5,152.7,342.7,152z M347.5,148.1c-1,1-2,1.9-3.2,2.8
		C345.5,150,346.6,149.1,347.5,148.1z M317.9,116.5c0.1-1.3,0.5-2.5,1.1-3.6C318.3,114,318,115.3,317.9,116.5L317.9,116.5z
		 M354.5,129c0.3,1.5,0.4,2.9,0.4,4.4C354.9,131.9,354.8,130.4,354.5,129z"/>
	<path class="st0" d="M393.3,141.6c-0.5-1.2-1.4-2.5-2.5-3.8c-1.2-1.2-2.4-2.2-3.7-3c-0.9-0.6-1.8-1-2.6-1.4l3.4-5.5
		c0.1-0.1,0.1-0.1,0.2-0.2s0.1-0.1,0.1-0.2c0.2-0.3,0.5-0.7,0.7-1l0.3-0.5l0.1-0.1c0.4-0.5,0.8-1.1,1.2-1.8c0.8-1.2,1.5-2.5,1.9-4.1
		c0.2-0.7,0.3-1.5,0.2-2.4c-0.1-0.8-0.2-1.6-0.6-2.3c-0.3-0.8-0.7-1.4-1.2-2c-0.3-0.3-0.6-0.6-0.8-0.9l-0.2-0.2
		c-0.1-0.1-0.2-0.2-0.2-0.2c-0.1-0.1-0.2-0.2-0.3-0.3c-2.2-2.1-5.1-3.6-8.2-4c-1.1-0.2-2.1-0.3-3.2-0.3c-2,0-4,0.3-5.9,1
		c-1.5,0.5-2.7,1.3-4,2.1c-0.7,0.5-1.3,0.9-1.8,1.4c-0.6,0.4-1.1,1-1.6,1.6c-1,1.1-1.9,2.4-2.5,3.8c-0.3,0.8-0.5,1.5-0.6,2.2
		c0,0.2-0.1,0.3-0.1,0.4s0,0.1,0,0.2s0,0.1,0,0.2s0,0.2,0,0.3v0.1c0,0.1,0,0.2,0,0.3c0,0.1,0,0.2,0,0.3c0,0.2-0.1,0.4-0.1,0.6
		c-0.1,1.4,0.3,2.9,1.1,4.7c0.9,1.5,1.9,2.8,3,3.8c2.1,1.9,4.9,3.4,8.1,4.4c1.6,0.5,3.2,0.8,4.4,1l1,0.2c0.1,0,0.3,0.1,0.4,0.1
		s0.1,0,0.2,0s0.1,0,0.2,0s0.2,0,0.2,0l1,0.2c0,0,0,0,0.1,0l-11,17.6c-1-0.6-2-1.3-2.8-2.2c-0.9-0.9-1.5-2-1.9-3
		c-0.4-1.1-0.5-2.1-0.5-3.3v-0.3c-0.1-1.2-1.2-2.2-2.3-2.2c-0.1,0-0.1,0-0.2,0c-0.6,0.1-1.2,0.4-1.6,0.8c-0.4,0.5-0.6,1.1-0.6,1.7
		c0.1,1.6,0.5,3.3,1.4,5c0.7,1.3,1.7,2.6,3,3.9c1.1,1,2.4,1.8,4,2.7c0.9,0.4,1.6,0.7,2.2,0.8c0.8,0.3,1.6,0.5,2.2,0.7
		c1.5,0.4,3.1,0.6,4.7,0.6c4.7,0,9.2-1.8,12.4-4.8c0.4-0.4,1-1,1.5-1.7c0.4-0.4,0.7-0.9,1-1.4l0.2-0.2l0.1-0.2l0,0
		c0.4-0.7,0.7-1.4,0.9-2.2c0.1-0.7,0.3-1.5,0.4-2.2C394.3,144.7,394,143.1,393.3,141.6z M391.7,150c-0.1,0.2-0.2,0.3-0.3,0.5
		C391.5,150.3,391.6,150.1,391.7,150c0.3-0.6,0.6-1.2,0.8-1.8C392.3,148.7,392.1,149.4,391.7,150z M373,155.6c0.1,0,0.3,0.1,0.5,0.1
		c1.2,0.3,2.5,0.4,4,0.5l0,0l0,0c-1.4,0-2.7-0.2-4-0.5C373.4,155.7,373.2,155.7,373,155.6z M379,132.2c-0.2,0-0.4-0.1-0.5-0.1
		l-4-0.9l4,0.9C378.7,132.1,378.9,132.2,379,132.2c0.2,0,0.3,0.1,0.5,0.1l1.1,0.2c0.2,0.1,0.4,0.1,0.6,0.2c0.5,0.1,1,0.3,1.5,0.4
		l0.5,0.2l3.9-6.3l-3.9,6.3l-0.5-0.2c-0.5-0.1-1-0.3-1.5-0.4c-0.2-0.1-0.4-0.1-0.6-0.2l-1.1-0.2C379.4,132.3,379.2,132.2,379,132.2z
		 M390.1,151.3c-0.3,0.3-0.7,0.7-1.1,1c-0.1,0.1-0.1,0.1-0.2,0.2c-0.1,0.1-0.1,0.1-0.2,0.2c-1.9,1.5-4.4,2.5-7.2,2.9
		c-1,0.2-2,0.2-3,0.2c-0.3,0-0.7,0-1,0c-1.5-0.1-2.7-0.2-3.9-0.5c0,0-0.1,0-0.2-0.1c-0.1,0-0.2,0-0.2-0.1l-0.2-0.1
		c-0.4-0.1-0.8-0.2-1.1-0.4c-0.1,0-0.1-0.1-0.2-0.1c-0.2,0-0.3-0.1-0.5-0.1l11.1-17.9c2.8,0.8,4.9,1.8,6.5,3.1
		c0.5,0.4,1,0.9,1.4,1.3c0.4,0.4,0.8,1,1.2,1.6c0.6,1.1,0.9,2.3,0.9,3.6c-0.1,1.2-0.4,2.4-1.1,3.5
		C390.9,150.3,390.5,150.8,390.1,151.3z M386.1,154.7c-0.7,0.3-1.4,0.6-2.2,0.8C384.7,155.3,385.4,155,386.1,154.7z M383.5,155.7
		c-0.6,0.2-1.3,0.3-1.9,0.4l0,0l0,0C382.2,156,382.8,155.8,383.5,155.7z M379.7,156.3c-0.2,0-0.4,0-0.5,0
		C379.3,156.3,379.5,156.3,379.7,156.3z M392.1,142.8c0.2,0.4,0.3,0.7,0.4,1.1C392.4,143.5,392.2,143.1,392.1,142.8z M390.6,140.7
		c0.2,0.2,0.4,0.4,0.6,0.7C391,141.1,390.8,140.9,390.6,140.7c-0.2-0.2-0.5-0.5-0.7-0.7C390.2,140.2,390.4,140.4,390.6,140.7z
		 M382.2,136L382.2,136c0.4,0.1,0.7,0.2,1.1,0.3C382.9,136.3,382.6,136.1,382.2,136z M367.4,127.7c-1.2-0.8-2.1-1.6-2.7-2.5
		c-0.7-1.1-1.1-2.3-1.2-3.4c0-0.3,0-0.6,0-1v-0.4c0-0.1,0-0.2,0-0.4c0-0.1,0-0.2,0-0.3c0.1-0.6,0.2-1.2,0.4-1.9
		c0.4-1.2,1.1-2.4,2-3.4c0.5-0.5,0.9-1,1.4-1.3c0.2-0.1,0.4-0.3,0.6-0.4c0.1-0.1,0.1-0.1,0.2-0.1l0,0l0.9-0.5c1.1-0.6,2.3-1,3.7-1.3
		c1.3-0.3,2.7-0.4,4.1-0.4c1.3,0,2.5,0.1,3.8,0.3c1.3,0.1,2.6,0.4,3.9,0.8c1,0.3,2.3,0.9,3.5,1.7c0.3,0.2,0.5,0.4,0.7,0.6l0.4,0.4
		l0.3,0.4c0.4,0.5,0.8,1,1.1,1.5c0.5,1.1,0.6,2.4,0.3,3.5c-0.3,1.3-0.9,2.5-1.6,3.7c-0.2,0.4-0.5,0.8-0.8,1.1l-0.2,0.3
		c-0.5,0.8-1,1.4-1.4,2.1l-3.7,6l-0.2-0.1c-0.3-0.1-0.5-0.2-0.8-0.2c-0.3-0.1-0.5-0.2-0.8-0.2c-0.1,0-0.2-0.1-0.4-0.1
		c-0.1,0-0.2,0-0.3-0.1c0,0,0,0-0.1,0l-1.1-0.2c-0.1,0-0.2,0-0.3-0.1c-0.1,0-0.2,0-0.3-0.1c-0.1,0-0.2,0-0.2,0c-0.1,0-0.2,0-0.3-0.1
		l-4-0.9C372.3,130.1,369.6,129.2,367.4,127.7z M391.3,119.7c-0.1,0.3-0.2,0.7-0.3,1C391.2,120.4,391.3,120.1,391.3,119.7
		c0.1-0.3,0.2-0.6,0.2-1C391.5,119.1,391.4,119.4,391.3,119.7z M391,115.8c-0.1-0.2-0.2-0.3-0.3-0.5
		C390.8,115.5,390.9,115.7,391,115.8c0.1,0.3,0.3,0.6,0.3,1C391.2,116.4,391.1,116.1,391,115.8z M378,110c0.2,0,0.4,0,0.7,0
		C378.4,110,378.2,110,378,110z M376.7,109.9c-0.5,0-0.9,0-1.4,0.1C375.7,109.9,376.2,109.9,376.7,109.9z M374.6,110
		c-0.7,0.1-1.4,0.2-2.1,0.3C373.2,110.2,373.9,110.1,374.6,110z M373.4,108.5c0.1,0,0.3-0.1,0.4-0.1
		C373.6,108.4,373.5,108.5,373.4,108.5z M374.7,108.2c0.1,0,0.3-0.1,0.4-0.1C375,108.1,374.8,108.2,374.7,108.2z M376.2,108
		c0.1,0,0.1,0,0.2,0C376.4,108,376.3,108,376.2,108z M368.7,111.7l-0.9,0.5c-0.1,0.1-0.2,0.1-0.2,0.2c-0.1,0.1-0.2,0.1-0.3,0.2
		c0.1-0.1,0.2-0.1,0.3-0.2c0.1-0.1,0.2-0.1,0.2-0.2L368.7,111.7c0.3-0.1,0.6-0.3,0.9-0.4C369.3,111.4,369,111.5,368.7,111.7z
		 M365.5,114.2c-0.2,0.2-0.4,0.5-0.7,0.8c-0.6,0.8-1.1,1.8-1.4,2.8c0.3-1,0.8-2,1.4-2.8C365.1,114.7,365.3,114.4,365.5,114.2
		c0.2-0.2,0.4-0.5,0.7-0.7C366,113.7,365.7,113.9,365.5,114.2z M363,120.4c0-0.1,0-0.2,0-0.4C363,120.2,363,120.3,363,120.4
		c0,0.2,0,0.5,0,0.7C363,120.9,363,120.7,363,120.4z M373.5,131c-0.9-0.3-1.9-0.6-2.8-1C371.7,130.4,372.6,130.7,373.5,131z
		 M381.5,136L381.5,136L381.5,136c-0.2-0.1-0.3-0.1-0.5-0.2C381.1,135.9,381.3,135.9,381.5,136z M370.6,154.7L370.6,154.7
		c0.3,0.1,0.6,0.3,1,0.4C371.2,155,370.9,154.9,370.6,154.7z M372.3,155.4c-0.2-0.1-0.5-0.2-0.7-0.3l0,0
		C371.8,155.2,372.1,155.3,372.3,155.4z M389.4,152.7C389.4,152.7,389.4,152.6,389.4,152.7c0.2-0.2,0.4-0.4,0.6-0.5
		C389.8,152.3,389.6,152.5,389.4,152.7C389.4,152.6,389.4,152.7,389.4,152.7z M392.8,147.1c0.1-0.3,0.1-0.6,0.1-1
		c0-0.6-0.1-1.2-0.2-1.8c0.1,0.6,0.2,1.2,0.2,1.8C392.9,146.5,392.8,146.8,392.8,147.1z M390.4,138.1c-1.1-1.1-2.2-2.1-3.5-2.9
		C388.1,136,389.3,137,390.4,138.1z M387.7,127.3L387.7,127.3L387.7,127.3c0.1-0.2,0.2-0.3,0.3-0.4
		C387.9,127,387.8,127.1,387.7,127.3z M390.1,123.9c-0.2,0.3-0.4,0.7-0.6,1C389.7,124.5,389.9,124.2,390.1,123.9
		c0.4-0.6,0.7-1.2,1.1-1.9C390.8,122.7,390.5,123.3,390.1,123.9z M392.1,117.2c-0.1-0.4-0.1-0.7-0.3-1.1
		C392,116.4,392,116.8,392.1,117.2z M389.4,112.6c0.3,0.3,0.7,0.6,1,1c0.4,0.4,0.6,0.9,0.9,1.4c-0.2-0.5-0.5-1-0.9-1.4
		C390.1,113.2,389.7,112.9,389.4,112.6c-0.1-0.1-0.2-0.2-0.2-0.2C389.3,112.4,389.3,112.5,389.4,112.6z M386.8,110.4
		c-0.5-0.3-1-0.6-1.6-0.9C385.8,109.8,386.3,110.1,386.8,110.4z M384.2,109.1c-1-0.4-2.1-0.7-3.2-0.9l0,0l0,0
		C382.1,108.3,383.2,108.6,384.2,109.1z M378.1,107.9c-0.1,0-0.2,0-0.4,0h0.1C377.9,107.9,378,107.9,378.1,107.9z M379.6,108
		c-0.1,0-0.3,0-0.4,0C379.3,108,379.5,108,379.6,108z M372.1,108.9L372.1,108.9L372.1,108.9c-1.4,0.5-2.5,1.2-3.9,2.1
		C369.6,110.1,370.7,109.4,372.1,108.9z M364.1,128.3c0.5,0.6,1,1.2,1.6,1.6C365.1,129.5,364.6,128.9,364.1,128.3z M369.8,154.4
		c0.1,0,0.2,0.1,0.3,0.2l0,0C370,154.5,369.9,154.4,369.8,154.4c-0.3-0.2-0.6-0.3-0.9-0.5C369.2,154,369.5,154.2,369.8,154.4z
		 M364.1,144.7c0,0.1,0.1,0.2,0.1,0.3C364.2,144.9,364.2,144.8,364.1,144.7z M365.9,151c-0.2-0.3-0.4-0.6-0.6-0.8
		C365.5,150.4,365.7,150.7,365.9,151z M364.5,148.1c0-0.1-0.1-0.2-0.1-0.4C364.4,147.9,364.5,148,364.5,148.1z M364.1,144.5
		c0-0.1-0.1-0.1-0.1-0.2C364,144.4,364.1,144.5,364.1,144.5z M363.7,143.9l-0.1-0.1C363.6,143.8,363.7,143.9,363.7,143.9z
		 M363.9,144.2c0-0.1-0.1-0.1-0.1-0.2C363.9,144.1,363.9,144.2,363.9,144.2z M362.4,143.3h0.1c-0.1,0-0.2,0-0.2,0
		S362.3,143.3,362.4,143.3z M363.5,143.7c-0.1,0-0.1-0.1-0.2-0.1C363.4,143.6,363.4,143.7,363.5,143.7z M363.2,143.5
		c-0.1,0-0.1-0.1-0.2-0.1C363.1,143.4,363.1,143.5,363.2,143.5z M362.8,143.4c-0.1,0-0.1,0-0.2,0
		C362.7,143.3,362.8,143.4,362.8,143.4z M361.9,143.4c-0.2,0.1-0.4,0.2-0.6,0.3C361.5,143.6,361.7,143.4,361.9,143.4z M360.6,144.6
		c-0.1,0.2-0.1,0.5-0.1,0.7l0,0C360.5,145,360.6,144.8,360.6,144.6z M364.8,153.9c-0.5-0.5-0.9-1-1.3-1.5
		C363.9,152.9,364.3,153.4,364.8,153.9c0.6,0.6,1.3,1.1,2,1.5C366.1,154.9,365.5,154.4,364.8,153.9z M371.5,157.5
		c0.5,0.2,1,0.3,1.5,0.4C372.5,157.8,372,157.6,371.5,157.5z M389.6,153.8L389.6,153.8c0.2-0.2,0.5-0.5,0.7-0.7
		C390.1,153.3,389.9,153.6,389.6,153.8z M393.6,146.2c0.1-1.1-0.1-2.2-0.4-3.3C393.6,144,393.7,145.1,393.6,146.2z"/>
	<path class="st0" d="M358.7,96.7c-0.8-1.9-1.4-3.5-1.9-4.8c-1.8-4.9-4.3-13.5-6.2-21.2c-0.5-2-0.9-4.2-1.3-6.1l-0.2-1
		c-0.1-0.7-0.3-1.4-0.4-2c-0.1-0.4-0.2-0.8-0.2-1.1c-1.1-5-2.3-7.8-3.2-9.3c-0.8-1.5-2.5-3.2-4.7-3.2c-1.6,0-2.7,0.7-3.3,1.2
		c-0.6,0.4-1.1,1-1.5,1.6c-0.4,0.5-0.7,1.1-1,1.5l-0.1,0.2c-0.6,1-1.1,2.2-1.6,3.5c-0.4,1.1-0.8,2.2-1.1,3.3l-0.1,0.3
		c-0.2,0.6-0.4,1.1-0.5,1.6l-0.1,0.3c-0.5,1.3-1.4,3.7-3.9,12v0.1c-2.3,6.2-2.6,6.9-4.7,11.6c-2.9,6.3-4.1,8.4-5,10l-0.1,0.1
		l-0.1,0.1c-0.2,0.3-0.3,0.6-0.4,0.8c-0.2,0.4-0.4,0.8-0.4,1.2c0,1.2,1,2.2,2.2,2.2c0.8,0,1.7-0.5,2-1.3v-0.1v-0.1
		c0.6-1.5,1.8-4.8,2.9-8.1l0.2-0.7c0.2-0.6,0.4-1.2,0.6-1.8c0.2-0.5,0.4-1,0.5-1.5c0.1-0.3,0.2-0.5,0.3-0.8l0.1-0.4l0,0
		c1.9-0.2,3.9-0.4,5.8-0.5c2.5-0.2,5.6-0.3,7.7-0.4c0.8,0,1.6,0,2.4,0c0.4,0,0.8,0,1.2,0h1.3c2.4,0.1,4.9,0.2,7.4,0.4
		c0.5,2.1,0.9,4.3,1.4,6.6c0.1,0.3,0.1,0.5,0.2,0.7c0.1,0.3,0.1,0.6,0.1,0.7c0.4,2.1,0.8,4,1,5.1c0.1,0.4,0.1,0.6,0.1,0.7
		s0,0.1,0,0.1c0.4,0.9,1.2,1.5,2.1,1.5c1.2,0,2.2-1,2.2-2.2c0-0.1,0-0.4-0.1-0.6C358.8,96.9,358.8,96.8,358.7,96.7z M358.3,97
		L358.3,97L358.3,97c-0.6-1.3-1.1-2.6-1.5-3.7C357.2,94.4,357.7,95.6,358.3,97z M332.2,82.6c-1.8,0-3.7,0.1-6,0.2l0,0
		C328.5,82.7,330.4,82.6,332.2,82.6c1.2,0,2.4,0,3.6,0s2.4,0,3.6,0c1.1,0,2.2,0.1,3.3,0.1h1.4c1.4,0,2.7,0.1,4,0.2
		c-1.3-0.1-2.7-0.1-4-0.2h-1.4c-1.1,0-2.2-0.1-3.3-0.1C337,82.5,334.6,82.5,332.2,82.6z M327.1,81.6c0.2-0.7,0.4-1.3,0.6-2
		c0.3-1,0.6-1.9,0.9-2.7l0.4-1.4v-0.1c0-0.1,0-0.1,0.1-0.2c0-0.1,0.1-0.1,0.1-0.2s0.1-0.2,0.1-0.3c0-0.1,0.1-0.2,0.1-0.2s0,0,0-0.1
		c0-0.2,0.1-0.3,0.1-0.4c0,0,0,0,0-0.1v-0.1c0-0.1,0-0.1,0.1-0.2l0,0l0,0l0,0l0.2-0.5c0.2-0.6,0.4-1.2,0.6-1.8
		c0-0.1,0.1-0.2,0.1-0.3c0-0.1,0.1-0.2,0.1-0.3c1.2-3.3,5.3-13.2,6.4-15.2c1-1.8,2.3-2.9,3.6-2.9h0.1c0.9,0,1.7,0.5,2.4,1.6
		c0.5,0.9,1,1.9,1.4,3c1.2,2.8,3.3,10.4,4.3,14.1c0.2,0.9,0.5,2.1,0.8,3.4l0.5,1.7l0.2,0.7l0.3,1.5c0.3,1.3,0.6,2.6,0.9,3.9
		c-2.3-0.2-4.8-0.3-7.3-0.4h-1.4h-0.4c-1,0-2-0.1-2.9-0.1c-1.2,0-2.4,0-3.6,0s-2.4,0-3.6,0c-1.8,0-3.5,0.1-5.3,0.2L327.1,81.6z
		 M340.8,52.2c0.1,0,0.1,0,0.2,0C341,52.2,340.9,52.2,340.8,52.2z M341.2,52.3c0.1,0,0.1,0,0.2,0C341.4,52.3,341.3,52.3,341.2,52.3z
		 M341.6,52.4c0.1,0,0.1,0,0.2,0.1C341.7,52.4,341.7,52.4,341.6,52.4z M342,52.6c0.1,0,0.1,0.1,0.2,0.1
		C342.1,52.6,342.1,52.6,342,52.6z M342.4,52.8l0.1,0.1C342.5,52.9,342.4,52.8,342.4,52.8z M342.7,53.1l0.1,0.1
		C342.8,53.2,342.8,53.1,342.7,53.1z M343.1,53.5l0.1,0.1C343.2,53.5,343.1,53.5,343.1,53.5z M350.2,70.9c-0.3-1.2-0.6-2.4-0.8-3.6
		C349.6,68.5,349.9,69.7,350.2,70.9z M347.6,59.1c-0.3-1.1-0.6-2.1-0.8-2.9C347.1,57,347.3,58,347.6,59.1z M336.2,51.2
		c0.2-0.3,0.4-0.5,0.7-0.8c0.2-0.2,0.5-0.5,0.8-0.7c0.1-0.1,0.3-0.3,0.5-0.4c0.4-0.2,0.9-0.5,1.5-0.6c-0.6,0.1-1.1,0.3-1.5,0.6
		c-0.2,0.1-0.4,0.3-0.5,0.4c-0.3,0.2-0.5,0.5-0.8,0.7C336.7,50.7,336.4,50.9,336.2,51.2c-0.2,0.3-0.4,0.6-0.6,0.8
		C335.8,51.8,336,51.5,336.2,51.2z M333.6,56.4c0.5-1.3,1-2.4,1.5-3.5C334.6,53.9,334.1,55.1,333.6,56.4c-0.4,1.2-0.8,2.4-1.2,3.5
		C332.8,58.7,333.2,57.5,333.6,56.4z M319.3,93.6c-0.2,0.5-0.5,0.9-0.7,1.2C318.8,94.5,319,94.1,319.3,93.6z M318.1,95.8
		c0.1-0.2,0.2-0.4,0.3-0.6C318.3,95.4,318.2,95.6,318.1,95.8c-0.1,0.2-0.2,0.3-0.3,0.5C317.9,96.1,318,96,318.1,95.8z M358.5,97.7
		c0-0.1,0-0.3-0.1-0.5l0,0l0,0C358.4,97.3,358.5,97.5,358.5,97.7L358.5,97.7z"/>
	<path class="st0" d="M269.7,157.1c0-0.1-0.1-0.2-0.1-0.3c-0.8-1.9-1.4-3.5-1.9-4.8c-1.8-4.9-4.3-13.5-6.2-21.2
		c-0.5-2-0.9-4.2-1.3-6.1l-0.2-1c-0.1-0.7-0.3-1.4-0.4-2c-0.1-0.4-0.2-0.8-0.2-1.1c-1.1-5-2.3-7.8-3.2-9.3c-0.8-1.5-2.5-3.2-4.7-3.2
		c-1.6,0-2.7,0.7-3.3,1.2c-0.6,0.4-1.1,1-1.5,1.6c-0.4,0.5-0.7,1.1-1,1.5l-0.1,0.2c-0.6,1-1.1,2.2-1.6,3.5c-0.4,1.1-0.8,2.2-1.1,3.3
		l-0.1,0.3c-0.2,0.5-0.3,0.9-0.5,1.4c-0.1,0.2-0.1,0.4-0.2,0.6c-0.5,1.3-1.3,3.7-3.9,12v0.1c-2.3,6.2-2.6,6.9-4.7,11.6
		c-2.9,6.3-4.1,8.4-5,10l-0.1,0.1l-0.1,0.1c-0.2,0.3-0.3,0.6-0.5,0.8c-0.2,0.4-0.4,0.8-0.4,1.2c0,1.2,1,2.2,2.2,2.2
		c0.8,0,1.7-0.5,2-1.3c0,0,0,0,0-0.1v-0.1c0.6-1.4,1.8-4.9,3.2-8.8c0.2-0.5,0.4-1.1,0.6-1.6c0.2-0.6,0.4-1.2,0.6-1.8
		c0.1-0.3,0.2-0.6,0.3-0.9l0.1-0.4l0,0c1.7-0.2,3.7-0.4,5.8-0.5c2.5-0.2,5.6-0.3,7.7-0.4c0.7,0,1.5,0,2.4,0c0.4,0,0.8,0,1.2,0h1.3
		c2.4,0.1,5,0.2,7.4,0.4c0.5,2,0.9,4.3,1.4,6.6c0.1,0.3,0.1,0.5,0.2,0.7c0.1,0.3,0.1,0.6,0.1,0.7c0.4,2.1,0.8,4,1,5.1
		c0.1,0.4,0.1,0.6,0.1,0.7c0,0.1,0,0.1,0,0.1c0.3,0.9,1.2,1.5,2.1,1.5c1.2,0,2.2-1,2.2-2.2C269.9,157.6,269.8,157.4,269.7,157.1
		L269.7,157.1z M269.2,157.2L269.2,157.2L269.2,157.2C269.2,157.1,269.2,157.1,269.2,157.2C269.2,157.1,269.2,157.1,269.2,157.2z
		 M243,142.6c-0.9,0-1.8,0.1-2.8,0.1s-2.1,0.1-3.2,0.2c1.2-0.1,2.2-0.1,3.2-0.2C241.2,142.7,242.1,142.6,243,142.6
		c1.2,0,2.4,0,3.6,0s2.4,0,3.6,0c1.1,0,2.2,0.1,3.3,0.1h1.4c0.7,0,1.4,0,2,0.1c-0.7,0-1.4-0.1-2-0.1h-1.4c-1.1,0-2.2-0.1-3.3-0.1
		C247.9,142.6,245.4,142.6,243,142.6z M239.4,137l0.4-1.4v-0.1c0-0.1,0-0.1,0.1-0.2c0-0.1,0.1-0.1,0.1-0.2c0-0.1,0.1-0.2,0.1-0.3
		s0-0.1,0.1-0.2c0.1-0.2,0.1-0.3,0.2-0.4c0.1-0.1,0.1-0.3,0.1-0.4l0,0v-0.1l0.2-0.5c0.2-0.6,0.4-1.2,0.6-1.8c0-0.1,0.1-0.2,0.1-0.3
		s0.1-0.2,0.1-0.3c1.2-3.3,5.3-13.2,6.4-15.2c1-1.8,2.3-2.9,3.6-2.9h0.1c0.9,0,1.7,0.5,2.4,1.6c0.5,0.9,1,1.9,1.4,3
		c1.1,2.7,3.2,10.1,4.3,14.1c0.2,0.7,0.4,1.6,0.7,2.8l0.1,0.6l0.5,1.7l0.2,0.7c0.1,0.6,0.3,1.1,0.4,1.7c0.3,1.2,0.6,2.5,0.8,3.7
		c-2.3-0.2-4.7-0.3-7.3-0.4h-1.4h-0.4c-1,0-2-0.1-3-0.1c-1.2,0-2.4,0-3.6,0c-1.2,0-2.4,0-3.7,0c-1.8,0-3.5,0.1-5.3,0.2l0.2-0.7
		l0.1-0.2C238.5,139.8,239,138.3,239.4,137z M253.9,113.5l0.1,0.1C254,113.6,254,113.5,253.9,113.5z M253.7,113.3l-0.1-0.1
		C253.6,113.2,253.7,113.2,253.7,113.3z M251.7,112.3c0.1,0,0.1,0,0.2,0C251.8,112.3,251.7,112.3,251.7,112.3z M252.1,112.3
		c0.1,0,0.1,0,0.2,0C252.2,112.3,252.1,112.3,252.1,112.3z M252.5,112.4c0.1,0,0.1,0,0.2,0.1C252.6,112.5,252.5,112.4,252.5,112.4z
		 M252.8,112.6c0.1,0,0.1,0.1,0.2,0.1C253,112.7,252.9,112.6,252.8,112.6z M253.2,112.8c0.1,0,0.1,0.1,0.2,0.1
		C253.3,112.9,253.3,112.9,253.2,112.8z M261.1,131c-0.3-1.2-0.6-2.4-0.8-3.6C260.5,128.6,260.8,129.8,261.1,131z M242.4,122.6
		c0.1-0.2,0.2-0.4,0.2-0.6c0.1-0.4,0.2-0.7,0.3-1s0.2-0.6,0.3-1c0.4-1.2,0.7-2.4,1.2-3.5c0.5-1.3,1-2.4,1.5-3.5
		c0.3-0.5,0.6-1.1,1-1.7c0.2-0.3,0.4-0.5,0.7-0.8s0.5-0.5,0.8-0.7c0.1-0.1,0.3-0.3,0.5-0.4c0.4-0.2,0.9-0.5,1.5-0.6
		c-0.6,0.1-1.1,0.3-1.5,0.6c-0.2,0.1-0.4,0.3-0.5,0.4c-0.3,0.2-0.5,0.5-0.8,0.7c-0.2,0.2-0.5,0.5-0.7,0.8c-0.4,0.5-0.7,1.1-1,1.7
		c-0.5,1-1,2.2-1.5,3.5c-0.4,1.2-0.8,2.4-1.2,3.5c-0.1,0.4-0.2,0.7-0.3,1s-0.2,0.6-0.3,1C242.6,122.2,242.5,122.4,242.4,122.6
		s-0.2,0.5-0.3,0.8C242.3,123.1,242.4,122.9,242.4,122.6z M234,145.8c0.4-0.9,0.8-1.6,1.1-2.3c0.2-0.4,0.4-0.9,0.6-1.3
		c0.3-0.6,0.5-1.1,0.7-1.7c-0.2,0.6-0.5,1.1-0.7,1.7c-0.2,0.4-0.4,0.8-0.6,1.3C234.7,144.1,234.4,144.9,234,145.8
		c-0.6,1.2-1,2.3-1.5,3.2C232.9,148,233.4,147,234,145.8z M232.1,149.9c-0.3,0.6-0.5,1.1-0.7,1.5
		C231.6,150.9,231.8,150.4,232.1,149.9z M230.2,153.7c-0.2,0.5-0.5,0.9-0.7,1.2C229.7,154.6,229.9,154.2,230.2,153.7z M228.4,156.8
		c0.1-0.3,0.3-0.6,0.5-0.9c0.1-0.2,0.2-0.4,0.3-0.6c-0.1,0.2-0.2,0.4-0.3,0.6C228.8,156.2,228.6,156.5,228.4,156.8
		c-0.2,0.3-0.3,0.6-0.3,0.9C228.1,157.4,228.2,157.1,228.4,156.8z"/>
</g>
<path id="Symbol" class="st0" d="M119.3,147.2l-16.5-22.6l15.5-14.9c1.6-1.5,2.6-3.7,2.6-6.2s-0.9-4.8-2.6-6.2L103,83.1l16.2-22.3
	c1.9-2.4,2.2-5.6,0.8-8.3c-1.4-2.7-4.1-4.5-7.2-4.5H56.1c-3.1,0-5.9,1.7-7.2,4.5c-1.4,2.8-1.1,5.9,0.8,8.3l16.2,22.3L50.6,97.3
	C49,98.8,48,101,48,103.5s0.9,4.8,2.6,6.2l15.5,14.9l-16.5,22.6c-1.9,2.4-2.2,5.6-0.8,8.3s4.1,4.5,7.2,4.5h56.8
	c3.1,0,5.9-1.7,7.2-4.5C121.5,152.7,121.2,149.6,119.3,147.2z M120.5,152.3c0-1-0.1-2-0.5-3C120.3,150.3,120.5,151.3,120.5,152.3z
	 M84.5,157c-4.8,0-21.3,0.6-26.7,0.9c-1,0-1.7,0.1-1.7,0.1c-2.3,0-4.4-1.3-5.4-3.4c-1-2.1-0.8-4.4,0.6-6.3l16.7-22l12.9,12.4
	c1.1,0.9,2.3,1.5,3.6,1.5s2.6-0.5,3.6-1.5l12.9-12.4l16.7,22c1.4,1.8,1.6,4.2,0.6,6.3s-3.1,3.3-5.4,3.3c-0.1,0-0.7,0-1.7-0.1
	C105.8,157.7,89.3,157,84.5,157z M108.4,158.3c-0.9,0-1.9-0.1-3-0.1C106.4,158.2,107.4,158.2,108.4,158.3z M104.3,158.1
	c-0.7,0-1.5-0.1-2.3-0.1c-1.2,0-2.4-0.1-3.6-0.1s-2.4-0.1-3.6-0.1c1.2,0,2.4,0.1,3.6,0.1s2.4,0.1,3.6,0.1
	C102.8,158.1,103.5,158.1,104.3,158.1z M93.6,157.7c-1.2,0-2.3-0.1-3.3-0.1c-2.4-0.1-4.5-0.1-5.8-0.1s-3.3,0-5.8,0.1
	c-1,0-2.2,0.1-3.3,0.1c1.2,0,2.3-0.1,3.3-0.1c2.4-0.1,4.5-0.1,5.8-0.1s3.3,0,5.8,0.1C91.3,157.7,92.5,157.7,93.6,157.7z M74.3,157.8
	c-1.2,0-2.4,0.1-3.6,0.1s-2.4,0.1-3.6,0.1c-0.8,0-1.5,0.1-2.3,0.1c0.7,0,1.5-0.1,2.3-0.1c1.2,0,2.4-0.1,3.6-0.1
	S73.1,157.8,74.3,157.8z M63.7,158.2c-1.1,0-2.1,0.1-3,0.1C61.6,158.2,62.6,158.2,63.7,158.2z M59.9,158.3c-0.6,0-1.1,0-1.5,0.1
	C58.8,158.3,59.3,158.3,59.9,158.3z M82.1,107.7c1.7-2.2,1.7-5.2,0-7.4L69.3,83.5l12.8-11.4c0.7-0.6,1.5-0.9,2.3-0.9
	s1.6,0.3,2.3,0.9l12.9,11.4l-12.8,16.8c-1.6,2.2-1.6,5.2,0,7.4l12.6,16.6L86.8,136c-0.7,0.6-1.5,0.9-2.3,0.9s-1.6-0.3-2.3-0.9
	l-12.7-11.7L82.1,107.7z M86.1,137c-0.3,0.1-0.6,0.3-0.9,0.3C85.5,137.2,85.8,137.1,86.1,137z M87.3,100.6c-0.2,0.2-0.4,0.5-0.5,0.8
	c-0.3,0.5-0.5,1.1-0.6,1.7c0.1-0.6,0.3-1.2,0.6-1.7C86.9,101.1,87.1,100.9,87.3,100.6l13-17.2L87.3,100.6z M84.5,68.3
	c-0.6,0-1.2,0.1-1.7,0.3C83.3,68.4,83.9,68.3,84.5,68.3s1.2,0.1,1.7,0.3C85.6,68.4,85,68.3,84.5,68.3z M68.6,83.4l13,17.2
	c0.2,0.2,0.4,0.5,0.5,0.8c0.4,0.8,0.7,1.7,0.7,2.6c0-0.9-0.2-1.8-0.7-2.6c-0.1-0.3-0.3-0.5-0.5-0.8L68.6,83.4L68.6,83.4z M117.1,108
	l-15.7,14.5l-11.7-16c-1.1-1.5-1.1-3.6,0-5l11.9-16.3L117.1,99c1.2,1,1.8,2.7,1.8,4.5S118.3,107,117.1,108z M119.4,56.6
	c-0.1,0.6-0.2,1.2-0.4,1.7C119.2,57.8,119.4,57.2,119.4,56.6z M118.3,53.4c1,2.1,0.8,4.4-0.6,6.3l-16.5,21.7L88.1,69.2
	c-1.1-1-2.3-1.5-3.6-1.5s-2.6,0.5-3.6,1.5L67.7,81.4L51.2,59.6c-1.4-1.8-1.6-4.2-0.6-6.3S53.7,50,56,50c0,0,0.5,0,1.2,0.1
	c13.8,0.8,22.9,1.2,27.2,1.2c7.3,0,27.2-1.1,28.4-1.2C115.2,50,117.3,51.3,118.3,53.4z M67.4,85.2l11.9,16.3c1.1,1.5,1.1,3.6,0,5
	l-11.6,16L51.9,108c-1.2-1.1-1.8-2.7-1.8-4.5s0.7-3.5,1.8-4.5L67.4,85.2z M51.5,108.3l16.2,14.9L51.5,108.3
	c-0.5-0.4-0.9-0.9-1.2-1.5C50.7,107.4,51.1,107.9,51.5,108.3z M119.4,103.5L119.4,103.5c0,0.7-0.1,1.4-0.3,2.1
	C119.3,105,119.4,104.3,119.4,103.5z M109.2,158.3c0.6,0,1.1,0,1.5,0.1C110.3,158.3,109.8,158.3,109.2,158.3z M117.8,156.4
	c-0.4,0.4-0.9,0.8-1.4,1.1C116.9,157.2,117.4,156.8,117.8,156.4z M118.8,154.8c0.3-0.6,0.5-1.1,0.6-1.7c0.1-0.3,0.1-0.6,0.1-0.9
	c0,0.3,0,0.6-0.1,0.9C119.3,153.7,119.1,154.3,118.8,154.8c-0.1,0.3-0.3,0.6-0.5,0.8C118.5,155.4,118.7,155.1,118.8,154.8z
	 M120.4,103.5L120.4,103.5c0-0.3,0-0.6,0-0.9C120.4,102.9,120.4,103.2,120.4,103.5z M56.1,48.5h56.8c1.1,0,2.1,0.2,3.1,0.6
	c-0.9-0.4-2-0.6-3.1-0.6H56.1c-1.1,0-2.1,0.2-3.1,0.6C53.9,48.7,55,48.5,56.1,48.5z M49.1,100.2c0.3-0.7,0.7-1.4,1.2-2
	C49.8,98.8,49.4,99.4,49.1,100.2c-0.4,1-0.6,2.1-0.6,3.3C48.5,102.3,48.7,101.2,49.1,100.2z M48.5,151.3c0,0.3,0,0.7,0,1
	C48.5,152,48.5,151.6,48.5,151.3z"/>
</svg>
