<?xml version="1.0" encoding="utf-8"?>
<!-- Generator: Adobe Illustrator 27.2.0, SVG Export Plug-In . SVG Version: 6.00 Build 0)  -->
<svg version="1.1" id="logo" xmlns="http://www.w3.org/2000/svg" xmlns:xlink="http://www.w3.org/1999/xlink" x="0px" y="0px"
	 viewBox="0 0 623.6 194.4" style="enable-background:new 0 0 623.6 194.4;" xml:space="preserve">
<style type="text/css">
	.st0{fill-rule:evenodd;clip-rule:evenodd;fill:#EEEEF5;}
	.st1{fill:#EEEEF5;}
</style>
<path id="wordmark" class="st0" d="M229.2,66.8c0-11.3,5.5-16.8,16.8-16.8h14.5v14.2h-9.4c-6.2,0-6.2,2.4-6.2,5.9c0,0.2,0,0.5,0,0.7
	v6.8h15.5v14.2H245v51.2h-15.8V91.7h-11.7V77.5h11.7V66.8z M288.5,77.6c0,0-2.2-0.1-8-0.1s-7.8,0.1-7.8,0.1V143h15.8V77.6z
	 M430.4,77.7L430.4,77.7h-5.6v65.3h15.9V77.7C436.3,77.7,433.5,77.7,430.4,77.7L430.4,77.7L430.4,77.7z M554.1,76.3
	c-10.3,0-14.8,4.1-16.4,6.6l-1.8,2.7v-7.8H520v65.3h15.8v-39.9c0-10.7,7.8-14.6,14.4-14.6s14.4,3.9,14.4,14.6v39.9h15.8v-40.7
	C580.2,83.3,566.6,76.3,554.1,76.3z M510.6,105.5v9c0,18.7-10.7,29.2-30.2,29.2s-30.2-10.3-30.2-29.2v-9c0-18.7,10.7-29.2,30.2-29.2
	S510.6,86.8,510.6,105.5z M493.7,103.2c0-8.2-4.7-14.4-13.4-14.4S467,95,467,103.2v13.6c0,8.2,4.7,15,13.4,15
	c8.6,0,13.4-6.8,13.4-15V103.2z M329.6,103.2c-1.3-0.3-2.6-0.5-3.8-0.8c-6.2-1.2-10.9-2.1-10.9-7.2c0-4.3,4.6-6.7,10.2-6.7
	c6.8,0,9.8,2.3,10.3,6.9h14.9c-1-11.4-8.5-18.7-25.8-18.7c-11.4,0-25.2,4.6-25.2,18.7c0,15.1,12.9,18.9,26.3,21.9
	c9.1,2.1,11.6,3.4,11.6,7.8s-5.8,6.8-11.4,6.8c-6.1,0-13.4-1.3-13.4-9.5h-15.5c0.6,15.1,12.1,21.9,28,21.9
	c17.5,0,27.9-6.9,27.9-19.9C353.1,109.7,340.3,105.5,329.6,103.2z M388.8,102.4c1.2,0.2,2.5,0.5,3.8,0.8
	c10.6,2.3,23.4,6.5,23.4,21.3c0,13-10.4,19.9-27.9,19.9c-15.9,0-27.4-6.8-28-21.9h15.5c0,8.2,7.2,9.5,13.4,9.5
	c5.5,0,11.4-2.4,11.4-6.8c0-4.4-2.5-5.8-11.6-7.8c-13.5-3-26.3-6.9-26.3-21.9c0-14.1,13.8-18.7,25.2-18.7c17.2,0,24.7,7.3,25.8,18.7
	h-14.9c-0.5-4.6-3.5-6.9-10.3-6.9c-5.5,0-10.2,2.4-10.2,6.7C377.9,100.3,382.6,101.2,388.8,102.4z M289.7,60.3c0,5-4,9-9,9
	c-5,0-9-4.1-9-9s4-9,9-9C285.6,51.3,289.7,55.3,289.7,60.3z M432.8,69.4c5,0,9-4.1,9-9s-4-9-9-9c-5,0-9,4-9,9
	C423.8,65.3,427.8,69.4,432.8,69.4z"/>
<path id="symbol" class="st1" d="M119.6,89.9c11,2.9,21.3,5,28.1,5c20.5,0,28.1-16.2,28.1-27.1h0c0,0,0-0.1,0-0.1c0,0,0,0,0,0h0
	c0-1.5-0.2-6.9-3.4-13.2c-4.7-8.9-13.5-13.8-24.7-13.8c-16.2,0-26.7,15.1-35.5,33.7c-8.3-2.5-16.8-5.2-24.4-7.8c0-0.3,0-0.5,0-0.8
	c0-11.9-9.7-21.6-21.6-21.6c-11.9,0-21.6,9.7-21.6,21.6c0,11.9,9.7,21.6,21.6,21.6c7,0,13.3-3.4,17.2-8.6c7,2.4,15.1,5.1,23.5,7.5
	c-1.2,2.8-2.3,5.5-3.4,8.3c-1.3,3.3-2.7,6.5-4.1,9.8c-11-2.9-21.3-5-28.1-5c-14.3,0-21.3,7.2-24.6,13.2c-3.2,5.7-3.5,11.6-3.5,12.9
	l0,0c0,0,0,0,0,0.1c0,0.1,0,0.1,0,0.1l0,0c0.1,11.3,7.6,27.9,28.1,27.9c16.2,0,26.7-15.1,35.5-33.7c8.3,2.5,16.8,5.2,24.4,7.8
	c0,0.3,0,0.5,0,0.8c0,11.9,9.7,21.6,21.6,21.6c11.9,0,21.6-9.7,21.6-21.6c0-11.9-9.7-21.6-21.6-21.6c-7,0-13.3,3.4-17.2,8.6
	c-7-2.4-15.1-5.1-23.5-7.5c1.2-2.8,2.3-5.5,3.5-8.3C116.8,96.4,118.2,93.2,119.6,89.9z M147.7,53.7c6.3,0,10.6,2.1,13,6.5
	c2,3.7,2.1,5.8,2.1,7.6h0c0,1.4-0.1,4-2.1,7.6c-2.5,4.4-6.7,6.5-13,6.5c-5.3,0-13.5-1.6-22.8-4C131.6,64.2,138.9,53.7,147.7,53.7z
	 M71.3,140.7c-14.2,0-15.2-12-15.1-14.9h0c0-0.9,0.2-3.9,2.1-7.2c2.4-4.1,6.7-6.1,13-6.1c5.3,0,13.5,1.6,22.8,4
	C87.4,130.2,80.1,140.7,71.3,140.7z"/>
</svg>
