<?xml version="1.0" encoding="utf-8"?>
<!-- Generator: Adobe Illustrator 27.7.0, SVG Export Plug-In . SVG Version: 6.00 Build 0)  -->
<svg version="1.1" id="Layer_1" xmlns="http://www.w3.org/2000/svg" xmlns:xlink="http://www.w3.org/1999/xlink" x="0px" y="0px"
	 viewBox="0 0 160 40" style="enable-background:new 0 0 160 40;" xml:space="preserve">
<style type="text/css">
	.st0{fill-rule:evenodd;clip-rule:evenodd;fill:none;}
	.st1{fill:#F3F4F5;}
	.st2{fill-rule:evenodd;clip-rule:evenodd;fill:#F3F4F5;}
</style>
<g id="Page-1">
	<g id="Listen-On" transform="translate(-509.000000, -485.000000)">
		<g id="Google-Podcasts" transform="translate(509.000000, 485.000000)">
			<path id="Rectangle" class="st0" d="M7,0h146c3.9,0,7,3.1,7,7v26c0,3.9-3.1,7-7,7H7c-3.9,0-7-3.1-7-7V7C0,3.1,3.1,0,7,0z"/>
			<path id="Listenon-Copy-3" class="st1" d="M43,14.9V9.1h0.9v5h2.8v0.8C46.7,14.9,43,14.9,43,14.9z M48,10c-0.3,0-0.5-0.2-0.5-0.5
				S47.7,9,48,9s0.5,0.2,0.5,0.5S48.3,10,48,10z M47.6,14.9v-4.2h0.8v4.2H47.6z M49.3,14.3l0.4-0.6c0.3,0.3,0.9,0.6,1.5,0.6
				s0.9-0.2,0.9-0.6c0-0.4-0.5-0.6-1.1-0.7c-0.7-0.2-1.6-0.4-1.6-1.3c0-0.7,0.6-1.2,1.7-1.2c0.8,0,1.3,0.3,1.7,0.6l-0.4,0.5
				c-0.3-0.3-0.7-0.5-1.3-0.5s-0.9,0.2-0.9,0.5c0,0.4,0.5,0.5,1,0.6c0.8,0.2,1.7,0.4,1.7,1.3c0,0.7-0.6,1.3-1.8,1.3
				C50.4,15,49.7,14.8,49.3,14.3z M55.1,15c-0.7,0-1-0.4-1-1v-2.6h-0.7v-0.7h0.7V9.6h0.8v1.1h0.9v0.7h-0.9v2.4
				c0,0.3,0.1,0.5,0.4,0.5c0.2,0,0.4-0.1,0.4-0.2l0.2,0.6C55.8,14.9,55.5,15,55.1,15z M56.4,12.8c0-1.2,0.9-2.2,2.2-2.2
				s2.1,1,2.1,2.3v0.2h-3.5c0.1,0.7,0.6,1.3,1.5,1.3c0.5,0,1-0.2,1.3-0.5l0.4,0.5c-0.4,0.4-1,0.6-1.8,0.6
				C57.3,15,56.4,14.1,56.4,12.8z M58.6,11.2c-0.9,0-1.3,0.7-1.3,1.3H60C59.9,11.9,59.5,11.2,58.6,11.2z M64.7,14.9v-2.7
				c0-0.7-0.4-0.9-0.9-0.9s-1,0.3-1.2,0.6v3h-0.8v-4.2h0.8v0.6c0.3-0.3,0.9-0.7,1.6-0.7c0.9,0,1.4,0.5,1.4,1.4v2.9
				C65.6,14.9,64.7,14.9,64.7,14.9z M71,15c-1.4,0-2.2-1-2.2-2.2s0.9-2.2,2.2-2.2c1.4,0,2.2,1,2.2,2.2S72.4,15,71,15z M71,14.3
				c0.9,0,1.4-0.7,1.4-1.5s-0.5-1.5-1.4-1.5s-1.4,0.7-1.4,1.5S70.1,14.3,71,14.3z M77.2,14.9v-2.7c0-0.7-0.4-0.9-0.9-0.9
				s-1,0.3-1.2,0.6v3h-0.8v-4.2H75v0.6c0.3-0.3,0.9-0.7,1.6-0.7c0.9,0,1.4,0.5,1.4,1.4v2.9C78,14.9,77.2,14.9,77.2,14.9z"/>
			<g id="_logo_Podcasts_192px" transform="translate(10.000000, 7.000000)">
				<polygon id="Shape" class="st2" points="10.9,8 10.9,11.7 10.9,13.3 10.9,17 14.1,17 14.1,13.3 14.1,11.7 14.1,8 				"/>
				<circle id="Oval" class="st2" cx="1.6" cy="11.6" r="1.6"/>
				<circle id="Oval_00000036249998963774234730000013951685957287893149_" class="st2" cx="1.6" cy="13.4" r="1.6"/>
				<rect id="Rectangle-path" y="11.6" class="st2" width="3.1" height="1.7"/>
				<circle id="Oval_00000124866396442741384450000005597620157642004391_" class="st2" cx="23.4" cy="13.4" r="1.6"/>
				<circle id="Oval_00000115497083292334836360000012474320870607377308_" class="st2" cx="23.4" cy="11.6" r="1.6"/>
				
					<rect id="Rectangle-path_00000064354005121545853160000002182149250240980104_" x="21.9" y="11.6" class="st2" width="3.1" height="1.7"/>
				<circle id="Oval_00000121972119822836880520000017527736317010822272_" class="st2" cx="7" cy="16.8" r="1.6"/>
				<circle id="Oval_00000026871241071629004070000005072606985247964081_" class="st2" cx="7" cy="18.5" r="1.6"/>
				
					<rect id="Rectangle-path_00000008827654201760850330000016058167393624392089_" x="5.4" y="16.8" class="st2" width="3.1" height="1.7"/>
				<circle id="Oval_00000127006495154421164810000001691345422391424642_" class="st2" cx="7" cy="6.5" r="1.6"/>
				<circle id="Oval_00000163061147812191578980000007930565075867791009_" class="st2" cx="7" cy="12.1" r="1.6"/>
				
					<rect id="Rectangle-path_00000037655903787765939480000007012822118579160200_" x="5.4" y="6.5" class="st2" width="3.1" height="5.6"/>
				<circle id="Oval_00000008112466276523117430000004648045807439080871_" class="st2" cx="18" cy="8.2" r="1.6"/>
				<circle id="Oval_00000140709322437666623500000001161933023101628835_" class="st2" cx="18" cy="6.5" r="1.6"/>
				
					<rect id="Rectangle-path_00000123416957543386983540000009112034852123119771_" x="16.5" y="6.5" class="st2" width="3.1" height="1.7"/>
				<circle id="Oval_00000076578560209890050090000016966263034813173137_" class="st2" cx="12.5" cy="3.3" r="1.6"/>
				<circle id="Oval_00000093896645536043206680000017881526528983507366_" class="st2" cx="12.5" cy="1.6" r="1.6"/>
				
					<rect id="Rectangle-path_00000078017043112642288370000010438374570919658927_" x="10.9" y="1.6" class="st2" width="3.1" height="1.7"/>
				<circle id="Oval_00000155824661798751204260000007921131342867458459_" class="st2" cx="12.5" cy="23.4" r="1.6"/>
				<circle id="Oval_00000031183624356834486100000001829945573110225032_" class="st2" cx="12.5" cy="21.7" r="1.6"/>
				
					<rect id="Rectangle-path_00000148658767358554618190000007315640189117543070_" x="10.9" y="21.7" class="st2" width="3.1" height="1.7"/>
				<circle id="Oval_00000119094815230372186540000000800920798497646723_" class="st2" cx="18" cy="18.5" r="1.6"/>
				<circle id="Oval_00000008119438018544870450000011600696801764418185_" class="st2" cx="18" cy="12.9" r="1.6"/>
				
					<rect id="Rectangle-path_00000175298652182349443170000006490621133365736086_" x="16.5" y="12.9" class="st2" width="3.1" height="5.5"/>
				<circle id="Oval_00000035493286109618601290000007903387829456776883_" class="st2" cx="12.5" cy="8" r="1.6"/>
				<circle id="Oval_00000104683745363297510280000004485184010692386976_" class="st2" cx="12.5" cy="17" r="1.6"/>
			</g>
			<path id="GooglePodcasts" class="st1" d="M47.5,31.2c2.9,0,4.6-1.7,4.6-4.6v-1.1h-4.4v1.3h2.7V27c0,1.6-1.2,2.7-2.9,2.7
				c-2,0-3.3-1.6-3.3-4.1s1.2-4,3.2-4c1.4,0,2.4,0.8,2.8,2.1H52c-0.4-2.1-2.1-3.5-4.5-3.5c-3,0-4.9,2.1-4.9,5.4
				C42.6,29.1,44.5,31.2,47.5,31.2z M56.8,31.1c2.2,0,3.7-1.5,3.7-4s-1.5-4-3.7-4s-3.7,1.5-3.7,4S54.6,31.1,56.8,31.1z M56.8,29.8
				c-1.2,0-2-1-2-2.7s0.8-2.7,2-2.7s2,1,2,2.7C58.8,28.9,58,29.8,56.8,29.8z M65,31.1c2.2,0,3.7-1.5,3.7-4s-1.5-4-3.7-4
				s-3.7,1.5-3.7,4S62.8,31.1,65,31.1z M65,29.8c-1.2,0-2-1-2-2.7s0.8-2.7,2-2.7c1.2,0,2,1,2,2.7C67,28.9,66.2,29.8,65,29.8z
				 M73.2,33.9c2.2,0,3.6-1.2,3.6-3v-7.6h-1.5v1.3l0,0c-0.5-0.9-1.4-1.4-2.5-1.4c-2,0-3.2,1.5-3.2,3.9s1.3,3.9,3.2,3.9
				c1.1,0,2-0.5,2.4-1.4l0,0v1.3c0,1.1-0.7,1.8-2,1.8c-0.9,0-1.6-0.4-1.8-1.1h-1.6C70,32.9,71.3,33.9,73.2,33.9z M73.1,29.7
				c-1.2,0-2-1-2-2.6s0.8-2.6,2-2.6s2.1,1,2.1,2.6S74.4,29.7,73.1,29.7z M80,31V20.4h-1.6V31H80z M84.9,31.1c1.8,0,3.1-1,3.3-2.4
				h-1.5c-0.2,0.7-0.9,1.1-1.8,1.1c-1.3,0-2.1-0.9-2.1-2.2v-0.1h5.4V27c0-2.3-1.3-3.8-3.5-3.8s-3.6,1.6-3.6,4
				C81.3,29.6,82.6,31.1,84.9,31.1z M86.7,26.4h-3.9c0.1-1.2,0.9-2,2-2S86.7,25.3,86.7,26.4z M94.4,31v-3.6h2.3
				c2.1,0,3.5-1.4,3.5-3.5s-1.4-3.5-3.5-3.5h-4V31H94.4z M96.3,26h-1.9v-4.2h1.9c1.4,0,2.2,0.8,2.2,2.1S97.7,26,96.3,26z
				 M104.8,31.1c2.2,0,3.7-1.5,3.7-4s-1.5-4-3.7-4s-3.7,1.5-3.7,4C101.1,29.6,102.5,31.1,104.8,31.1z M104.8,29.8c-1.2,0-2-1-2-2.7
				s0.8-2.7,2-2.7s2,1,2,2.7C106.8,28.9,106,29.8,104.8,29.8z M112.5,31.1c1.1,0,2-0.6,2.5-1.4l0,0V31h1.5V20.4H115v4.1l0,0
				c-0.4-0.8-1.3-1.4-2.4-1.4c-1.9,0-3.2,1.5-3.2,4S110.6,31.1,112.5,31.1z M112.9,29.8c-1.3,0-2-1-2-2.6s0.8-2.6,2-2.6s2,1,2,2.6
				C115,28.8,114.2,29.8,112.9,29.8z M121.5,31.1c1.9,0,3.2-1.1,3.3-2.8h-1.5c-0.2,0.9-0.8,1.4-1.8,1.4c-1.2,0-2-1-2-2.7
				s0.8-2.7,2-2.7c1,0,1.6,0.7,1.8,1.5h1.5c-0.1-1.5-1.3-2.8-3.3-2.8c-2.2,0-3.6,1.5-3.6,4C117.8,29.6,119.3,31.1,121.5,31.1z
				 M128.2,31.1c1,0,2-0.5,2.4-1.4l0,0V31h1.5v-5.3c0-1.5-1.2-2.5-3.1-2.5c-1.9,0-3.1,1-3.2,2.4h1.5c0.1-0.7,0.7-1.1,1.6-1.1
				c1,0,1.5,0.5,1.5,1.4v0.6l-2.1,0.1c-1.8,0.1-2.9,0.9-2.9,2.3C125.6,30.2,126.7,31.1,128.2,31.1z M128.6,29.9
				c-0.8,0-1.4-0.4-1.4-1.1s0.5-1.1,1.5-1.1l1.9-0.1v0.6C130.6,29.1,129.7,29.9,128.6,29.9z M136.6,31.1c1.8,0,3.1-1,3.1-2.4
				c0-1.1-0.6-1.7-2.2-2.1l-1.3-0.3c-0.8-0.2-1.2-0.5-1.2-1c0-0.6,0.6-1,1.4-1c0.9,0,1.4,0.5,1.5,1.2h1.5c-0.1-1.4-1.2-2.4-3-2.4
				s-3,0.9-3,2.3c0,1.1,0.7,1.8,2.2,2.2l1.3,0.3c0.8,0.2,1.1,0.5,1.1,1c0,0.6-0.6,1-1.5,1c-1,0-1.5-0.4-1.7-1.2h-1.6
				C133.5,30.2,134.7,31.1,136.6,31.1z M143.6,31.1c0.4,0,0.7,0,0.9-0.1v-1.3c-0.1,0-0.4,0-0.5,0c-0.6,0-0.9-0.3-0.9-1v-4.2h1.5
				v-1.3H143v-1.8h-1.6v1.8h-1.1v1.3h1.1V29C141.4,30.5,142,31.1,143.6,31.1z M148.6,31.1c1.8,0,3.1-1,3.1-2.4
				c0-1.1-0.6-1.7-2.2-2.1l-1.3-0.3c-0.8-0.2-1.2-0.5-1.2-1c0-0.6,0.6-1,1.4-1c0.9,0,1.4,0.5,1.5,1.2h1.5c-0.1-1.4-1.2-2.4-3-2.4
				s-3,0.9-3,2.3c0,1.1,0.7,1.8,2.2,2.2l1.3,0.3c0.8,0.2,1.1,0.5,1.1,1c0,0.6-0.6,1-1.5,1c-1,0-1.5-0.4-1.7-1.2h-1.6
				C145.5,30.2,146.7,31.1,148.6,31.1z"/>
		</g>
	</g>
</g>
</svg>
