<svg width="33" height="51" viewBox="0 0 33 51" fill="none" xmlns="http://www.w3.org/2000/svg">
<path d="M32.2357 45.0107L24.9074 34.847L31.8311 28.177C32.5954 27.4964 33 26.4529 33 25.2731C33 24.0934 32.5504 23.0498 31.8311 22.3692L24.9973 16.0169L32.2357 5.98932C33.0899 4.85498 33.2248 3.40303 32.5954 2.08719C31.9659 0.816727 30.6621 0 29.2684 0H3.73161C2.29292 0 1.03406 0.816727 0.404633 2.08719C-0.224795 3.35765 -0.0899179 4.85498 0.764306 5.98932L8.00272 16.0169L1.16894 22.3692C0.404633 23.0498 0 24.1388 0 25.2731C0 26.4529 0.449592 27.4964 1.16894 28.177L8.09265 34.847L0.764306 45.0107C-0.0899179 46.145 -0.224795 47.597 0.404633 48.9128C1.03406 50.1833 2.33787 51 3.73161 51H29.2684C30.7071 51 31.9659 50.1833 32.5954 48.9128C33.2248 47.6424 33.0899 46.145 32.2357 45.0107ZM3.68665 1.08897C3.68665 1.08897 3.86649 1.08897 4.13624 1.13434H4.22616C10.4305 1.49733 14.5218 1.67883 16.5 1.67883C19.9169 1.67883 29.1785 1.13434 29.2684 1.13434C30.2575 1.13434 31.1567 1.67883 31.6063 2.5863C32.0559 3.49377 31.9659 4.49199 31.3365 5.30872L24.0082 15.0641L18.2085 9.66459C17.7139 9.21085 17.1294 8.98399 16.5 8.98399C15.8706 8.98399 15.2861 9.21085 14.7916 9.66459L8.99183 15.0641L1.61853 5.30872C1.03406 4.49199 0.944143 3.49377 1.39373 2.5863C1.84333 1.63345 2.69755 1.08897 3.68665 1.08897ZM15.5109 23.7304L9.84605 16.1984L15.5559 11.1166C16.0954 10.6174 16.9046 10.5721 17.4891 11.1166L23.1989 16.2438L17.5341 23.7758C16.7698 24.8194 16.7698 26.226 17.5341 27.2696L23.109 34.7109L17.4891 39.9288C16.9046 40.4279 16.1403 40.4279 15.5559 39.9288L9.93597 34.7109L15.5109 27.2696C16.2752 26.226 16.2752 24.774 15.5109 23.7304ZM24.0981 33.7126L18.9278 26.5436C18.4782 25.9084 18.4332 25.0463 18.9278 24.411L24.188 17.1059L31.0668 23.2767C31.5613 23.7304 31.8311 24.4564 31.8311 25.2278C31.8311 25.9991 31.5613 26.7251 31.0668 27.1788L24.0981 33.7126ZM8.81199 17.1059L14.0722 24.411C14.5218 25.0463 14.5668 25.9084 14.0722 26.5436L8.90191 33.7126L1.93324 27.2242C1.43869 26.7705 1.16894 26.0445 1.16894 25.2731C1.16894 24.5018 1.43869 23.7758 1.93324 23.3221L8.81199 17.1059ZM9.08175 35.7998L14.7916 41.3354C15.2861 41.7891 15.9155 42.016 16.5 42.016C17.0845 42.016 17.7139 41.7891 18.2085 41.3354L23.9183 35.7998L31.3815 45.6913C31.9659 46.508 32.0559 47.5062 31.6063 48.4137C31.1567 49.3212 30.3025 49.8657 29.2684 49.8657C29.2234 49.8657 28.9537 49.8657 28.4591 49.8203C26.0313 49.7295 18.658 49.4119 16.5 49.4119C15.0613 49.4119 11.015 49.548 4.49591 49.8203C4.04632 49.8203 3.73161 49.8657 3.73161 49.8657C2.74251 49.8657 1.84333 49.3212 1.39373 48.4137C0.944143 47.5062 1.03406 46.508 1.66349 45.6913L9.08175 35.7998Z" fill="#F3F4F5"/>
</svg>
