<?xml version="1.0" encoding="utf-8"?>
<!-- Generator: Adobe Illustrator 27.2.0, SVG Export Plug-In . SVG Version: 6.00 Build 0)  -->
<svg version="1.1" id="Layer_1" xmlns="http://www.w3.org/2000/svg" xmlns:xlink="http://www.w3.org/1999/xlink" x="0px" y="0px"
	 viewBox="0 0 74 79" style="enable-background:new 0 0 74 79;" xml:space="preserve">
<style type="text/css">
	.st0{fill:#F3F4F5;}
</style>
<path class="st0" d="M73.7,17.4c-1.1-8.4-8.5-15-17.3-16.3c-1.5-0.2-7.1-1-20-1h-0.1c-13,0-15.7,0.8-17.2,1
	C10.6,2.4,2.8,8.3,0.9,16.8C0,21-0.1,25.6,0.1,29.9C0.3,36,0.4,42,0.9,48.1c0.4,4,1.1,8,2,12c1.8,7.3,9,13.3,16.2,15.8
	c7.6,2.6,15.8,3,23.6,1.2c0.9-0.2,1.7-0.4,2.6-0.7c1.9-0.6,4.1-1.3,5.8-2.4c0,0,0,0,0.1-0.1c0,0,0-0.1,0-0.1v-5.9c0,0,0-0.1,0-0.1
	c0,0,0,0,0-0.1c0,0,0,0-0.1,0c0,0-0.1,0-0.1,0c-5,1.2-10.2,1.8-15.3,1.8c-8.9,0-11.3-4.2-12-5.9c-0.6-1.5-0.9-3.1-1-4.7
	c0,0,0-0.1,0-0.1c0,0,0,0,0-0.1c0,0,0,0,0.1,0c0,0,0.1,0,0.1,0c4.9,1.2,10,1.8,15.1,1.8c1.2,0,2.4,0,3.7,0
	c5.1-0.1,10.5-0.4,15.5-1.4c0.1,0,0.3,0,0.4-0.1c7.9-1.5,15.5-6.2,16.2-18.2c0-0.5,0.1-4.9,0.1-5.4C73.8,33.8,74.3,23.7,73.7,17.4z
	 M61.5,47.3h-8.3V27.1c0-4.3-1.8-6.4-5.4-6.4c-4,0-6,2.6-6,7.6v11.1h-8.3V28.3c0-5.1-2-7.6-6-7.6c-3.6,0-5.4,2.2-5.4,6.4v20.2h-8.3
	V26.5c0-4.3,1.1-7.6,3.3-10.1c2.3-2.5,5.2-3.8,8.9-3.8c4.3,0,7.5,1.6,9.6,4.9l2.1,3.4l2.1-3.4c2.2-3.2,5.4-4.9,9.6-4.9
	c3.7,0,6.7,1.3,8.9,3.8c2.2,2.5,3.3,5.9,3.3,10.1L61.5,47.3z"/>
</svg>
