<?xml version="1.0" encoding="utf-8"?>
<!-- Generator: Adobe Illustrator 27.7.0, SVG Export Plug-In . SVG Version: 6.00 Build 0)  -->
<svg version="1.1" id="Layer_1" xmlns="http://www.w3.org/2000/svg" xmlns:xlink="http://www.w3.org/1999/xlink" x="0px" y="0px"
	 viewBox="0 0 160 40" style="enable-background:new 0 0 160 40;" xml:space="preserve">
<style type="text/css">
	.st0{fill-rule:evenodd;clip-rule:evenodd;fill:none;}
	.st1{fill:#F3F4F5;}
	.st2{fill-rule:evenodd;clip-rule:evenodd;fill:#F3F4F5;}
</style>
<g id="Page-1">
	<g id="Listen-On" transform="translate(-329.000000, -485.000000)">
		<g id="Spotify" transform="translate(329.000000, 485.000000)">
			<path id="Rectangle" class="st0" d="M7,0h146c3.9,0,7,3.1,7,7v26c0,3.9-3.1,7-7,7H7c-3.9,0-7-3.1-7-7V7C0,3.1,3.1,0,7,0z"/>
			<path id="Listenon" class="st1" d="M43,14.9V9.1h0.9v5h2.8v0.8C46.7,14.9,43,14.9,43,14.9z M48,10c-0.3,0-0.5-0.2-0.5-0.5
				S47.7,9,48,9s0.5,0.2,0.5,0.5S48.3,10,48,10z M47.6,14.9v-4.2h0.8v4.2H47.6z M49.3,14.3l0.4-0.6c0.3,0.3,0.9,0.6,1.5,0.6
				s0.9-0.2,0.9-0.6c0-0.4-0.5-0.6-1.1-0.7c-0.7-0.2-1.6-0.4-1.6-1.3c0-0.7,0.6-1.2,1.7-1.2c0.8,0,1.3,0.3,1.7,0.6l-0.4,0.5
				c-0.3-0.3-0.7-0.5-1.3-0.5s-0.9,0.2-0.9,0.5c0,0.4,0.5,0.5,1,0.6c0.8,0.2,1.7,0.4,1.7,1.3c0,0.7-0.6,1.3-1.8,1.3
				C50.4,15,49.7,14.8,49.3,14.3z M55.1,15c-0.7,0-1-0.4-1-1v-2.6h-0.7v-0.7h0.7V9.6h0.8v1.1h0.9v0.7h-0.9v2.4
				c0,0.3,0.1,0.5,0.4,0.5c0.2,0,0.4-0.1,0.4-0.2l0.2,0.6C55.8,14.9,55.5,15,55.1,15z M56.4,12.8c0-1.2,0.9-2.2,2.2-2.2
				s2.1,1,2.1,2.3v0.2h-3.5c0.1,0.7,0.6,1.3,1.5,1.3c0.5,0,1-0.2,1.3-0.5l0.4,0.5c-0.4,0.4-1,0.6-1.8,0.6
				C57.3,15,56.4,14.1,56.4,12.8z M58.6,11.2c-0.9,0-1.3,0.7-1.3,1.3H60C59.9,11.9,59.5,11.2,58.6,11.2z M64.7,14.9v-2.7
				c0-0.7-0.4-0.9-0.9-0.9s-1,0.3-1.2,0.6v3h-0.8v-4.2h0.8v0.6c0.3-0.3,0.9-0.7,1.6-0.7c0.9,0,1.4,0.5,1.4,1.4v2.9
				C65.6,14.9,64.7,14.9,64.7,14.9z M71,15c-1.4,0-2.2-1-2.2-2.2s0.9-2.2,2.2-2.2c1.4,0,2.2,1,2.2,2.2S72.4,15,71,15z M71,14.3
				c0.9,0,1.4-0.7,1.4-1.5s-0.5-1.5-1.4-1.5s-1.4,0.7-1.4,1.5S70.1,14.3,71,14.3z M77.2,14.9v-2.7c0-0.7-0.4-0.9-0.9-0.9
				s-1,0.3-1.2,0.6v3h-0.8v-4.2H75v0.6c0.3-0.3,0.9-0.7,1.6-0.7c0.9,0,1.4,0.5,1.4,1.4v2.9C78,14.9,77.2,14.9,77.2,14.9z"/>
			<path id="Spotify_Icon_RGB_Green" class="st2" d="M29.9,18.1c-4-2.4-10.7-2.6-14.5-1.4c-0.6,0.2-1.3-0.2-1.5-0.8
				c-0.2-0.6,0.2-1.3,0.8-1.5c4.4-1.3,11.8-1.1,16.4,1.7c0.6,0.3,0.7,1,0.4,1.6C31.2,18.2,30.4,18.4,29.9,18.1z M29.8,21.6
				c-0.3,0.5-0.9,0.6-1.3,0.3c-3.4-2.1-8.5-2.7-12.5-1.5c-0.5,0.2-1.1-0.1-1.2-0.6c-0.2-0.5,0.1-1.1,0.6-1.2
				c4.5-1.4,10.2-0.7,14,1.7C29.9,20.6,30,21.2,29.8,21.6z M28.2,25c-0.2,0.4-0.7,0.5-1.1,0.3c-2.9-1.8-6.6-2.2-11-1.2
				c-0.4,0.1-0.8-0.2-0.9-0.6c-0.1-0.4,0.2-0.8,0.6-0.9c4.8-1.1,8.8-0.6,12.1,1.4C28.3,24.2,28.5,24.7,28.2,25z M22.5,7
				C15.6,7,10,12.6,10,19.5S15.6,32,22.5,32S35,26.4,35,19.5S29.4,7,22.5,7L22.5,7z"/>
			<path class="st1" d="M47.2,31.2c2.8,0,4.6-1.4,4.6-3.7c0-1.7-1-2.7-3.5-3.3L46.9,24c-1.6-0.3-2.2-0.9-2.2-1.8
				c0-1.1,1-1.8,2.4-1.8c1.5,0,2.4,0.7,2.6,1.9h1.8c-0.1-2.1-1.8-3.5-4.3-3.5s-4.3,1.4-4.3,3.5c0,1.7,1.1,2.8,3.5,3.3l1.3,0.3
				c1.6,0.3,2.2,0.9,2.2,1.9c0,1.1-1.1,1.9-2.6,1.9c-1.6,0-2.7-0.7-2.9-1.9h-1.8C42.7,29.8,44.5,31.2,47.2,31.2z M55,33.9v-4.3l0,0
				c0.5,1,1.5,1.6,2.7,1.6c2.2,0,3.6-1.8,3.6-4.5s-1.5-4.5-3.7-4.5c-1.3,0-2.3,0.6-2.8,1.6l0,0v-1.5h-1.7v11.6H55z M57.3,29.6
				c-1.4,0-2.3-1.2-2.3-3s0.9-3,2.3-3c1.4,0,2.3,1.2,2.3,3C59.6,28.5,58.7,29.6,57.3,29.6z M66.6,31.2c2.5,0,4.1-1.7,4.1-4.5
				s-1.7-4.5-4.1-4.5s-4.1,1.7-4.1,4.5C62.4,29.4,64.1,31.2,66.6,31.2z M66.6,29.7c-1.4,0-2.3-1.1-2.3-3.1c0-1.9,0.9-3,2.3-3
				s2.3,1.1,2.3,3C68.9,28.6,68,29.7,66.6,29.7z M75.1,31.1c0.4,0,0.8,0,1-0.1v-1.4c-0.1,0-0.4,0-0.6,0c-0.7,0-1.1-0.3-1.1-1.1v-4.8
				h1.7v-1.4h-1.7v-2.1h-1.8v2.1h-1.3v1.4h1.3v5C72.6,30.4,73.3,31.1,75.1,31.1z M78.5,20.9c0.6,0,1-0.5,1-1c0-0.6-0.5-1-1-1
				s-1,0.5-1,1S77.9,20.9,78.5,20.9z M79.4,31v-8.7h-1.8V31H79.4z M83.6,31v-7.3h1.7v-1.4h-1.8v-0.8c0-0.8,0.4-1.2,1.1-1.2
				c0.2,0,0.5,0,0.7,0V19c-0.2,0-0.6-0.1-1-0.1c-1.8,0-2.6,0.8-2.6,2.5v0.9h-1.2v1.4h1.2V31H83.6z M87.6,34.3c1.8,0,2.7-0.7,3.4-2.8
				l3.3-9.2h-1.9l-2.2,7.1l0,0L88,22.3h-2l3.2,8.7L89,31.5c-0.3,0.9-0.7,1.2-1.6,1.2c-0.1,0-0.4,0-0.6,0v1.5
				C87,34.2,87.4,34.3,87.6,34.3z"/>
		</g>
	</g>
</g>
</svg>
