<?xml version="1.0" encoding="utf-8"?>
<!-- Generator: Adobe Illustrator 27.2.0, SVG Export Plug-In . SVG Version: 6.00 Build 0)  -->
<svg version="1.1" id="Layer_1" xmlns="http://www.w3.org/2000/svg" xmlns:xlink="http://www.w3.org/1999/xlink" x="0px" y="0px"
	 viewBox="0 0 570.2 469.3" style="enable-background:new 0 0 570.2 469.3;" xml:space="preserve">
<style type="text/css">
	.st0{fill:#F3F4F5;}
</style>
<path class="st0" d="M568,56.1c-18.1,8.2-38.1,13.2-57.7,16.4c9.3-1.6,22.9-18.4,28.4-25.1c8.3-10.4,15.2-22.2,19.1-34.9
	c0.5-1,0.9-2.2-0.1-3c-1.3-0.5-2.1-0.2-3.1,0.3C532.8,21.5,510.2,30,486.2,36c-2,0.5-3.5,0-4.7-1.2c-2-2.2-3.9-4.4-6-6.1
	c-10.1-8.6-20.9-15.3-33.1-20.3c-16-6.5-33.5-9.3-50.8-8.2c-16.8,1.1-33.3,5.8-48.2,13.6c-14.9,7.8-28.3,18.7-38.9,31.8
	c-11,13.5-19.1,29.5-23.2,46.5c-4,16.4-3.7,32.6-1.2,49.1c0.4,2.7,0.1,3.1-2.4,2.7C183.8,129.9,106,96.3,42.8,24.3
	c-2.7-3.1-4.2-3.1-6.5,0.2c-27.7,41.4-14.2,108,20.3,140.8c4.6,4.4,9.3,8.7,14.4,12.7c-1.9,0.4-24.8-2.1-45.3-12.7
	c-2.7-1.7-4.1-0.7-4.4,2.4c-0.3,4.5,0.1,8.6,0.8,13.5c5.3,42,34.4,80.9,74.2,96c4.7,2,10,3.7,15.1,4.6c-9.1,2-18.4,3.4-44.5,1.4
	c-3.2-0.6-4.5,1-3.2,4.1c19.6,53.3,61.8,69.2,93.4,78.2c4.2,0.7,8.5,0.7,12.7,1.7c-0.3,0.4-0.5,0.4-0.8,0.8
	c-10.5,16-46.9,27.9-63.8,33.8c-30.8,10.8-64.3,15.6-96.9,12.4c-5.2-0.8-6.3-0.7-7.7,0c-1.4,0.9-0.2,2.1,1.5,3.5
	c6.6,4.4,13.3,8.2,20.2,12c20.7,11,42.2,19.7,64.8,25.9c116.4,32.1,247.5,8.5,334.9-78.3c68.6-68.2,92.7-162.2,92.7-256.4
	c0-3.7,4.3-5.7,6.9-7.7c17.9-13.4,32.3-29.5,45.6-47.4c3-4,3-7.6,3-9.1c0-0.3,0-0.5,0-0.5C570.3,54.6,570.3,55.1,568,56.1z"/>
</svg>
